<svg width="18" height="18" viewBox="0 0 18 18" fill="none" xmlns="http://www.w3.org/2000/svg">
<g id="Frame" clip-path="url(#clip0_109_483)">
<g id="Group">
<path id="Vector" d="M12.464 0H12.5921C12.6948 1.2694 12.2103 2.21789 11.6215 2.90476C11.0437 3.58688 10.2525 4.24845 8.9728 4.14807C8.88743 2.89685 9.37274 2.01871 9.96081 1.33342C10.5062 0.69477 11.5061 0.126466 12.464 0ZM16.3378 13.2125V13.2481C15.9782 14.3372 15.4652 15.2707 14.8392 16.137C14.2677 16.9235 13.5674 17.9818 12.317 17.9818C11.2365 17.9818 10.5188 17.2871 9.41147 17.2681C8.24008 17.2491 7.5959 17.849 6.5249 18H6.15973C5.37327 17.8862 4.73857 17.2633 4.27618 16.7021C2.91272 15.0439 1.85911 12.9019 1.66309 10.1607V9.35529C1.74608 7.39349 2.69931 5.79845 3.96634 5.02542C4.63503 4.61441 5.55427 4.26426 6.57785 4.42076C7.01653 4.48874 7.46469 4.63891 7.85753 4.78751C8.22981 4.93058 8.69536 5.1843 9.13641 5.17086C9.43518 5.16217 9.73238 5.00645 10.0335 4.89659C10.9156 4.57805 11.7803 4.21288 12.9201 4.3844C14.2899 4.59149 15.2621 5.20011 15.8628 6.13911C14.7041 6.87656 13.788 7.98788 13.9445 9.88565C14.0836 11.6095 15.0858 12.6181 16.3378 13.2125Z" fill="black"/>
</g>
</g>
<defs>
<clipPath id="clip0_109_483">
<rect width="18" height="18" fill="white"/>
</clipPath>
</defs>
</svg>
