<svg width="34" height="34" viewBox="0 0 34 34" fill="none" xmlns="http://www.w3.org/2000/svg">
<circle cx="17" cy="17" r="16.5" stroke="#C4C4C4"/>
<path d="M23.4597 19.4796L22.6325 18.103C22.4588 17.7962 22.3016 17.2157 22.3016 16.8757V14.7777C22.3016 12.8289 21.1601 11.1455 19.514 10.3577C19.0838 9.59475 18.2897 9.12207 17.3798 9.12207C16.4781 9.12207 15.6675 9.61134 15.2373 10.3826C13.6243 11.1869 12.5075 12.8538 12.5075 14.7777V16.8757C12.5075 17.2157 12.3504 17.7962 12.1767 18.0948L11.3412 19.4796C11.0103 20.0352 10.9359 20.6489 11.1427 21.2128C11.3412 21.7684 11.8127 22.1996 12.4248 22.4069C14.0296 22.9543 15.7171 23.2196 17.4046 23.2196C19.0921 23.2196 20.7796 22.9543 22.3844 22.4152C22.9634 22.2245 23.4101 21.785 23.6252 21.2128C23.8403 20.6406 23.7823 20.0104 23.4597 19.4796Z" fill="#C4C4C4"/>
<path d="M19.7303 24.0571C19.3829 25.0191 18.4647 25.7074 17.3894 25.7074C16.7359 25.7074 16.0906 25.442 15.6357 24.9693C15.371 24.7205 15.1724 24.3888 15.0566 24.0488C15.1642 24.0654 15.2717 24.0737 15.3875 24.0903C15.5778 24.1152 15.7763 24.14 15.9748 24.1566C16.4463 24.1981 16.9261 24.223 17.4059 24.223C17.8774 24.223 18.3489 24.1981 18.8122 24.1566C18.9859 24.14 19.1596 24.1318 19.325 24.1069C19.4574 24.0903 19.5897 24.0737 19.7303 24.0571Z" fill="#C4C4C4"/>
</svg>
