<svg width="55" height="53" viewBox="0 0 55 53" fill="none" xmlns="http://www.w3.org/2000/svg">
<g opacity="0.4">
<path d="M54.1166 18.1655L48.5486 30.5304L47.7422 31.6055L39.0382 43.2279L38.2575 44.2775C36.8598 46.1368 35.7308 48.1835 34.9038 50.3575C34.7502 50.7671 34.6094 51.1938 34.4814 51.6375C34.47 51.6967 34.47 51.7575 34.4814 51.8167C34.3662 52.1623 34.2639 52.5079 34.1743 52.8663C34.2255 52.5506 34.2639 52.205 34.2895 51.8295C22.0275 52.4338 10.001 48.3105 0.689453 40.3095C1.11185 37.1735 1.70063 32.5271 2.18703 28.7895C2.18703 28.7127 2.18703 28.6359 2.18703 28.5591C2.53263 25.8583 2.82705 23.6823 2.96785 22.9655C4.10297 17.9144 5.95648 13.0521 8.47184 8.52715C9.90494 5.67492 11.6202 2.97341 13.5918 0.463125L13.7838 0.309531L13.8991 0.194336H14.0143L14.6798 0.25832H14.9614H15.2686C15.9214 0.32232 16.5486 0.399122 17.3934 0.539922L18.8398 0.80875H19.1727L22.155 1.44875C22.603 1.52555 23.1023 1.64074 23.6143 1.75594L23.7422 3.24074L24.0879 6.96555C24.1095 7.18916 24.1436 7.41137 24.1902 7.63113C24.1902 8.98793 24.267 10.4343 24.2798 11.7783C24.2798 12.1495 24.2798 12.5079 24.2798 12.8663C24.2798 13.8007 24.2798 14.6327 24.2798 15.3495C24.2798 15.5287 24.2798 15.7079 24.2798 15.8743C24.2798 16.0407 24.2798 16.1559 24.2798 16.2711V17.3591L24.4334 17.2823H24.5359H24.6254L25.0734 17.0391L25.3806 16.8727L25.7134 16.6936L26.0975 16.4759H26.2127L26.6734 16.2199L27.1598 15.9639L28.4398 15.2471L28.9902 14.9527L29.5534 14.6455L32.5743 13.0199L33.1886 12.6871L33.7775 12.3671L34.4431 12.0215L37.003 10.6775C37.3358 10.4855 37.6686 10.3063 38.0014 10.1527L38.5518 9.88395L39.0766 9.60234L40.4846 8.87273L41.867 8.19434C45.9108 10.1253 49.6187 12.6923 52.8495 15.7975L53.0031 15.9383C53.0798 16.0279 53.1695 16.1047 53.2463 16.2071L53.4511 16.412C53.5231 16.477 53.5875 16.55 53.6431 16.6295C53.7246 16.7525 53.7892 16.886 53.835 17.0263C53.835 17.0263 53.835 17.1159 53.835 17.1671C53.8296 17.2353 53.8296 17.3038 53.835 17.372C53.8478 17.4353 53.8478 17.5006 53.835 17.5639V17.6407C53.8417 17.7302 53.8417 17.8201 53.835 17.9095C53.9385 17.9837 54.033 18.0696 54.1166 18.1655Z" fill="white"/>
</g>
</svg>
