<svg width="89" height="31" viewBox="0 0 89 31" fill="none" xmlns="http://www.w3.org/2000/svg">
<path d="M1.85742 13.9876C1.85742 19.9435 6.68427 24.7702 12.6419 24.7702C12.8674 24.7702 13.0907 24.7625 13.3123 24.7492C7.6718 24.3996 3.20404 19.7161 3.20404 13.9876C3.20404 8.25729 7.6737 3.57179 13.3142 3.22414C13.0926 3.21077 12.8674 3.20312 12.6419 3.20312C6.68427 3.20312 1.85742 8.0319 1.85742 13.9876Z" fill="black"/>
<mask id="mask0_103_2651" style="mask-type:luminance" maskUnits="userSpaceOnUse" x="12" y="0" width="16" height="25">
<path d="M12.9785 0H27.8735V24.7512H12.9785V0Z" fill="white"/>
</mask>
<g mask="url(#mask0_103_2651)">
<path d="M13.9888 -0.00195312C13.7634 -0.00195312 13.538 0.00376735 13.3145 0.0152293C20.7276 0.366693 26.63 6.48671 26.63 13.9877C26.63 17.8806 25.0389 21.4028 22.4698 23.9395L22.9607 24.7187C26.0264 22.1535 27.9766 18.2969 27.9766 13.9877C27.9766 6.2613 21.7151 -0.00195312 13.9888 -0.00195312Z" fill="black"/>
</g>
<mask id="mask1_103_2651" style="mask-type:luminance" maskUnits="userSpaceOnUse" x="0" y="0" width="27" height="28">
<path d="M0 0H26.669V27.8724H0V0Z" fill="white"/>
</mask>
<g mask="url(#mask1_103_2651)">
<path d="M13.3134 0.015625C5.90226 0.367089 0 6.48708 0 13.9881C0 21.4873 5.90226 27.6092 13.3153 27.9587C13.5388 27.9702 13.7624 27.9759 13.9878 27.9759C15.7584 27.9759 17.4507 27.6473 19.0094 27.0475L14.9677 24.7267C14.6448 24.7553 14.3183 24.7708 13.9878 24.7708C13.8884 24.7708 13.7891 24.7708 13.6916 24.767C13.5636 24.7651 13.4376 24.7572 13.3115 24.7496C13.0899 24.7629 12.8666 24.7708 12.6411 24.7708C6.68349 24.7708 1.85662 19.9439 1.85662 13.9881C1.85662 8.03237 6.68349 3.20359 12.6411 3.20359C12.8666 3.20359 13.092 3.21124 13.3134 3.22461C13.5369 3.21124 13.7605 3.20359 13.9878 3.20359C19.9435 3.20359 24.7722 8.03237 24.7722 13.9881C24.7722 17.1551 23.4065 20.003 21.2327 21.9763L22.4688 23.9399C25.0379 21.4032 26.629 17.8809 26.629 13.9881C26.629 6.48708 20.7266 0.367089 13.3134 0.015625Z" fill="#D00000"/>
</g>
<mask id="mask2_103_2651" style="mask-type:luminance" maskUnits="userSpaceOnUse" x="15" y="17" width="9" height="11">
<path d="M15.9102 17.4165H23.7339V27.8725H15.9102V17.4165Z" fill="white"/>
</mask>
<g mask="url(#mask2_103_2651)">
<path d="M23.3839 27.9758L16.8896 17.6592L16.3203 18.6238L21.5407 26.9175L23.3839 27.9758Z" fill="black"/>
</g>
<path d="M21.5428 26.9172L16.3224 18.6235L13.9883 22.5774L21.5428 26.9172Z" fill="#D00000"/>
<path d="M41.5203 25.0567H38.7315V23.1694H38.6858C38.4051 23.7616 37.979 24.2735 37.4099 24.7053C36.8387 25.133 36.0652 25.347 35.0872 25.347C34.3021 25.347 33.6355 25.2209 33.0853 24.9726C32.5391 24.7186 32.0959 24.3748 31.7559 23.9413C31.4139 23.5095 31.1694 23.0148 31.0224 22.4589C30.8735 21.905 30.8008 21.3262 30.8008 20.7245V13.3057H33.7347V19.2576C33.7347 19.5843 33.7502 19.9491 33.7807 20.3502C33.815 20.7474 33.9029 21.1218 34.0404 21.4733C34.1817 21.8247 34.3957 22.119 34.6822 22.3521C34.9669 22.5868 35.3699 22.7033 35.8894 22.7033C36.3784 22.7033 36.7911 22.6233 37.1271 22.4589C37.4633 22.2966 37.7402 22.0769 37.9599 21.8019C38.1777 21.523 38.3362 21.204 38.4337 20.8468C38.5349 20.4857 38.5864 20.1114 38.5864 19.7237V13.3057H41.5203V25.0567Z" fill="black"/>
<path d="M43.8912 13.306H46.8328V25.0571H43.8912V13.306ZM43.4785 9.31768C43.4785 8.84399 43.6544 8.4314 44.0058 8.07994C44.3571 7.72848 44.8003 7.55273 45.3351 7.55273C45.8739 7.55273 46.3285 7.72083 46.6953 8.05702C47.062 8.39321 47.2453 8.81342 47.2453 9.31768C47.2453 9.82196 47.062 10.2422 46.6953 10.5784C46.3285 10.9146 45.8739 11.0826 45.3351 11.0826C44.8003 11.0826 44.3571 10.9069 44.0058 10.5554C43.6544 10.204 43.4785 9.79139 43.4785 9.31768Z" fill="black"/>
<path d="M49.207 6.55176H52.1409V14.8035H52.2172C52.3643 14.6048 52.5535 14.4042 52.7827 14.1999C53.0119 13.9974 53.2888 13.8064 53.6155 13.6268C53.9401 13.4434 54.3185 13.2964 54.7463 13.1837C55.178 13.0729 55.6651 13.0156 56.2056 13.0156C57.0403 13.0156 57.8062 13.176 58.5054 13.4969C59.2084 13.814 59.8082 14.2495 60.3086 14.8035C60.8071 15.3536 61.1948 16.0068 61.4698 16.7594C61.7488 17.5081 61.8902 18.3162 61.8902 19.1814C61.8902 20.0486 61.7565 20.8586 61.4927 21.6111C61.2329 22.3598 60.8471 23.013 60.3391 23.567C59.8348 24.1173 59.2236 24.5526 58.5054 24.8736C57.7872 25.1887 56.9791 25.3474 56.0833 25.3474C55.2524 25.3474 54.4789 25.1887 53.7607 24.8736C53.0424 24.5526 52.4712 24.0255 52.0492 23.292H51.9956V25.0569H49.207V6.55176ZM58.9486 19.1814C58.9486 18.7229 58.8683 18.2838 58.7117 17.8596C58.5588 17.4376 58.3314 17.0632 58.0317 16.7365C57.73 16.4117 57.367 16.152 56.9391 15.9573C56.5151 15.7585 56.0338 15.6592 55.495 15.6592C54.9602 15.6592 54.4789 15.7585 54.0509 15.9573C53.627 16.152 53.264 16.4117 52.9583 16.7365C52.6566 17.0632 52.4312 17.4376 52.2784 17.8596C52.1257 18.2838 52.0492 18.7229 52.0492 19.1814C52.0492 19.6399 52.1257 20.081 52.2784 20.5033C52.4312 20.9272 52.6566 21.3035 52.9583 21.634C53.264 21.9607 53.627 22.2204 54.0509 22.4134C54.4789 22.6081 54.9602 22.7037 55.495 22.7037C56.0338 22.7037 56.5151 22.6081 56.9391 22.4134C57.367 22.2204 57.73 21.9607 58.0317 21.634C58.3314 21.3035 58.5588 20.9272 58.7117 20.5033C58.8683 20.081 58.9486 19.6399 58.9486 19.1814Z" fill="black"/>
<path d="M63.6211 6.55176H66.555V14.8035H66.6313C66.7785 14.6048 66.9675 14.4042 67.1968 14.1999C67.426 13.9974 67.7029 13.8064 68.0296 13.6268C68.3542 13.4434 68.7326 13.2964 69.1603 13.1837C69.5921 13.0729 70.0792 13.0156 70.6197 13.0156C71.4544 13.0156 72.2203 13.176 72.9195 13.4969C73.6224 13.814 74.2222 14.2495 74.7226 14.8035C75.2212 15.3536 75.6089 16.0068 75.8839 16.7594C76.1629 17.5081 76.3042 18.3162 76.3042 19.1814C76.3042 20.0486 76.1705 20.8586 75.9068 21.6111C75.647 22.3598 75.2612 23.013 74.7531 23.567C74.2489 24.1173 73.6377 24.5526 72.9195 24.8736C72.2012 25.1887 71.3932 25.3474 70.4974 25.3474C69.6665 25.3474 68.8929 25.1887 68.1747 24.8736C67.4565 24.5526 66.8853 24.0255 66.4633 23.292H66.4097V25.0569H63.6211V6.55176ZM73.3627 19.1814C73.3627 18.7229 73.2824 18.2838 73.1258 17.8596C72.9728 17.4376 72.7457 17.0632 72.4457 16.7365C72.144 16.4117 71.7811 16.152 71.3531 15.9573C70.9292 15.7585 70.4478 15.6592 69.9091 15.6592C69.3743 15.6592 68.8929 15.7585 68.465 15.9573C68.041 16.152 67.6781 16.4117 67.3724 16.7365C67.0707 17.0632 66.8453 17.4376 66.6925 17.8596C66.5398 18.2838 66.4633 18.7229 66.4633 19.1814C66.4633 19.6399 66.5398 20.081 66.6925 20.5033C66.8453 20.9272 67.0707 21.3035 67.3724 21.634C67.6781 21.9607 68.041 22.2204 68.465 22.4134C68.8929 22.6081 69.3743 22.7037 69.9091 22.7037C70.4478 22.7037 70.9292 22.6081 71.3531 22.4134C71.7811 22.2204 72.144 21.9607 72.4457 21.634C72.7457 21.3035 72.9728 20.9272 73.1258 20.5033C73.2824 20.081 73.3627 19.6399 73.3627 19.1814Z" fill="black"/>
<path d="M76.4453 13.3057H79.6773L82.9551 21.458H83.0009L85.9424 13.3057H88.9986L83.4441 27.5779C83.2301 28.132 82.9951 28.6172 82.7411 29.0297C82.4909 29.4462 82.1928 29.7977 81.8472 30.0841C81.5053 30.3686 81.1021 30.5807 80.64 30.7182C80.1758 30.8595 79.618 30.9322 78.9667 30.9322C78.197 30.9322 77.4462 30.8347 76.7127 30.642L77.0794 27.9907C77.3087 28.0707 77.5474 28.1396 77.7976 28.197C78.0517 28.258 78.3097 28.2885 78.5695 28.2885C78.9305 28.2885 79.2341 28.2542 79.4786 28.1892C79.7231 28.1224 79.9256 28.0212 80.0898 27.8837C80.2521 27.7462 80.3955 27.5646 80.5178 27.3411C80.64 27.1216 80.7661 26.8559 80.8998 26.5466L81.4574 25.1561L76.4453 13.3057Z" fill="black"/>
</svg>
