<svg width="17" height="12" viewBox="0 0 17 12" fill="none" xmlns="http://www.w3.org/2000/svg">
<g opacity="0.2">
<path d="M6.20098 0.671035L7.26338 6.90464C6.71668 7.84074 5.8403 8.53911 4.80578 8.86304L3.35938 0.23584C4.31524 0.317246 5.26457 0.462634 6.20098 0.671035Z" fill="white"/>
<path d="M2.04074 0.107943L3.55114 8.92714C3.19577 8.906 2.8438 8.84591 2.50154 8.74794C2.27179 8.69617 2.04853 8.61889 1.83594 8.51754L0.402344 0.133539C0.94686 0.0802432 1.49483 0.0716855 2.04074 0.107943Z" fill="white"/>
<path d="M15.2889 3.25652L16.2361 8.77332C15.9308 9.55486 15.4437 10.2525 14.8153 10.8085L13.3945 2.39893C14.055 2.61592 14.6901 2.90344 15.2889 3.25652Z" fill="white"/>
<path d="M14.086 11.295C13.7693 11.4484 13.426 11.5397 13.0748 11.5638L11.4492 1.97656C11.8204 1.97656 12.1788 2.09176 12.5372 2.16856L14.086 11.295Z" fill="white"/>
</g>
</svg>
