<svg width="32" height="31" viewBox="0 0 32 31" fill="none" xmlns="http://www.w3.org/2000/svg">
<path d="M15.8208 30.2905C24.0902 30.2905 30.7939 23.5868 30.7939 15.3174C30.7939 7.04793 24.0902 0.344238 15.8208 0.344238C7.55135 0.344238 0.847656 7.04793 0.847656 15.3174C0.847656 23.5868 7.55135 30.2905 15.8208 30.2905Z" fill="#119DA4"/>
<path d="M15.8573 30.6268C11.8539 30.5393 8.04394 28.8875 5.24354 26.0252C2.44315 23.1629 0.875 19.3178 0.875 15.3134C0.875 11.3091 2.44315 7.46392 5.24354 4.60163C8.04394 1.73934 11.8539 0.0875232 15.8573 0V0.673282C11.9755 0.673282 8.25262 2.21534 5.50775 4.96021C2.76288 7.70508 1.22081 11.4279 1.22081 15.3098C1.22081 19.1916 2.76288 22.9144 5.50775 25.6593C8.25262 28.4042 11.9755 29.9462 15.8573 29.9462V30.6268Z" fill="white"/>
<path d="M15.8574 30.6271V29.9538C19.7393 29.9538 23.4621 28.4118 26.207 25.6669C28.9519 22.922 30.4939 19.1992 30.4939 15.3173C30.4939 11.4355 28.9519 7.71264 26.207 4.96777C23.4621 2.2229 19.7393 0.680843 15.8574 0.680843V0.00756563C17.8966 -0.0370147 19.9241 0.326118 21.821 1.07566C23.718 1.8252 25.4461 2.94606 26.904 4.37245C28.3619 5.79885 29.5203 7.50206 30.3111 9.38215C31.1019 11.2622 31.5093 13.2813 31.5093 15.321C31.5093 17.3606 31.1019 19.3797 30.3111 21.2598C29.5203 23.1399 28.3619 24.8431 26.904 26.2695C25.4461 27.6959 23.718 28.8168 21.821 29.5663C19.9241 30.3159 17.8966 30.679 15.8574 30.6344V30.6271Z" fill="white"/>
<path d="M23.6888 15.3171H23.0155C23.0155 10.3554 20.4907 3.7104 15.6973 0.622101L16.0559 0.0585938C21.0615 3.27862 23.6888 10.1724 23.6888 15.3171Z" fill="white"/>
<path d="M16.0402 30.1218L15.6816 29.551C20.4897 26.4627 22.9999 19.825 22.9999 14.856H23.6732C23.6878 20.008 21.0605 26.9018 16.0402 30.1218Z" fill="white"/>
<path d="M8.70842 15.3098H8.03516C8.03516 10.187 10.6624 3.2713 15.6827 0.0512695L16.0413 0.622097C11.2259 3.71039 8.70842 10.348 8.70842 15.3098Z" fill="white"/>
<path d="M15.6827 30.1145C10.6624 26.8945 8.03516 20.0007 8.03516 14.856H8.70842C8.70842 19.8177 11.2259 26.4627 16.0267 29.551L15.6827 30.1145Z" fill="white"/>
<path d="M16.1948 0.336914H15.5215V30.2905H16.1948V0.336914Z" fill="white"/>
<path d="M28.534 6.99609H3.18359V7.66937H28.534V6.99609Z" fill="white"/>
<path d="M30.8315 15.2295H0.892578V15.9028H30.8315V15.2295Z" fill="white"/>
<path d="M28.204 23.4551H3.51953V24.1284H28.204V23.4551Z" fill="white"/>
</svg>
