<svg width="42" height="21" viewBox="0 0 42 21" fill="none" xmlns="http://www.w3.org/2000/svg">
<g opacity="0.9">
<path d="M11.3324 18.2185H11.2556C11.2556 18.2185 10.5516 17.6425 9.51482 16.7593C8.09402 15.5561 6.04601 13.8153 4.26681 12.3305L2.64122 10.9225L0.70841 9.2841C0.24761 8.8745 0.798015 2.44889 0.913215 1.15609C0.91904 1.08368 0.91904 1.01089 0.913215 0.938477L4.36923 1.54008L5.81564 1.79609L6.14841 1.86008L10.5644 2.61527V2.8073L10.6924 4.29211L11.038 8.0041C11.038 8.2345 11.102 8.4649 11.1404 8.6825C11.1404 10.0393 11.2172 11.4857 11.2428 12.8297C11.2428 13.2009 11.2428 13.5593 11.2428 13.9049C11.2428 14.8393 11.2428 15.6841 11.2428 16.4009C11.2428 16.7337 11.2428 17.0537 11.2428 17.3225V18.2441L11.3324 18.2185Z" fill="white"/>
<path d="M41.1439 17.8216C37.0479 18.2056 29.3936 20.8936 29.3936 20.8936L11.6016 18.2568C13.304 17.3096 23.224 11.9336 27.7808 9.64238L29.1632 8.95117C33.2096 10.8775 36.9182 13.445 40.1455 16.5544C40.2872 16.6815 40.4198 16.8184 40.5423 16.964C40.6834 17.0923 40.812 17.2337 40.9264 17.3864C41.0284 17.5147 41.1025 17.6629 41.1439 17.8216Z" fill="white"/>
</g>
</svg>
