<svg width="20" height="20" viewBox="0 0 20 20" fill="none" xmlns="http://www.w3.org/2000/svg">
<path d="M14.333 18.333C16.5421 18.333 18.333 16.5421 18.333 14.333C18.333 12.1239 16.5421 10.333 14.333 10.333C12.1239 10.333 10.333 12.1239 10.333 14.333C10.333 16.5421 12.1239 18.333 14.333 18.333Z" stroke="black" stroke-miterlimit="10" stroke-linecap="round" stroke-linejoin="round"/>
<path d="M15.8242 14.3833H12.8408" stroke="black" stroke-miterlimit="10" stroke-linecap="round" stroke-linejoin="round"/>
<path d="M14.332 12.9248V15.9164" stroke="black" stroke-miterlimit="10" stroke-linecap="round" stroke-linejoin="round"/>
<path d="M18.3327 7.24136C18.3327 8.88303 17.9077 10.333 17.241 11.5913C16.5077 10.8163 15.4744 10.333 14.3327 10.333C12.1244 10.333 10.3327 12.1247 10.3327 14.333C10.3327 15.358 10.7244 16.2914 11.3577 16.9997C11.0494 17.1414 10.766 17.258 10.516 17.3414C10.2327 17.4414 9.76602 17.4414 9.48269 17.3414C7.06602 16.5164 1.66602 13.0747 1.66602 7.24136C1.66602 4.66636 3.74101 2.58301 6.29935 2.58301C7.80768 2.58301 9.15768 3.31638 9.99935 4.44138C10.841 3.31638 12.191 2.58301 13.6994 2.58301C16.2577 2.58301 18.3327 4.66636 18.3327 7.24136Z" stroke="black" stroke-linecap="round" stroke-linejoin="round"/>
</svg>
