<svg width="20" height="20" viewBox="0 0 20 20" fill="none" xmlns="http://www.w3.org/2000/svg">
<path d="M12.5241 8.97509L17.2408 5.81677C17.7158 5.5001 17.8408 4.8501 17.5241 4.38344L16.0074 2.12508C15.6908 1.65008 15.0408 1.52509 14.5741 1.84175L9.85742 5.00009L12.5241 8.97509Z" stroke="black" stroke-linecap="round" stroke-linejoin="round"/>
<path d="M10.1445 5.39936L6.16309 8.06592L8.29634 11.251L12.2777 8.58448L10.1445 5.39936Z" stroke="black" stroke-linecap="round" stroke-linejoin="round"/>
<path d="M4.85812 13.2499L8.14979 11.0499L6.28312 8.2666L2.99145 10.4666C2.60812 10.7249 2.50812 11.2416 2.76646 11.6249L3.70812 13.0249C3.95812 13.3999 4.47479 13.4999 4.85812 13.2499Z" stroke="black" stroke-linecap="round" stroke-linejoin="round"/>
<path d="M10.0415 10.1665L6.2998 18.3332" stroke="black" stroke-linecap="round" stroke-linejoin="round"/>
<path d="M10 10.1665L13.7 18.3332" stroke="black" stroke-linecap="round" stroke-linejoin="round"/>
</svg>
