<svg width="435" height="226" viewBox="0 0 435 226" fill="none" xmlns="http://www.w3.org/2000/svg">
<g clip-path="url(#clip0_103_6395)">
<path d="M95.4451 206.028C95.4451 206.028 93.1145 199.643 90.1298 191.346H89.9984V190.978C87.2352 183.3 83.9388 174.068 81.4202 166.766V191.267H71.3766V156.494H77.9951C77.7375 155.667 77.5727 155.038 77.4929 154.647C77.068 152.586 77.5701 151.298 78.3067 150.214H49.1288V224.911H104.855V223.49C98.6153 220.515 96.8358 209.781 95.4451 206.028ZM62.9967 191.346H52.9531V156.573H62.9967V191.346Z" stroke="#111111" stroke-width="0.960582" stroke-linecap="round" stroke-linejoin="round"/>
<path d="M81.4177 197.278V194.022H71.3845V197.278H81.4177Z" fill="#6D6D6D"/>
<path d="M89.9978 197.353V194.098H90.9507L91.8443 197.353H89.9978Z" fill="#6D6D6D"/>
<path d="M62.994 197.353V194.097H52.9607V197.353H62.994Z" fill="#6D6D6D"/>
<path d="M76.2104 215.523C78.1561 215.523 79.7333 213.945 79.7333 211.999C79.7333 210.053 78.1561 208.476 76.2104 208.476C74.2647 208.476 72.6874 210.053 72.6874 211.999C72.6874 213.945 74.2647 215.523 76.2104 215.523Z" stroke="#111111" stroke-width="0.960582" stroke-linecap="round" stroke-linejoin="round"/>
<path d="M97.7032 214.107C97.3206 214.651 96.792 215.075 96.1785 215.331C95.5649 215.587 94.8913 215.665 94.2357 215.554C93.5801 215.443 92.9692 215.149 92.4735 214.706C91.9779 214.263 91.6177 213.688 91.4348 213.049C91.2518 212.41 91.2534 211.732 91.4395 211.093C91.6255 210.455 91.9884 209.882 92.4862 209.441C92.9839 209 93.5963 208.709 94.2524 208.602C94.9086 208.495 95.5817 208.575 96.1941 208.834" stroke="#111111" stroke-width="0.960582" stroke-linecap="round" stroke-linejoin="round"/>
<path d="M57.7845 215.601C59.7302 215.601 61.3075 214.023 61.3075 212.077C61.3075 210.131 59.7302 208.553 57.7845 208.553C55.8388 208.553 54.2615 210.131 54.2615 212.077C54.2615 214.023 55.8388 215.601 57.7845 215.601Z" stroke="#111111" stroke-width="0.960582" stroke-linecap="round" stroke-linejoin="round"/>
<path d="M81.4198 167.139V191.279H71.3865V156.499H77.7423" stroke="#111111" stroke-width="0.960582" stroke-linecap="round" stroke-linejoin="round"/>
<path d="M80.7345 164.772H72.3494" stroke="#111111" stroke-width="0.960582" stroke-linecap="round" stroke-linejoin="round"/>
<path d="M80.7345 168.602H72.3494" stroke="#111111" stroke-width="0.960582" stroke-linecap="round" stroke-linejoin="round"/>
<path d="M80.7345 172.432H72.3494" stroke="#111111" stroke-width="0.960582" stroke-linecap="round" stroke-linejoin="round"/>
<path d="M62.994 191.354V156.576H52.9607V191.354H62.994Z" stroke="#111111" stroke-width="0.960582" stroke-linecap="round" stroke-linejoin="round"/>
<path d="M62.3176 180.783H53.6853" stroke="#111111" stroke-width="0.960582" stroke-linecap="round" stroke-linejoin="round"/>
<path d="M62.3176 161.019H53.6853" stroke="#111111" stroke-width="0.960582" stroke-linecap="round" stroke-linejoin="round"/>
<path d="M62.3176 184.613H53.6853" stroke="#111111" stroke-width="0.960582" stroke-linecap="round" stroke-linejoin="round"/>
<path d="M62.3176 188.443H53.6853" stroke="#111111" stroke-width="0.960582" stroke-linecap="round" stroke-linejoin="round"/>
<path d="M87.8651 121.548C87.3995 120.237 86.7093 119.016 85.8255 117.942C82.627 114.045 82.5884 111.569 80.7857 109.702C78.983 107.834 76.1218 108.687 78.6971 115.021C79.104 116.02 79.474 116.928 79.8071 117.743" stroke="#111111" stroke-width="0.960582" stroke-linecap="round" stroke-linejoin="round"/>
<path d="M74.6052 117.29C77.2268 117.329 85.9364 117.985 90.7212 125.128" stroke="#111111" stroke-width="0.960582" stroke-linecap="round" stroke-linejoin="round"/>
<path d="M74.7497 122.89C80.2865 121.72 94.1158 120.5 96.8301 136.541" stroke="#111111" stroke-width="0.960582" stroke-linecap="round" stroke-linejoin="round"/>
<path d="M83.2897 141.348C82.5351 138.723 81.6441 136.235 80.6732 134.718C77.8249 130.267 71.464 130.596 71.464 130.596C71.464 130.596 55.2912 116.252 52.9503 113.661C50.6094 111.069 51.5056 108.599 55.6904 111.479C57.8511 112.965 62.2522 116.115 65.9915 118.822" stroke="#111111" stroke-width="0.960582" stroke-linecap="round" stroke-linejoin="round"/>
<path d="M71.1891 129.958C71.1891 129.958 62.8838 111.502 61.64 108.025C60.3961 104.548 62.0778 102.714 64.9029 107.327C66.1287 109.331 68.037 112.478 69.7959 115.407" stroke="#111111" stroke-width="0.960582" stroke-linecap="round" stroke-linejoin="round"/>
<path d="M70.4031 128.482C70.4031 128.482 69.7413 112.651 69.7438 109.583C69.7438 104.527 72.7801 103.09 73.563 109.905C74.078 114.457 74.6626 122.846 74.6626 122.846" stroke="#111111" stroke-width="0.960582" stroke-linecap="round" stroke-linejoin="round"/>
<path d="M309.558 121.839C310.025 120.42 310.751 119.101 311.698 117.947C314.899 114.047 314.933 111.569 316.743 109.704C318.554 107.839 321.405 108.689 318.829 115.023C318.395 116.1 318 117.07 317.645 117.934" stroke="#111111" stroke-width="0.960582" stroke-linecap="round" stroke-linejoin="round"/>
<path d="M323.138 117.288C320.849 117.288 311.972 117.762 307.002 124.842" stroke="#111111" stroke-width="0.960582" stroke-linecap="round" stroke-linejoin="round"/>
<path d="M322.716 122.877C317.141 121.712 303.402 120.559 300.695 136.528" stroke="#111111" stroke-width="0.960582" stroke-linecap="round" stroke-linejoin="round"/>
<path d="M314.425 140.688C315.139 138.311 315.971 136.103 316.851 134.713C319.7 130.262 326.061 130.591 326.061 130.591C326.061 130.591 342.228 116.249 344.574 113.658C346.92 111.067 346.019 108.597 341.834 111.476C339.617 113.001 335.043 116.283 331.234 119.029" stroke="#111111" stroke-width="0.960582" stroke-linecap="round" stroke-linejoin="round"/>
<path d="M326.338 129.958C326.338 129.958 334.643 111.502 335.887 108.025C337.131 104.548 335.449 102.714 332.626 107.327C331.375 109.367 329.418 112.6 327.625 115.569" stroke="#111111" stroke-width="0.960582" stroke-linecap="round" stroke-linejoin="round"/>
<path d="M327.621 115.606C327.714 112.909 327.784 110.578 327.781 109.583C327.781 104.527 324.745 103.09 323.962 109.905C323.447 114.457 322.865 122.846 322.865 122.846" stroke="#111111" stroke-width="0.960582" stroke-linecap="round" stroke-linejoin="round"/>
<path d="M327.123 128.481C327.123 128.481 327.427 121.243 327.623 115.603" stroke="#111111" stroke-width="0.960582" stroke-linecap="round" stroke-linejoin="round"/>
<path d="M163.783 101.9C151.004 108.285 146.971 118.297 148.313 128.727H148.189C148.189 128.727 131.383 128.503 121.968 156.478C119.21 149.987 116.411 143.635 115.208 141.647C112.47 137.134 103.125 139.161 100.683 136.026C98.2419 132.892 97.3767 131.905 97.3767 131.905C97.3767 131.905 90.1144 140.575 81.0442 139.604C81.0442 139.604 80.5292 141.165 80.8743 145.106C81.2194 149.047 76.4268 149.498 77.4955 154.652C78.5642 159.806 95.4375 206.028 95.4375 206.028C97.029 210.325 99.1304 223.768 107.85 224.247C107.874 224.309 107.915 224.364 107.969 224.404C108.023 224.443 108.087 224.467 108.154 224.471C121.981 224.432 291.053 224.574 291.053 224.574C291.053 224.574 291.068 224.391 291.086 224.046C298.619 222.269 300.571 210.08 302.073 206.028C302.073 206.028 318.948 159.806 320.014 154.652C321.081 149.498 316.296 149.047 316.638 145.106C316.981 141.165 316.466 139.604 316.466 139.604C307.406 140.562 300.141 131.908 300.141 131.908C300.141 131.908 299.276 132.886 296.837 136.029C294.398 139.171 289.768 135.622 287.033 140.135C284.823 143.782 276.989 162.897 274.061 170.096C265.177 143.666 253.745 130.236 235.095 126.857C233.871 119.444 230.609 111.028 222.35 104.914" stroke="#111111" stroke-width="0.960582" stroke-linecap="round" stroke-linejoin="round"/>
<path d="M316.261 144.529C316.907 140.408 316.573 138.821 316.573 138.821C308.296 140.611 300.647 131.199 300.647 131.199C300.647 131.199 299.779 132.291 297.299 135.763C296.593 136.822 295.507 137.569 294.266 137.85C297.701 149.034 312.661 150.471 318.27 150.605C317.852 148.166 315.772 147.658 316.261 144.529Z" fill="#111111"/>
<path d="M80.7715 144.508C80.1251 140.387 80.9543 138.821 80.9543 138.821C89.2338 140.611 96.8824 131.199 96.8824 131.199C96.8824 131.199 98.1289 131.338 100.604 134.805C101.6 136.204 103.313 137.381 104.346 137.667C100.91 148.848 83.7047 150.366 78.0958 150.502C78.5181 148.071 81.2608 147.64 80.7715 144.508Z" fill="#111111"/>
<path d="M148.924 128.211C143.892 129.242 137.972 131.534 133.359 136.652C137.652 142.865 153.349 164.347 181.002 168.849C180.98 168.658 180.939 168.469 180.878 168.285C165.548 161.977 150.544 144.488 148.924 128.211Z" fill="#111111"/>
<path d="M234.075 125.355C235.033 131.078 234.77 136.217 234.641 139.251C234.216 149.281 230.536 156.208 227.709 161.199L227.168 164.788C238.847 162.034 248.556 143.409 250.119 132.75C245.973 130.491 244.232 127.41 234.075 125.355Z" fill="#111111"/>
<path d="M180.682 161.637C180.682 161.637 191.781 180.791 192.932 192.889" stroke="#111111" stroke-width="1.28078" stroke-linecap="round" stroke-linejoin="round"/>
<path d="M225.659 161.161C225.659 161.161 220.972 180.008 222.241 192.096" stroke="#111111" stroke-width="1.28078" stroke-linecap="round" stroke-linejoin="round"/>
<path d="M121.67 155.463L133.707 183.642" stroke="#111111" stroke-width="0.960582" stroke-linecap="round" stroke-linejoin="round"/>
<path d="M274.474 169.315L266.271 185.344" stroke="#111111" stroke-width="0.960582" stroke-linecap="round" stroke-linejoin="round"/>
<path d="M157.682 204.196C157.682 204.196 156.652 225.168 145.691 224.679" stroke="#111111" stroke-width="0.960582" stroke-linecap="round" stroke-linejoin="round"/>
<path d="M218.991 169.682C224.886 152.233 222.596 130.337 218.615 127.163C217.814 126.527 215.406 126.043 212.068 125.675C210.673 125.523 209.581 126.537 209.581 126.537L214.53 127.31C212.323 148.462 202.885 155.129 202.885 155.129C187.503 137.358 170.303 125.445 170.303 125.445L171.539 124.593L170.663 124.606L162.76 127.328C162.76 127.328 192.852 155.291 201.762 206.314C203.161 214.315 204.106 220.602 204.734 225.535L219.972 224.641C217.688 206.938 215.257 180.758 218.991 169.682Z" fill="#111111"/>
<path d="M177.256 114.119L176.87 120.917L170.303 125.445C170.303 125.445 187.503 137.358 202.885 155.151C202.885 155.151 212.323 148.477 214.53 127.333L209.581 126.56" stroke="#111111" stroke-width="0.960582" stroke-linecap="round" stroke-linejoin="round"/>
<path d="M168.714 89.688C166.054 90.4453 160.581 92.8845 162.791 99.8262C164.704 105.836 170.043 104.898 173.409 103.595" stroke="#111111" stroke-width="0.960582" stroke-linecap="round" stroke-linejoin="round"/>
<path d="M218.892 64.7134C221.445 75.0474 222.186 86.3499 222.153 95.0792L218.892 64.7134Z" fill="white"/>
<path d="M218.892 64.7134C221.445 75.0474 222.186 86.3499 222.153 95.0792" stroke="#111111" stroke-width="0.960582" stroke-linecap="round" stroke-linejoin="round"/>
<path d="M174.199 87.1768C176.074 88.6939 181.709 98.0594 183.336 102.544C183.336 102.544 194.042 97.3485 209.985 95.2235C209.985 95.2235 218.715 94.3761 222.308 95.0303C222.308 95.0303 223.423 111.461 217.333 120.757C211.242 130.053 196.04 129.45 188.456 125.188C180.872 120.925 179.442 118.64 177.197 113.388C174.951 108.136 168.346 88.3462 168.346 88.3462L174.199 87.1768Z" stroke="#111111" stroke-width="0.960582" stroke-linecap="round" stroke-linejoin="round"/>
<path d="M170.058 91.2002C170.058 91.2002 164.431 84.2327 161.709 76.629C159.134 69.4812 161.642 61.3855 167.964 57.3107C173.254 53.9029 177.653 55.5823 177.653 55.5823C177.653 55.5823 170.55 45.985 178.448 35.8596C179.819 34.0958 181.537 32.633 183.497 31.5624C185.458 30.4918 187.617 29.8362 189.841 29.6365C200.768 28.6964 205.187 37.6652 205.187 37.6652C205.187 37.6652 214.399 14.5373 239.753 24.6472C242.31 25.6776 245.431 28.9745 247.007 31.2618C256.567 45.135 232.516 65.6794 219.127 68.6415C204.423 71.8921 195.435 70.3982 190.228 67.2557C194.036 69.0176 192.574 92.1094 170.058 91.2002Z" fill="#111111"/>
<path d="M208.653 84.9229L211.887 98.9711L207.728 99.9164" stroke="#111111" stroke-width="1.28078" stroke-linecap="round" stroke-linejoin="round"/>
<path d="M214.173 90.5615C214.966 90.4728 215.496 89.3901 215.356 88.1432C215.217 86.8962 214.461 85.9573 213.668 86.046C212.875 86.1347 212.345 87.2174 212.485 88.4643C212.624 89.7112 213.38 90.6502 214.173 90.5615Z" fill="#111111"/>
<path d="M200.442 91.4765C201.235 91.3879 201.765 90.3051 201.626 89.0582C201.486 87.8113 200.731 86.8723 199.938 86.961C199.145 87.0497 198.615 88.1324 198.754 89.3793C198.894 90.6263 199.649 91.5652 200.442 91.4765Z" fill="#111111"/>
<path d="M195.098 85.559C195.098 85.559 200.972 85.2087 200.897 81.2832" stroke="#111111" stroke-width="1.28078" stroke-linecap="round" stroke-linejoin="round"/>
<path d="M212.004 75.6659C212.004 75.6659 215.867 74.1436 217.237 77.3324" stroke="#111111" stroke-width="1.28078" stroke-linecap="round" stroke-linejoin="round"/>
<path d="M207.379 106.181C205.317 106.558 203.218 106.698 201.124 106.596C199.836 106.542 198.86 107.337 199.242 108.141C199.909 109.553 201.503 111.232 205.288 110.792C209.017 110.349 209.762 108.625 209.754 107.299C209.749 106.5 208.546 105.952 207.379 106.181Z" stroke="#111111" stroke-width="0.960582" stroke-linecap="round" stroke-linejoin="round"/>
<path d="M241.76 192.727C241.216 192.727 240.684 192.888 240.232 193.191C239.78 193.493 239.427 193.923 239.219 194.425C239.011 194.928 238.957 195.481 239.063 196.015C239.169 196.548 239.431 197.038 239.815 197.423C240.2 197.808 240.69 198.07 241.224 198.176C241.757 198.282 242.31 198.228 242.813 198.02C243.315 197.811 243.745 197.459 244.047 197.006C244.349 196.554 244.511 196.022 244.511 195.478C244.51 194.749 244.22 194.049 243.704 193.534C243.189 193.018 242.489 192.728 241.76 192.727Z" fill="#111111"/>
<path d="M232.905 212.079C232.175 212.079 231.476 212.369 230.96 212.885C230.444 213.401 230.154 214.1 230.154 214.83C230.154 215.56 230.444 216.259 230.96 216.775C231.476 217.291 232.175 217.581 232.905 217.581H232.918C233.647 217.579 234.346 217.288 234.86 216.771C235.375 216.254 235.663 215.553 235.661 214.824C235.66 214.094 235.368 213.395 234.851 212.88C234.334 212.366 233.634 212.077 232.905 212.079Z" fill="#111111"/>
<path d="M303.605 186.821H228.922V205.513L215.217 205.742L215.307 224.435L294.458 224.059L294.368 205.513H303.613L303.605 186.821ZM235.955 217.849C235.561 218.254 235.09 218.576 234.569 218.797C234.049 219.018 233.49 219.134 232.924 219.137H232.904C231.764 219.139 230.671 218.689 229.863 217.885C229.056 217.082 228.601 215.99 228.598 214.85C228.595 213.711 229.045 212.617 229.849 211.809C230.652 211.002 231.744 210.546 232.883 210.544H232.904C233.749 210.547 234.574 210.799 235.276 211.268C235.978 211.738 236.527 212.404 236.852 213.184C237.178 213.963 237.267 214.822 237.107 215.651C236.948 216.481 236.547 217.245 235.955 217.849ZM241.76 199.769C240.911 199.769 240.08 199.517 239.374 199.045C238.667 198.573 238.117 197.902 237.792 197.117C237.466 196.332 237.381 195.468 237.547 194.635C237.713 193.801 238.122 193.036 238.723 192.435C239.323 191.834 240.089 191.425 240.922 191.259C241.755 191.093 242.619 191.178 243.404 191.503C244.189 191.829 244.86 192.379 245.332 193.086C245.804 193.792 246.056 194.623 246.056 195.473C246.056 196.613 245.603 197.706 244.798 198.513C243.992 199.319 242.9 199.773 241.76 199.774V199.769ZM253.738 219.477L253.689 209.431L256.944 209.416L256.99 219.461L253.738 219.477ZM257.768 190.646H261.023V200.691H257.768V190.646ZM258.448 219.453L258.399 209.408L293.165 209.243L293.214 219.288L258.448 219.453ZM297.25 200.681H262.483V190.636H297.25V200.681Z" fill="#111111"/>
<path d="M284.942 218.183L284.906 210.727" stroke="#6D6D6D" stroke-width="0.960582" stroke-linecap="round" stroke-linejoin="round"/>
<path d="M281.112 218.202L281.076 210.745" stroke="#6D6D6D" stroke-width="0.960582" stroke-linecap="round" stroke-linejoin="round"/>
<path d="M277.284 218.22L277.248 210.763" stroke="#6D6D6D" stroke-width="0.960582" stroke-linecap="round" stroke-linejoin="round"/>
<path d="M273.047 199.424V191.967" stroke="#6D6D6D" stroke-width="0.960582" stroke-linecap="round" stroke-linejoin="round"/>
<path d="M292.807 199.424V191.967" stroke="#6D6D6D" stroke-width="0.960582" stroke-linecap="round" stroke-linejoin="round"/>
<path d="M269.219 199.424V191.967" stroke="#6D6D6D" stroke-width="0.960582" stroke-linecap="round" stroke-linejoin="round"/>
<path d="M265.389 199.424V191.967" stroke="#6D6D6D" stroke-width="0.960582" stroke-linecap="round" stroke-linejoin="round"/>
<path d="M381.979 159.559H289.488V224.808H381.979V159.559Z" fill="#6D6D6D"/>
<path d="M341.383 159.708V225.182V159.708Z" fill="#6D6D6D"/>
<path d="M341.383 159.708V225.182" stroke="#111111" stroke-width="0.960582" stroke-linecap="round" stroke-linejoin="round"/>
<path d="M328.932 166.786H370.782" stroke="#111111" stroke-width="0.960582" stroke-linecap="round" stroke-linejoin="round"/>
<path d="M354.25 190.229H381.138" stroke="#111111" stroke-width="0.960582" stroke-linecap="round" stroke-linejoin="round"/>
<path d="M324.746 212.099H377.166" stroke="#111111" stroke-width="0.960582" stroke-linecap="round" stroke-linejoin="round"/>
<path d="M332.07 184.369H304.973" stroke="#111111" stroke-width="0.960582" stroke-linecap="round" stroke-linejoin="round"/>
<path d="M289.592 174.112H306.019" stroke="#111111" stroke-width="0.960582" stroke-linecap="round" stroke-linejoin="round"/>
<path d="M289.488 204.251H321.607" stroke="#111111" stroke-width="0.960582" stroke-linecap="round" stroke-linejoin="round"/>
<path d="M289.349 174.215C282.442 176.935 289.557 181.486 289.557 181.486C289.557 181.486 291.337 176.335 300.438 174.235L289.349 174.215Z" fill="#6D6D6D" stroke="#111111" stroke-width="0.960582" stroke-linecap="round" stroke-linejoin="round"/>
<path d="M382.25 190.12C389.154 192.84 382.039 197.394 382.039 197.394C382.039 197.394 380.262 192.243 371.158 190.141L382.25 190.12Z" fill="#6D6D6D" stroke="#111111" stroke-width="0.960582" stroke-linecap="round" stroke-linejoin="round"/>
<path d="M313.762 204.297C313.762 204.297 297.736 207.321 298.133 216.751C298.133 216.751 285.287 212.038 289.634 204.297H313.762Z" fill="#6D6D6D" stroke="#111111" stroke-width="0.960582" stroke-linecap="round" stroke-linejoin="round"/>
<path d="M-0.0762939 224.729H433.858" stroke="#111111" stroke-width="1.28078" stroke-linecap="round" stroke-linejoin="round"/>
</g>
<defs>
<clipPath id="clip0_103_6395">
<rect width="435" height="226" fill="white"/>
</clipPath>
</defs>
</svg>
