<svg width="28" height="28" viewBox="0 0 28 28" fill="none" xmlns="http://www.w3.org/2000/svg">
<path d="M22.5063 16.9057L21.3425 14.969C21.0981 14.5373 20.877 13.7207 20.877 13.2423V10.2907C20.877 7.54898 19.271 5.18065 16.9551 4.07232C16.35 2.99898 15.2328 2.33398 13.9526 2.33398C12.6841 2.33398 11.5436 3.02232 10.9385 4.10732C8.66914 5.23898 7.09806 7.58398 7.09806 10.2907V13.2423C7.09806 13.7207 6.87694 14.5373 6.63255 14.9573L5.45715 16.9057C4.99165 17.6873 4.88691 18.5507 5.17785 19.344C5.45715 20.1257 6.1205 20.7323 6.98168 21.024C9.23939 21.794 11.6135 22.1673 13.9875 22.1673C16.3616 22.1673 18.7357 21.794 20.9934 21.0357C21.808 20.7673 22.4365 20.149 22.739 19.344C23.0416 18.539 22.9602 17.6523 22.5063 16.9057Z" fill="#CBCCCE"/>
<path d="M17.2589 23.3457C16.7701 24.699 15.4783 25.6673 13.9654 25.6673C13.046 25.6673 12.1383 25.294 11.4982 24.629C11.1258 24.279 10.8465 23.8123 10.6836 23.334C10.8349 23.3573 10.9862 23.369 11.1491 23.3923C11.4168 23.4273 11.6961 23.4623 11.9754 23.4857C12.6387 23.544 13.3137 23.579 13.9887 23.579C14.652 23.579 15.3154 23.544 15.9671 23.4857C16.2115 23.4623 16.4559 23.4507 16.6886 23.4157C16.8748 23.3923 17.061 23.369 17.2589 23.3457Z" fill="#CBCCCE"/>
</svg>
