<svg width="20" height="20" viewBox="0 0 20 20" fill="none" xmlns="http://www.w3.org/2000/svg">
<path d="M14.9994 5.96651C14.9494 5.95817 14.8911 5.95817 14.8411 5.96651C13.6911 5.92484 12.7744 4.98317 12.7744 3.81651C12.7744 2.62484 13.7327 1.6665 14.9244 1.6665C16.1161 1.6665 17.0744 2.63317 17.0744 3.81651C17.0661 4.98317 16.1494 5.92484 14.9994 5.96651Z" stroke="black" stroke-linecap="round" stroke-linejoin="round"/>
<path d="M14.1412 12.0333C15.2829 12.225 16.5412 12.025 17.4245 11.4333C18.5995 10.65 18.5995 9.36664 17.4245 8.58331C16.5329 7.99164 15.2579 7.79163 14.1162 7.99163" stroke="black" stroke-linecap="round" stroke-linejoin="round"/>
<path d="M4.97539 5.96651C5.02539 5.95817 5.08372 5.95817 5.13372 5.96651C6.28372 5.92484 7.20039 4.98317 7.20039 3.81651C7.20039 2.62484 6.24206 1.6665 5.05039 1.6665C3.85873 1.6665 2.90039 2.63317 2.90039 3.81651C2.90872 4.98317 3.82539 5.92484 4.97539 5.96651Z" stroke="black" stroke-linecap="round" stroke-linejoin="round"/>
<path d="M5.83353 12.0328C4.69186 12.2245 3.43353 12.0245 2.5502 11.4328C1.3752 10.6495 1.3752 9.36615 2.5502 8.58282C3.44186 7.99115 4.71686 7.79115 5.85853 7.99115" stroke="black" stroke-linecap="round" stroke-linejoin="round"/>
<path d="M10.0004 12.1916C9.95039 12.1833 9.89206 12.1833 9.84206 12.1916C8.69206 12.1499 7.77539 11.2083 7.77539 10.0416C7.77539 8.84994 8.73372 7.8916 9.92539 7.8916C11.1171 7.8916 12.0754 8.85827 12.0754 10.0416C12.0671 11.2083 11.1504 12.1583 10.0004 12.1916Z" stroke="black" stroke-linecap="round" stroke-linejoin="round"/>
<path d="M7.57461 14.8168C6.39961 15.6001 6.39961 16.8835 7.57461 17.6668C8.90794 18.5585 11.0913 18.5585 12.4246 17.6668C13.5996 16.8835 13.5996 15.6001 12.4246 14.8168C11.0996 13.9335 8.90794 13.9335 7.57461 14.8168Z" stroke="black" stroke-linecap="round" stroke-linejoin="round"/>
</svg>
