<svg width="18" height="18" viewBox="0 0 18 18" fill="none" xmlns="http://www.w3.org/2000/svg">
<path d="M6.87004 8.1525C6.79504 8.145 6.70504 8.145 6.62254 8.1525C4.83754 8.0925 3.42004 6.63 3.42004 4.83C3.42004 2.9925 4.90504 1.5 6.75004 1.5C8.58754 1.5 10.08 2.9925 10.08 4.83C10.0725 6.63 8.65504 8.0925 6.87004 8.1525Z" stroke="black" stroke-width="1.5" stroke-linecap="round" stroke-linejoin="round"/>
<path d="M12.3066 3C13.7616 3 14.9316 4.1775 14.9316 5.625C14.9316 7.0425 13.8066 8.1975 12.4041 8.25C12.3441 8.2425 12.2766 8.2425 12.2091 8.25" stroke="black" stroke-width="1.5" stroke-linecap="round" stroke-linejoin="round"/>
<path d="M3.12102 10.92C1.30602 12.135 1.30602 14.115 3.12102 15.3225C5.18352 16.7025 8.56602 16.7025 10.6285 15.3225C12.4435 14.1075 12.4435 12.1275 10.6285 10.92C8.57352 9.5475 5.19102 9.5475 3.12102 10.92Z" stroke="black" stroke-width="1.5" stroke-linecap="round" stroke-linejoin="round"/>
<path d="M13.7539 15C14.2939 14.8875 14.8039 14.67 15.2239 14.3475C16.3939 13.47 16.3939 12.0225 15.2239 11.145C14.8114 10.83 14.3089 10.62 13.7764 10.5" stroke="black" stroke-width="1.5" stroke-linecap="round" stroke-linejoin="round"/>
</svg>
