<svg width="20" height="20" viewBox="0 0 20 20" fill="none" xmlns="http://www.w3.org/2000/svg">
<path d="M7.2263 11.667H3.33464C2.41797 11.667 1.66797 12.417 1.66797 13.3337V18.3337H7.2263V11.667Z" stroke="#8E8E8E" stroke-miterlimit="10" stroke-linecap="round" stroke-linejoin="round"/>
<path d="M11.1085 8.3335H8.88346C7.9668 8.3335 7.2168 9.0835 7.2168 10.0002V18.3335H12.7751V10.0002C12.7751 9.0835 12.0335 8.3335 11.1085 8.3335Z" stroke="#8E8E8E" stroke-miterlimit="10" stroke-linecap="round" stroke-linejoin="round"/>
<path d="M16.6671 14.167H12.7754V18.3337H18.3337V15.8337C18.3337 14.917 17.5837 14.167 16.6671 14.167Z" stroke="#8E8E8E" stroke-miterlimit="10" stroke-linecap="round" stroke-linejoin="round"/>
<path d="M10.4345 1.72534L10.8762 2.60867C10.9345 2.73367 11.0928 2.85034 11.2262 2.867L12.0262 3.00034C12.5345 3.08367 12.6595 3.45866 12.2928 3.81699L11.6678 4.44199C11.5595 4.55032 11.5012 4.75033 11.5345 4.892L11.7095 5.65868C11.8512 6.26701 11.5262 6.50035 10.9928 6.18368L10.2428 5.74201C10.1095 5.65868 9.8845 5.65868 9.75117 5.74201L9.00117 6.18368C8.46783 6.50035 8.14283 6.26701 8.2845 5.65868L8.4595 4.892C8.49284 4.75033 8.4345 4.54199 8.32617 4.44199L7.7095 3.82533C7.34283 3.45866 7.4595 3.09199 7.97617 3.00866L8.77617 2.87534C8.9095 2.85034 9.06784 2.73368 9.12617 2.61701L9.56783 1.73366C9.8095 1.25032 10.1928 1.25034 10.4345 1.72534Z" stroke="#8E8E8E" stroke-linecap="round" stroke-linejoin="round"/>
</svg>
