<svg width="24" height="21" viewBox="0 0 24 21" fill="none" xmlns="http://www.w3.org/2000/svg">
<path d="M10.0495 2.21387L4.02953 5.65262C2.09953 6.75512 2.09953 9.22262 4.02953 10.3251L10.0495 13.7639C11.1295 14.3851 12.9095 14.3851 13.9895 13.7639L19.9795 10.3251C21.8995 9.22262 21.8995 6.76387 19.9795 5.66137L13.9895 2.22262C12.9095 1.59262 11.1295 1.59262 10.0495 2.21387Z" stroke="black" stroke-width="2" stroke-linecap="round" stroke-linejoin="round"/>
<path d="M5.62914 11.4453L5.61914 15.5491C5.61914 16.6603 6.59914 17.8503 7.79914 18.2003L10.9891 19.1278C11.5391 19.2853 12.4491 19.2853 13.0091 19.1278L16.1991 18.2003C17.3991 17.8503 18.3791 16.6603 18.3791 15.5491V11.4891" stroke="black" stroke-width="2" stroke-linecap="round" stroke-linejoin="round"/>
<path d="M21.4004 13.125V7.875" stroke="black" stroke-width="2" stroke-linecap="round" stroke-linejoin="round"/>
</svg>
