<svg width="9" height="15" viewBox="0 0 9 15" fill="none" xmlns="http://www.w3.org/2000/svg">
<path d="M8.04602 4.67176C8.04602 5.47816 7.89243 6.46376 7.13723 6.75816C6.38203 7.05256 4.5772 6.86058 4.0268 7.37258C3.83188 7.60352 3.72496 7.89596 3.72496 8.19816C3.72496 8.50037 3.83188 8.79281 4.0268 9.02375C4.4252 9.46933 4.76503 9.964 5.03801 10.4957C5.23001 11.0717 4.92282 11.8654 4.33402 11.8526C3.93722 11.8526 3.61723 11.4941 3.22043 11.4557C2.58043 11.3917 2.1836 12.2621 2.4268 12.8637C2.74887 13.4429 3.25922 13.8945 3.8732 14.1437C2.79384 13.8839 1.82271 13.2932 1.09562 12.4542C0.881644 12.2446 0.75766 11.9599 0.75 11.6605C0.81013 11.4446 0.947938 11.2585 1.13695 11.138C1.32597 11.0175 1.55288 10.9711 1.77402 11.0078C2.20597 11.0868 2.63328 11.1893 3.05402 11.315C3.26921 11.376 3.49828 11.3667 3.70781 11.2884C3.91734 11.2101 4.09638 11.067 4.21883 10.8798C4.48763 10.3294 3.9372 9.75335 3.5148 9.30535C2.9132 8.65255 2.5164 7.57736 3.1052 6.91176C3.694 6.24616 4.46201 6.13096 5.56281 6.15656C5.78529 6.17404 6.00899 6.14589 6.2202 6.07383C6.4314 6.00177 6.62566 5.88732 6.79105 5.7375C6.95645 5.58768 7.08953 5.40565 7.18207 5.20258C7.27461 4.99951 7.32467 4.77968 7.32922 4.55656C7.40602 3.17416 7.15002 3.18695 7.32922 0.985352C8.45562 1.34375 7.99482 3.69896 8.04602 4.67176Z" fill="#263238"/>
</svg>
