<svg width="22" height="39" viewBox="0 0 22 39" fill="none" xmlns="http://www.w3.org/2000/svg">
<path d="M21.8577 35.9274L21.3073 36.1194C17.5879 37.4599 13.664 38.1442 9.71046 38.1418C9.37766 26.2122 7.15046 15.1018 2.12006 6.64098C0.763258 4.33698 0.379259 2.67298 0.660859 1.52098C1.50566 1.25218 2.38886 1.02177 3.28486 0.829766C5.39334 0.410849 7.53542 0.183789 9.68486 0.151367C10.0561 0.151367 10.5041 0.151367 10.9649 0.151367H11.5793H11.7201L12.2065 0.343359C12.582 0.470001 12.9426 0.637418 13.2817 0.842578C13.7567 1.16418 14.1871 1.54722 14.5617 1.98176C15.5901 3.21721 16.4232 4.6029 17.0321 6.09059C17.2625 6.61965 17.4801 7.17002 17.6849 7.74176C17.7114 7.78615 17.7329 7.8334 17.7489 7.88258C19.9377 14.1802 21.4993 23.8826 21.8577 35.9274Z" fill="#37474F"/>
</svg>
