<svg width="27" height="37" viewBox="0 0 27 37" fill="none" xmlns="http://www.w3.org/2000/svg">
<path d="M3.91471 23.7708C5.19471 25.294 6.56431 26.83 7.89551 28.366C9.60685 30.5764 11.6643 32.4956 13.9883 34.0492L17.2011 35.4572L17.9051 35.7516C18.907 36.2146 20.0115 36.4106 21.1115 36.3206C22.2115 36.2306 23.2695 35.8577 24.1828 35.2381C25.0961 34.6185 25.8336 33.7733 26.3238 32.7845C26.814 31.7956 27.0402 30.6969 26.9803 29.5948C26.8074 22.6778 26.1056 15.7841 24.8811 8.97403C24.4871 6.5441 23.7502 4.18241 22.6923 1.95964C21.2075 -0.600361 19.1851 1.95963 17.0219 4.76283C15.5627 6.60603 15.0379 15.2844 17.0219 23.0924C13.4635 20.5324 8.89391 16.1164 4.87471 14.3116C4.04271 13.9404 0.561107 16.3724 0.855507 18.4332C1.35379 20.4644 2.41399 22.3142 3.91471 23.7708Z" fill="#37474F"/>
</svg>
