<svg width="29" height="5" viewBox="0 0 29 5" fill="none" xmlns="http://www.w3.org/2000/svg">
<path d="M0.624497 1.73227C0.548114 1.7136 0.482297 1.66534 0.441489 1.59813C0.400681 1.53091 0.388247 1.45025 0.406919 1.37387C0.42559 1.29749 0.473846 1.23163 0.541059 1.19082C0.608272 1.15001 0.688935 1.13758 0.765317 1.15625L17.1749 3.43465C20.8332 2.08027 24.6406 1.16924 28.5157 0.721057C28.5919 0.713797 28.6679 0.736439 28.7276 0.784221C28.7873 0.832004 28.8261 0.901153 28.8357 0.977034C28.8411 1.01574 28.8387 1.05515 28.8287 1.09293C28.8187 1.13071 28.8013 1.16613 28.7775 1.19711C28.7536 1.22809 28.7239 1.25401 28.6899 1.27336C28.656 1.29272 28.6185 1.30512 28.5797 1.30985C24.7346 1.75547 20.957 2.66228 17.3285 4.01067C17.2781 4.02314 17.2254 4.02314 17.1749 4.01067L0.68852 1.77067L0.624497 1.73227Z" fill="#263238"/>
</svg>
