<svg width="67" height="46" viewBox="0 0 67 46" fill="none" xmlns="http://www.w3.org/2000/svg">
<path d="M7.57406 45.1066C6.86338 45.1032 6.18293 44.8185 5.6816 44.3148C5.18027 43.811 4.89886 43.1293 4.89887 42.4186V36.377H3.83645C2.93447 36.3736 2.07041 36.0138 1.43262 35.376C0.794823 34.7382 0.435013 33.8741 0.431641 32.9722V3.63457C0.438374 2.73822 0.798327 1.88068 1.43336 1.24805C2.06839 0.615411 2.92726 0.258716 3.82363 0.255371H63.1773C64.0747 0.255365 64.9355 0.610978 65.5713 1.24434C66.207 1.87769 66.5659 2.73718 66.5693 3.63457V33.0746C66.5693 33.9776 66.2105 34.8436 65.572 35.4821C64.9335 36.1207 64.0675 36.4794 63.1645 36.4794H19.7725L9.18684 44.5946C8.72008 44.9378 8.15331 45.1177 7.57406 45.1066ZM3.82363 1.44576C3.25671 1.44576 2.71303 1.67098 2.31215 2.07186C1.91127 2.47273 1.68605 3.01645 1.68605 3.58338V33.0234C1.68604 33.5949 1.9122 34.1432 2.31512 34.5485C2.71803 34.9538 3.26495 35.1832 3.83645 35.1866H6.14043V42.4698C6.14042 42.8512 6.29108 43.2171 6.55957 43.488C6.82806 43.7589 7.19268 43.9128 7.57406 43.9162C7.88473 43.9163 8.18652 43.8127 8.43164 43.6218L19.35 35.1866H63.1645C63.7382 35.1866 64.2884 34.9587 64.6941 34.553C65.0997 34.1473 65.3277 33.5971 65.3277 33.0234V3.63457C65.3243 3.06647 65.0962 2.5228 64.6933 2.12229C64.2904 1.72177 63.7454 1.49696 63.1773 1.49697H3.82363V1.44576Z" fill="#D9D9D9"/>
</svg>
