<svg width="5" height="2" viewBox="0 0 5 2" fill="none" xmlns="http://www.w3.org/2000/svg">
<path d="M0.594854 1.02811C0.538854 0.992838 0.49784 0.938143 0.479659 0.874507C0.460624 0.776189 0.480746 0.67432 0.535743 0.59063C0.59074 0.506939 0.676264 0.44805 0.774063 0.426509C1.35824 0.297334 1.96451 0.306446 2.54454 0.45312C3.12457 0.599794 3.6623 0.879968 4.11485 1.2713C4.18442 1.34091 4.22351 1.4353 4.22351 1.53371C4.22351 1.63212 4.18442 1.7265 4.11485 1.79611C4.04307 1.86647 3.94657 1.90587 3.84606 1.90587C3.74554 1.90587 3.64904 1.86647 3.57726 1.79611C3.21564 1.49101 2.78793 1.27433 2.32803 1.16324C1.86812 1.05215 1.38867 1.04971 0.927657 1.15611C0.865756 1.16854 0.801595 1.1631 0.742667 1.14043C0.683738 1.11777 0.632472 1.07882 0.594854 1.02811Z" fill="#263238"/>
</svg>
