<svg width="51" height="34" viewBox="0 0 51 34" fill="none" xmlns="http://www.w3.org/2000/svg">
<path d="M44.754 0.0811237C45.2836 0.0811237 45.7915 0.291505 46.166 0.665977C46.5404 1.04045 46.7508 1.54835 46.7508 2.07793V6.57072H47.5316C48.2106 6.57072 48.8617 6.84045 49.3418 7.32054C49.8219 7.80063 50.0916 8.45177 50.0916 9.13072V31.0187C50.0916 31.6977 49.8219 32.3488 49.3418 32.8289C48.8617 33.309 48.2106 33.5787 47.5316 33.5787H3.35883C2.67987 33.5787 2.02873 33.309 1.54863 32.8289C1.06854 32.3488 0.798828 31.6977 0.798828 31.0187V9.10513C0.798828 8.42617 1.06854 7.77503 1.54863 7.29493C2.02873 6.81484 2.67987 6.54513 3.35883 6.54513H35.6532L43.538 0.452325C43.8929 0.201088 44.3193 0.0709192 44.754 0.0811237ZM47.5444 32.5547C47.9666 32.5514 48.3702 32.3813 48.6675 32.0816C48.9648 31.7819 49.1316 31.3769 49.1316 30.9547V9.10513C49.1316 8.68078 48.9631 8.27382 48.663 7.97376C48.3629 7.6737 47.956 7.50513 47.5316 7.50513H45.8164V2.07793C45.8181 1.93734 45.7919 1.79781 45.7393 1.66743C45.6866 1.53706 45.6086 1.41842 45.5098 1.31841C45.411 1.2184 45.2933 1.13899 45.1636 1.08481C45.0338 1.03062 44.8946 1.00272 44.754 1.00273C44.5225 1.0027 44.2975 1.0792 44.114 1.22032L35.986 7.50513H3.37162C3.16043 7.50344 2.95101 7.54357 2.75541 7.62322C2.55981 7.70287 2.3819 7.82047 2.23197 7.96921C2.08204 8.11795 1.96304 8.2949 1.88184 8.48986C1.80063 8.68482 1.75882 8.89393 1.75883 9.10513V30.9803C1.75883 31.4047 1.9274 31.8116 2.22746 32.1117C2.52752 32.4118 2.93448 32.5803 3.35883 32.5803H47.5444V32.5547Z" fill="#D00000"/>
</svg>
