<svg width="49" height="34" viewBox="0 0 49 34" fill="none" xmlns="http://www.w3.org/2000/svg">
<path d="M0.297511 30.9799V9.10472C0.297511 8.55477 0.515979 8.02733 0.904855 7.63846C1.29373 7.24958 1.82115 7.03112 2.3711 7.03112H34.8319L42.8319 0.848722C43.0623 0.673164 43.338 0.566945 43.6267 0.54253C43.9153 0.518115 44.2049 0.576509 44.4616 0.71087C44.7182 0.845231 44.9312 1.04999 45.0756 1.30111C45.2199 1.55224 45.2897 1.83934 45.2767 2.12872V7.08232H46.5567C47.1056 7.08567 47.6311 7.30522 48.0193 7.69337C48.4074 8.08152 48.6269 8.607 48.6303 9.15592V31.0439C48.6236 31.5894 48.4021 32.1103 48.014 32.4937C47.6258 32.877 47.1023 33.092 46.5567 33.0919H2.35831C2.08332 33.092 1.81109 33.037 1.55767 32.9303C1.30424 32.8235 1.07475 32.6672 0.882706 32.4703C0.690659 32.2735 0.539946 32.0403 0.439445 31.7843C0.338943 31.5283 0.290679 31.2548 0.297511 30.9799Z" fill="#D00000"/>
</svg>
