<svg width="24" height="40" viewBox="0 0 24 40" fill="none" xmlns="http://www.w3.org/2000/svg">
<path d="M22.2821 24.3261C19.7428 26.4354 17.4344 28.8081 15.3957 31.4045L15.1653 31.6733C14.3205 32.6589 13.3861 33.7981 12.3365 35.0653C11.4248 36.1418 10.5703 37.2655 9.7765 38.4317C9.5077 38.8157 9.26451 39.1869 9.03411 39.5453C5.39264 35.45 2.48688 30.7557 0.445312 25.6701C2.76211 20.7677 5.37331 14.5469 8.84211 9.6189C10.1221 7.7501 12.5541 4.4989 12.5669 4.4989C13.7299 3.04594 15.1868 1.85514 16.8421 1.00451C17.4705 0.657544 18.136 0.382714 18.8261 0.185288C20.6821 -0.109112 23.1525 11.2701 23.4597 18.4381C23.4597 18.9885 23.4597 19.5261 23.4597 20.0253V20.2685C23.5202 21.413 23.3324 22.557 22.9093 23.6221C22.8603 23.7144 22.8001 23.8004 22.7301 23.8781C22.6355 23.9775 22.5278 24.0636 22.4101 24.1341L22.2821 24.3261Z" fill="#263238"/>
</svg>
