<svg width="67" height="46" viewBox="0 0 67 46" fill="none" xmlns="http://www.w3.org/2000/svg">
<path d="M58.1469 45.0443L47.5613 36.8651H4.16934C3.26855 36.8617 2.4058 36.5015 1.77004 35.8634C1.13428 35.2252 0.777337 34.3611 0.777344 33.4603V4.02031C0.777344 3.12409 1.13335 2.26458 1.76707 1.63086C2.40079 0.997136 3.2603 0.641113 4.15652 0.641113H63.5101C64.4075 0.641107 65.2683 0.99672 65.9041 1.63008C66.5399 2.26344 66.8987 3.12292 66.9021 4.02031V33.4603C66.8987 34.3623 66.539 35.2264 65.9012 35.8642C65.2634 36.5019 64.3993 36.8617 63.4973 36.8651H62.4477V42.9067C62.4502 43.4068 62.3124 43.8976 62.05 44.3233C61.7876 44.7491 61.4111 45.0927 60.9632 45.3153C60.5154 45.5379 60.0141 45.6305 59.5163 45.5826C59.0185 45.5347 58.5441 45.3482 58.1469 45.0443ZM63.4973 1.93392H4.15652C3.87581 1.93392 3.59786 1.98921 3.33852 2.09663C3.07917 2.20406 2.84349 2.36152 2.645 2.56001C2.44651 2.7585 2.28907 2.99415 2.18164 3.2535C2.07422 3.51284 2.01895 3.7908 2.01895 4.07151V33.5115C2.01895 34.0818 2.24547 34.6288 2.64875 35.0321C3.05203 35.4354 3.59901 35.6619 4.16934 35.6619H47.9837L58.9021 44.1099C59.1481 44.2991 59.4494 44.4025 59.7597 44.4043C60.1423 44.401 60.5083 44.2475 60.7788 43.977C61.0493 43.7065 61.2028 43.3405 61.2061 42.9579V35.6619H63.4973C64.0688 35.6619 64.6171 35.4358 65.0224 35.0329C65.4277 34.6299 65.6572 34.083 65.6605 33.5115V4.07151C65.6538 3.50445 65.4247 2.96271 65.0225 2.56291C64.6203 2.16311 64.0772 1.93723 63.5101 1.93392H63.4973Z" fill="#E6E6E6"/>
</svg>
