<svg width="66" height="45" viewBox="0 0 66 45" fill="none" xmlns="http://www.w3.org/2000/svg">
<path d="M0.390625 3.07147V32.5115C0.390625 33.2481 0.683279 33.9546 1.20418 34.4755C1.72508 34.9964 2.43158 35.2891 3.16824 35.2891H46.7779L57.5298 43.6091C57.8362 43.8366 58.1997 43.9746 58.5799 44.0077C58.9601 44.0408 59.342 43.9677 59.6831 43.7965C60.0242 43.6253 60.311 43.3627 60.5117 43.0381C60.7123 42.7135 60.8189 42.3395 60.8195 41.9579V35.2891H62.4963C63.2329 35.2891 63.9394 34.9964 64.4603 34.4755C64.9812 33.9546 65.2738 33.2481 65.2738 32.5115V3.07147C65.2738 2.70731 65.2019 2.34674 65.0621 2.01046C64.9224 1.67418 64.7176 1.36883 64.4595 1.11192C64.2014 0.855021 63.8951 0.651627 63.5582 0.513438C63.2213 0.375249 62.8604 0.304984 62.4963 0.30667H3.15543C2.42216 0.30667 1.71893 0.597955 1.20043 1.11646C0.681929 1.63496 0.390625 2.33819 0.390625 3.07147Z" fill="#D00000"/>
</svg>
