<svg width="4" height="3" viewBox="0 0 4 3" fill="none" xmlns="http://www.w3.org/2000/svg">
<path d="M0.338788 1.55165C0.289764 1.50885 0.257929 1.44973 0.249189 1.38525C0.230154 1.28693 0.250286 1.18506 0.305282 1.10137C0.360279 1.01768 0.445793 0.958792 0.543593 0.937251C1.12777 0.808077 1.73404 0.817188 2.31407 0.963862C2.8941 1.11054 3.43184 1.39071 3.88439 1.78205C3.95396 1.85165 3.99304 1.94604 3.99304 2.04445C3.99304 2.14286 3.95396 2.23724 3.88439 2.30685C3.81113 2.37432 3.71518 2.41176 3.61558 2.41176C3.51599 2.41176 3.42005 2.37432 3.34679 2.30685C2.98517 2.00175 2.55746 1.78507 2.09756 1.67398C1.63765 1.56289 1.1582 1.56045 0.697187 1.66685C0.632705 1.68435 0.564536 1.68277 0.500927 1.66233C0.437318 1.64188 0.380999 1.60344 0.338788 1.55165Z" fill="#263238"/>
</svg>
