<svg width="3" height="4" viewBox="0 0 3 4" fill="none" xmlns="http://www.w3.org/2000/svg">
<path d="M1.01599 3.45858C0.939584 3.48306 0.856611 3.47667 0.784854 3.44079C0.713096 3.40491 0.658223 3.34239 0.631963 3.26658C0.607054 3.20501 0.607054 3.13616 0.631963 3.07458C0.758042 2.59534 0.998682 2.15389 1.33313 1.78822C1.66759 1.42255 2.08584 1.14361 2.55196 0.975381C2.59062 0.963542 2.63125 0.959449 2.67149 0.96334C2.71174 0.967231 2.75082 0.97903 2.78649 0.998057C2.82217 1.01708 2.85373 1.04297 2.87938 1.07422C2.90504 1.10547 2.92428 1.14148 2.93599 1.18018C2.95595 1.25988 2.94446 1.34422 2.90396 1.4157C2.86345 1.48719 2.797 1.54035 2.71837 1.56418C2.35335 1.6993 2.02588 1.91963 1.76317 2.20683C1.50047 2.49402 1.31012 2.83979 1.20798 3.21538C1.19919 3.26886 1.17695 3.31923 1.14337 3.36177C1.10979 3.40431 1.06597 3.43762 1.01599 3.45858Z" fill="#263238"/>
</svg>
