<svg width="52" height="31" viewBox="0 0 52 31" fill="none" xmlns="http://www.w3.org/2000/svg">
<path d="M2.04676 30.5948C1.76334 30.5967 1.48729 30.5046 1.26189 30.3328C1.03648 30.161 0.87446 29.9192 0.801251 29.6454C0.728041 29.3716 0.74778 29.0813 0.857364 28.8199C0.966947 28.5585 1.16018 28.3409 1.40676 28.2012L49.7908 0.271559C49.9364 0.178947 50.0994 0.116765 50.2697 0.088747C50.44 0.0607289 50.6143 0.0674611 50.782 0.108532C50.9497 0.149603 51.1073 0.224159 51.2454 0.327731C51.3835 0.431303 51.4992 0.561748 51.5856 0.711208C51.672 0.860667 51.7273 1.02607 51.7481 1.19744C51.7689 1.36881 51.7549 1.54262 51.7068 1.70841C51.6587 1.87421 51.5775 2.02856 51.4682 2.16218C51.3589 2.29581 51.2237 2.40593 51.0708 2.48595L2.68676 30.4155C2.49292 30.5306 2.27215 30.5924 2.04676 30.5948Z" fill="#37474F"/>
</svg>
