<svg width="3" height="3" viewBox="0 0 3 3" fill="none" xmlns="http://www.w3.org/2000/svg">
<path d="M2.5314 2.18187C2.58615 2.19447 2.64304 2.19447 2.69779 2.18187C2.73158 2.16003 2.76053 2.13151 2.78286 2.09805C2.80519 2.06458 2.82043 2.02689 2.82763 1.9873C2.83482 1.94772 2.83383 1.90707 2.82471 1.86789C2.81559 1.82871 2.79854 1.79183 2.7746 1.75949C2.51521 1.37118 2.16529 1.05178 1.75499 0.828789C1.34469 0.605802 0.886327 0.48592 0.419395 0.479492C0.342324 0.482642 0.26926 0.514676 0.214717 0.569219C0.160174 0.623762 0.12815 0.696835 0.125 0.773906C0.124963 0.813668 0.132976 0.852991 0.148565 0.88957C0.164154 0.926149 0.186986 0.959207 0.215693 0.986719C0.244401 1.01423 0.278387 1.03563 0.315596 1.04965C0.352805 1.06367 0.392473 1.07001 0.432197 1.06828C0.800653 1.08969 1.15875 1.19834 1.47698 1.38527C1.79522 1.57221 2.06449 1.83208 2.2626 2.14348C2.30146 2.17005 2.34591 2.18733 2.39252 2.19398C2.43913 2.20064 2.48665 2.1965 2.5314 2.18187Z" fill="#263238"/>
</svg>
