<svg width="8" height="13" viewBox="0 0 8 13" fill="none" xmlns="http://www.w3.org/2000/svg">
<path d="M0.175776 11.7772C0.139594 11.7596 0.107373 11.7349 0.0811281 11.7044C0.0548828 11.674 0.0351524 11.6384 0.0231593 11.6001C0.0111662 11.5617 0.00717061 11.5213 0.0114015 11.4813C0.0156324 11.4413 0.0280095 11.4026 0.0477687 11.3676C1.95194 7.67095 4.24317 4.18689 6.88296 0.974008C6.94596 0.901496 7.03116 0.851857 7.12531 0.832836C7.21946 0.813816 7.31727 0.826481 7.40347 0.868852C7.48967 0.911223 7.55946 0.980891 7.60191 1.06706C7.64436 1.15322 7.65709 1.25101 7.63816 1.34518C6.87436 5.07978 6.34848 8.85912 6.06375 12.6604C6.06375 12.7385 6.03274 12.8134 5.97753 12.8686C5.92232 12.9238 5.84745 12.9548 5.76937 12.9548C5.69129 12.9548 5.61642 12.9238 5.56121 12.8686C5.506 12.8134 5.47496 12.7385 5.47496 12.6604C5.75232 9.05603 6.23524 5.47049 6.92136 1.9212C4.4665 4.9588 2.32244 8.2349 0.521362 11.7004C0.478717 11.7473 0.42261 11.7798 0.360737 11.7936C0.298864 11.8073 0.234268 11.8016 0.175776 11.7772Z" fill="#263238"/>
</svg>
