<svg width="20" height="19" viewBox="0 0 20 19" fill="none" xmlns="http://www.w3.org/2000/svg">
<path d="M19.4818 9.64128C19.8413 10.4 20.0125 11.2343 19.981 12.0733C19.8275 12.6956 19.5501 13.2805 19.1652 13.7929C18.7803 14.3054 18.2958 14.7349 17.741 15.0557C15.3995 16.8389 12.5875 17.8979 9.65141 18.1021C8.19186 18.1833 6.73394 17.9157 5.3984 17.3213C4.06286 16.727 2.88811 15.8231 1.97141 14.6845C1.08281 13.5184 0.601562 12.0929 0.601562 10.6269C0.601562 9.16083 1.08281 7.73532 1.97141 6.56927C3.24497 5.31847 4.79179 4.38074 6.4898 3.83007C8.6146 2.94687 13.1074 -0.00991774 15.4498 1.07808C17.7922 2.16608 18.6498 7.43969 19.4818 9.64128Z" fill="#263238"/>
</svg>
