<svg width="60" height="44" viewBox="0 0 60 44" fill="none" xmlns="http://www.w3.org/2000/svg">
<path d="M0.0508335 30.9463C0.0511745 34.2544 1.31342 37.4378 3.58014 39.8472C5.84686 42.2567 8.94733 43.7107 12.2492 43.9127C12.5052 43.9127 47.1164 43.9127 47.4364 43.9127C50.7401 43.7293 53.8496 42.2935 56.1318 39.8977C58.4139 37.502 59.697 34.3264 59.7199 31.0177C59.7427 27.709 58.5035 24.5161 56.2547 22.089C54.0058 19.662 50.9164 18.1834 47.6156 17.9543C47.2872 13.2392 45.1758 8.826 41.7105 5.61157C38.2452 2.39715 33.6861 0.622644 28.9596 0.648721C24.2331 0.674798 19.6938 2.4995 16.2642 5.75196C12.8346 9.00443 10.7721 13.4407 10.4956 18.1591C7.54348 18.7519 4.88849 20.3506 2.98369 22.6826C1.07888 25.0146 0.042302 27.9353 0.0508335 30.9463Z" fill="#EBEBEB"/>
</svg>
