<svg width="17" height="21" viewBox="0 0 17 21" fill="none" xmlns="http://www.w3.org/2000/svg">
<path d="M6.85959 3.71771C7.03879 3.99931 7.21799 4.30651 7.38439 4.60091C8.2951 6.24694 9.08232 7.95831 9.73959 9.72091C11.25 13.7913 12.6964 18.2969 16.1396 20.8953C15.2825 20.8531 14.4281 20.7677 13.5796 20.6393C9.49215 20.0985 5.53194 18.842 1.88041 16.9273C1.57257 15.9284 1.32887 14.9109 1.1508 13.8809C0.8436 12.1145 -0.193178 5.6505 0.613222 2.2073C0.666832 1.95885 0.73956 1.71493 0.8308 1.47771C0.912562 1.18163 1.05644 0.906342 1.25287 0.67019C1.4493 0.434038 1.69378 0.242423 1.97002 0.1081C2.48466 -0.033324 3.02921 -0.0227531 3.53799 0.13851C4.04676 0.299774 4.498 0.604845 4.83721 1.01691C5.62402 1.82702 6.30368 2.73469 6.85959 3.71771Z" fill="#FFB573"/>
</svg>
