<svg width="3" height="2" viewBox="0 0 3 2" fill="none" xmlns="http://www.w3.org/2000/svg">
<path opacity="0.3" d="M2.19359 0.991683C2.2277 1.16636 2.1918 1.34745 2.09363 1.4959C1.99546 1.64436 1.8429 1.74828 1.66881 1.78528C1.49269 1.81565 1.31164 1.77663 1.16367 1.67639C1.0157 1.57615 0.91231 1.4225 0.875194 1.24768C0.858576 1.16105 0.859356 1.07199 0.87746 0.985667C0.895565 0.89934 0.930642 0.817478 0.980663 0.744828C1.03068 0.672177 1.09464 0.610198 1.16883 0.562484C1.24301 0.51477 1.32594 0.482261 1.41279 0.466878C1.49865 0.448323 1.58738 0.447289 1.67365 0.463832C1.75992 0.480375 1.84196 0.514167 1.91486 0.563167C1.98777 0.612168 2.05001 0.675375 2.09791 0.749007C2.14581 0.82264 2.17835 0.905176 2.19359 0.991683Z" fill="black"/>
</svg>
