<svg width="18" height="20" viewBox="0 0 18 20" fill="none" xmlns="http://www.w3.org/2000/svg">
<path d="M1.40988 8.22337C0.95924 8.99752 0.753913 9.89013 0.821053 10.7834C0.882998 14.0371 1.89766 17.2012 3.73945 19.8842C3.5646 19.2346 3.5861 18.5478 3.80117 17.9105C4.01624 17.2731 4.41527 16.7138 4.94793 16.303C5.48059 15.8922 6.12301 15.6484 6.7941 15.6023C7.46519 15.5562 8.13488 15.71 8.71867 16.0442C9.70427 16.6074 10.7795 17.6954 11.7523 17.0938C12.099 16.8124 12.3532 16.4334 12.4819 16.0058L16.3219 6.73857C16.8624 5.64288 17.18 4.45075 17.2563 3.23136C17.285 2.61778 17.133 2.00926 16.8189 1.48134C16.5049 0.953422 16.0428 0.529362 15.4899 0.26177C14.9329 0.143212 14.3572 0.143212 13.8003 0.26177C10.0977 0.793188 6.68561 2.56693 4.12348 5.29216L1.40988 8.22337Z" fill="#263238"/>
</svg>
