<svg width="3" height="2" viewBox="0 0 3 2" fill="none" xmlns="http://www.w3.org/2000/svg">
<path d="M2.56324 0.741803C2.53043 0.675651 2.48369 0.61738 2.42625 0.570983C2.3688 0.524586 2.302 0.491161 2.23043 0.473005C2.08346 0.451935 1.9338 0.483684 1.80804 0.562604C1.67545 0.654909 1.5731 0.784367 1.51388 0.934684C1.45467 1.085 1.44122 1.24947 1.47523 1.40741L0.976032 1.48421C0.935644 1.23922 0.967381 0.987765 1.06738 0.760495C1.16738 0.533225 1.33133 0.339946 1.53924 0.204206L1.69283 0.114606C1.92045 0.00367174 2.1827 -0.0128332 2.42244 0.0686785C2.66218 0.15019 2.86 0.323112 2.97283 0.549802L2.56324 0.741803Z" fill="#263238"/>
</svg>
