<svg width="59" height="58" viewBox="0 0 59 58" fill="none" xmlns="http://www.w3.org/2000/svg">
<path d="M57.4863 24.9691C57.3967 25.3787 57.3199 25.7755 57.2303 26.2491C55.7199 33.6347 53.9663 42.5947 51.8799 53.2955C44.391 56.7279 36.143 58.1696 27.9337 57.4812C19.7245 56.7928 11.8318 53.9976 5.0191 49.3659C4.6991 47.4331 4.3663 45.3851 4.0207 43.2859C4.0207 43.2859 4.0207 43.2859 4.0207 43.1835C4.01946 43.1622 4.01946 43.1408 4.0207 43.1195C3.4959 39.9195 2.9711 36.6043 2.4719 33.4043C1.4351 26.9019 0.551899 20.8347 0.257499 17.1099C0.257499 16.4187 0.167897 15.8299 0.155097 15.2923C0.135801 14.9769 0.135801 14.6605 0.155097 14.3451C0.295897 11.1835 1.4351 5.6923 3.9951 3.0427C4.49642 2.52035 5.10284 2.11026 5.77431 1.8395C9.10231 0.559498 12.8143 0.802686 16.4879 1.50669C19.0479 2.00589 21.6975 2.78669 24.1679 3.23469C24.2931 3.25285 24.417 3.27849 24.5391 3.31149C29.0703 4.23309 33.6143 4.70669 38.1199 5.65389C39.925 6.01359 41.7073 6.47946 43.4575 7.04909C44.1743 7.27949 44.8783 7.5355 45.5823 7.8043C47.1714 8.42138 48.7118 9.15731 50.1903 10.0059C53.0068 11.4125 55.3841 13.564 57.0639 16.2267C58.5999 19.1323 58.0623 22.0379 57.4863 24.9691Z" fill="#263238"/>
</svg>
