<svg width="4" height="2" viewBox="0 0 4 2" fill="none" xmlns="http://www.w3.org/2000/svg">
<path d="M3.76074 0.994905C3.7916 0.925129 3.79417 0.846099 3.76791 0.774466C3.74164 0.702832 3.68859 0.644187 3.61994 0.610901C3.0831 0.424073 2.51212 0.355938 1.9464 0.411184C1.38068 0.466431 0.833684 0.643743 0.34314 0.930901C0.278757 0.968353 0.231823 1.02979 0.212632 1.10176C0.19344 1.17373 0.203552 1.25037 0.240737 1.3149C0.278505 1.38236 0.341299 1.43226 0.415542 1.45381C0.489785 1.47537 0.569515 1.46684 0.637534 1.4301C1.04309 1.18569 1.49664 1.03172 1.96718 0.978704C2.43772 0.925686 2.91416 0.974868 3.36394 1.1229C3.41294 1.15647 3.47095 1.17445 3.53035 1.17445C3.58974 1.17445 3.64774 1.15647 3.69673 1.1229L3.76074 0.994905Z" fill="#263238"/>
</svg>
