<svg width="55" height="53" viewBox="0 0 55 53" fill="none" xmlns="http://www.w3.org/2000/svg">
<path d="M54.1171 18.1655L48.5491 30.5304L47.7427 31.6055L39.0387 43.2279L38.2579 44.2775C36.8602 46.1368 35.7312 48.1835 34.9043 50.3575C34.7507 50.7671 34.6099 51.1938 34.4819 51.6375L34.4051 51.8167C34.3027 52.1623 34.2131 52.5207 34.1235 52.8663C34.1747 52.5506 34.2131 52.205 34.2387 51.8295C21.9767 52.4338 9.95026 48.3105 0.638672 40.3095C1.06107 37.1735 1.64989 32.5271 2.13629 28.7895C2.13629 28.7127 2.13629 28.6359 2.13629 28.5591C2.48189 25.8583 2.77627 23.6823 2.91707 22.9655C4.05219 17.9144 5.9057 13.0521 8.42105 8.52715C9.85416 5.67492 11.5694 2.97341 13.5411 0.463125L13.7331 0.309531L13.8483 0.194336H13.9635L14.6291 0.25832H14.9107H15.2179C15.8707 0.32232 16.4979 0.399122 17.3427 0.539922L18.7891 0.80875H19.1219L22.1043 1.44875C22.5523 1.52555 23.0515 1.64074 23.5635 1.75594L23.6915 3.24074L24.0371 6.96555C24.0587 7.18916 24.0929 7.41137 24.1395 7.63113C24.1395 8.98793 24.2163 10.4343 24.2291 11.7783C24.2291 12.1495 24.2291 12.5079 24.2291 12.8663C24.2291 13.8007 24.2291 14.6327 24.2291 15.3495C24.2291 15.5287 24.2291 15.7079 24.2291 15.8743C24.2291 16.0407 24.2291 16.1559 24.2291 16.2711V16.8088V17.3336L24.3827 17.2567H24.4851L24.5875 17.1799L25.0355 16.9367L25.3427 16.7704L25.6755 16.5911L26.0595 16.3736H26.1747L26.6355 16.1175L27.1219 15.8615L28.4019 15.1447L28.9523 14.8504L29.5155 14.5431L32.5363 12.9175L33.1507 12.5847L33.7395 12.2647L34.4051 11.9191L36.9651 10.5751C37.2979 10.3831 37.6307 10.204 37.9635 10.0504L38.5139 9.78152L39.0387 9.49992L40.4467 8.77035L41.8291 8.09195C45.8728 10.0229 49.5807 12.5898 52.8115 15.6951L52.9651 15.8359C53.0419 15.9255 53.1315 16.0023 53.2083 16.1047L53.4131 16.3095C53.4851 16.3746 53.5495 16.4476 53.6051 16.5271C53.6867 16.6502 53.7512 16.7836 53.7971 16.9239C53.7971 16.9239 53.7971 17.0135 53.7971 17.0647C53.7916 17.1329 53.7916 17.2014 53.7971 17.2695C53.8098 17.3329 53.8098 17.3982 53.7971 17.4615V17.5383C53.8037 17.6278 53.8037 17.7177 53.7971 17.8071C53.9206 17.9104 54.0284 18.0311 54.1171 18.1655Z" fill="#37474F"/>
</svg>
