<svg width="23" height="36" viewBox="0 0 23 36" fill="none" xmlns="http://www.w3.org/2000/svg">
<path d="M18.5394 23.4652C16.7986 26.4071 15.2798 29.4749 13.9954 32.6428C9.77614 34.2966 5.33979 35.3313 0.824219 35.7148C1.65622 33.4364 2.76983 30.4796 4.03703 27.2668C6.12343 22.07 8.60663 16.1564 10.9106 11.254C13.2146 6.35161 15.2627 2.61397 16.6579 1.25717C17.0931 0.834769 17.4514 0.655577 17.733 0.745177C17.8934 0.785839 18.0481 0.846041 18.1938 0.924396C18.2058 0.918703 18.2189 0.915724 18.2322 0.915724C18.2455 0.915724 18.2586 0.918703 18.2706 0.924396C18.6104 1.08651 18.9321 1.28385 19.2306 1.51318C20.0146 2.11313 20.6974 2.83482 21.253 3.6508C22.1985 5.58116 22.6681 7.70978 22.6226 9.85877C22.183 14.6213 20.7947 19.2476 18.5394 23.4652Z" fill="#37474F"/>
</svg>
