<svg width="4" height="2" viewBox="0 0 4 2" fill="none" xmlns="http://www.w3.org/2000/svg">
<path d="M2.87134 1.83482C2.81621 1.85369 2.75687 1.85649 2.70021 1.84289C2.64355 1.82929 2.5919 1.79986 2.55134 1.75803C2.27943 1.47856 1.94495 1.26779 1.57548 1.14315C1.20602 1.01852 0.812173 0.983572 0.426536 1.04122C0.387024 1.0507 0.346026 1.05225 0.305911 1.04578C0.265796 1.03931 0.227388 1.02494 0.192864 1.00352C0.15834 0.982087 0.128381 0.954024 0.104778 0.920947C0.0811758 0.887871 0.0644006 0.850437 0.0553642 0.81082C0.0458813 0.771309 0.0443213 0.73031 0.0507939 0.690195C0.0572665 0.650081 0.0716308 0.611653 0.0930595 0.577129C0.114488 0.542605 0.142562 0.512675 0.175638 0.489072C0.208714 0.46547 0.246139 0.448666 0.285755 0.439629C0.771694 0.364881 1.26839 0.405904 1.73548 0.559375C2.20257 0.712847 2.62686 0.974425 2.97376 1.32282C3.0324 1.38264 3.06521 1.46307 3.06521 1.54683C3.06521 1.63059 3.0324 1.711 2.97376 1.77082L2.87134 1.83482Z" fill="#263238"/>
</svg>
