<svg width="15" height="37" viewBox="0 0 15 37" fill="none" xmlns="http://www.w3.org/2000/svg">
<path d="M14.8396 25.4702C14.8396 29.1694 14.8396 32.0493 14.8396 34.6605L14.6604 34.7502C14.3532 34.891 14.0588 35.0446 13.7388 35.1726H13.6364C13.0732 35.4286 12.4972 35.659 11.9212 35.8766L11.3708 36.0686C10.9996 25.1246 9.71959 16.075 7.69719 9.85418C7.33105 8.7225 6.90375 7.61153 6.41719 6.52617C5.84177 5.10205 5.07527 3.76282 4.13879 2.54535C3.7063 1.98521 3.18789 1.49703 2.60279 1.09895C2.32674 0.915903 2.03035 0.765592 1.71959 0.650977L0.900391 0.34375H1.62999H2.07799C3.40732 0.407499 4.72971 0.57442 6.03319 0.842969C7.77399 1.23977 9.24599 1.87975 9.75799 2.90375C10.0268 3.45415 10.2828 4.01737 10.526 4.56777C11.2076 6.16842 11.8015 7.80496 12.3052 9.47016C13.8716 14.6639 14.7243 20.0466 14.8396 25.4702Z" fill="#263238"/>
</svg>
