<svg width="46" height="31" viewBox="0 0 46 31" fill="none" xmlns="http://www.w3.org/2000/svg">
<path d="M44.138 30.2749C43.8927 30.2743 43.6528 30.2032 43.4468 30.0701L1.27075 2.89574C1.11979 2.80963 0.987941 2.69367 0.883252 2.55494C0.778563 2.41621 0.703247 2.25762 0.661846 2.08882C0.620445 1.92003 0.613856 1.74458 0.642471 1.57316C0.671087 1.40174 0.73431 1.23793 0.828291 1.09174C0.922273 0.945542 1.04504 0.820031 1.18911 0.722829C1.33318 0.625627 1.49551 0.558776 1.66626 0.526364C1.83701 0.493953 2.01257 0.496648 2.18224 0.534294C2.35191 0.57194 2.51216 0.643744 2.65317 0.745329L44.8292 27.9197C45.061 28.0695 45.2382 28.2902 45.3344 28.5489C45.4306 28.8076 45.4406 29.0906 45.3629 29.3554C45.2851 29.6203 45.1239 29.8529 44.9031 30.0186C44.6824 30.1843 44.414 30.2742 44.138 30.2749Z" fill="#37474F"/>
</svg>
