<svg width="48" height="46" viewBox="0 0 48 46" fill="none" xmlns="http://www.w3.org/2000/svg">
<path d="M47.6764 26.2855C44.6396 32.5005 39.8334 37.679 33.862 41.1703C27.8905 44.6616 21.0203 46.3099 14.1148 45.9079C13.2577 45.8657 12.4033 45.7803 11.5548 45.652C8.54765 40.4872 5.97866 35.0794 3.87477 29.4855C3.70837 29.0375 3.56756 28.5895 3.42676 28.2055C3.17076 27.4375 2.95318 26.7336 2.76118 26.068C1.91638 23.2136 1.48118 21.14 0.969185 19.2584C0.908418 19.0796 0.865533 18.8952 0.841177 18.708C0.583588 17.4679 0.687955 16.18 1.14184 14.9976C1.59573 13.8152 2.37999 12.7883 3.40118 12.0392C3.83638 11.7192 4.29716 11.3991 4.78356 11.0663C5.26996 10.7336 6.06357 10.1959 6.83157 9.78635L7.57399 9.32555C11.2738 7.29849 15.081 5.47395 18.9788 3.85996L19.9132 3.47596L20.9756 3.04076C21.846 2.69516 22.7164 2.38795 23.5356 2.10635C23.7322 2.03078 23.9331 1.96668 24.1372 1.91436L24.598 1.74795C24.6748 1.74795 26.0572 0.903161 26.1212 0.877561C27.1311 0.590573 28.2019 0.597066 29.2084 0.896272C30.2148 1.19548 31.1152 1.77502 31.8044 2.56715C32.1039 2.92031 32.3616 3.30689 32.5724 3.71916C32.7268 4.02646 32.851 4.34795 32.9436 4.67916L33.8524 5.83115L34.3388 6.45836L34.6844 6.90635L37.142 10.1704L37.4108 10.5416L37.6028 10.8104L37.8844 11.1816C41.5023 15.9777 44.7745 21.0251 47.6764 26.2855Z" fill="#37474F"/>
</svg>
