<svg width="43" height="37" viewBox="0 0 43 37" fill="none" xmlns="http://www.w3.org/2000/svg">
<path opacity="0.4" d="M38.1971 14.2106C35.0666 20.9758 30.4508 26.948 24.6931 31.6826C21.8899 33.9994 18.6387 36.0602 15.0163 36.2906C12.901 36.5293 10.761 36.1772 8.83364 35.2734C6.90632 34.3696 5.26713 32.9495 4.09794 31.1706C1.30754 27.3306 0.257919 24.3994 0.117119 16.809C0.0301873 14.5938 0.137262 12.3752 0.437119 10.1786C1.49952 7.33701 3.36832 7.31143 5.44192 7.43943C7.08032 7.54183 7.23392 7.17063 8.79552 7.64423C11.9571 8.61703 12.9555 11.9194 13.3779 15.4522C14.3763 23.8234 20.9683 15.4522 22.8755 12.8922C26.9715 7.55464 32.3731 1.18024 40.0275 0.0922379C41.1539 -0.074162 40.7699 0.0922223 41.7043 0.796222C42.1577 1.19697 42.5101 1.69922 42.7325 2.262C42.955 2.82478 43.0412 3.43216 42.9843 4.03462C42.9975 7.20559 41.917 10.2841 39.9251 12.7514L38.1971 14.2106Z" fill="white"/>
</svg>
