<svg width="14" height="22" viewBox="0 0 14 22" fill="none" xmlns="http://www.w3.org/2000/svg">
<path d="M7.0022 2.04129C12.3398 8.76129 14.5926 11.2957 12.3142 13.7533C10.407 15.8013 9.08859 18.3101 7.19419 20.3709C6.82403 20.7687 6.37365 21.0834 5.87282 21.2943C5.372 21.5051 4.83215 21.6072 4.28892 21.5939C3.74569 21.5806 3.21148 21.4522 2.72157 21.2171C2.23167 20.982 1.79724 20.6456 1.447 20.2301C1.15637 19.8784 0.94993 19.4649 0.84345 19.0212C0.736969 18.5776 0.73325 18.1154 0.83259 17.6701C1.21659 13.9069 0.0774029 12.4093 0.205403 8.71009L4.0454 1.63169C4.19744 1.34304 4.43472 1.10826 4.72497 0.959301C5.01522 0.810338 5.34435 0.754427 5.66751 0.799194C5.99067 0.84396 6.29216 0.987222 6.53099 1.20948C6.76981 1.43173 6.93435 1.72218 7.0022 2.04129Z" fill="#FFB573"/>
</svg>
