<svg width="5" height="4" viewBox="0 0 5 4" fill="none" xmlns="http://www.w3.org/2000/svg">
<path d="M4.37685 3.0845C4.29438 3.09577 4.21043 3.08081 4.13693 3.04176C4.06342 3.00271 4.00406 2.94153 3.96724 2.86688C3.61617 2.34907 3.16224 1.90911 2.63372 1.57438C2.10521 1.23965 1.51343 1.01735 0.895246 0.921292C0.844634 0.915001 0.795775 0.898701 0.751535 0.873324C0.707295 0.847946 0.668532 0.813994 0.637551 0.77348C0.60657 0.732966 0.583966 0.686691 0.571066 0.637347C0.558167 0.588003 0.555244 0.53659 0.562434 0.486097C0.56871 0.437157 0.584695 0.389965 0.609426 0.347269C0.634157 0.304573 0.667128 0.26722 0.706457 0.237425C0.745786 0.20763 0.790653 0.185963 0.838449 0.173714C0.886246 0.161465 0.936005 0.15889 0.984816 0.166097C1.72933 0.274566 2.44172 0.542225 3.07345 0.950863C3.70518 1.3595 4.24144 1.89952 4.64564 2.5341C4.68965 2.62578 4.69548 2.73117 4.66189 2.82715C4.62829 2.92314 4.558 3.00188 4.46642 3.0461L4.37685 3.0845Z" fill="#263238"/>
</svg>
