<svg width="45" height="49" viewBox="0 0 45 49" fill="none" xmlns="http://www.w3.org/2000/svg">
<path d="M37.4408 39.7276C40.9224 49.302 29.94 44.8476 29.94 44.8476C28.2888 48.8156 26.3688 49.2892 24.82 48.6876C23.5876 48.0953 22.5391 47.1795 21.7864 46.038C18.3176 50.7356 16.1928 48.8412 15.5272 46.2684C15.3357 45.512 15.2751 44.7284 15.348 43.9516C15.348 43.9516 15.348 43.8492 15.348 43.798C15.3899 43.2518 15.5754 42.7263 15.8856 42.2748C15.9998 42.1521 16.1026 42.0193 16.1928 41.878C16.5069 41.4709 16.7934 41.0433 17.0504 40.598C17.5661 39.7006 17.9661 38.7414 18.2408 37.7436C18.3048 37.4876 18.3816 37.2444 18.4328 36.9884C18.484 36.7324 18.5864 36.2972 18.6504 35.9516C18.932 34.4668 19.0856 32.8796 19.2776 31.1388C19.4696 29.6155 19.6616 27.9772 20.0072 26.1724C21.3768 18.9276 11.1752 20.6172 8.15441 18.966C7.20721 18.4668 6.38803 17.9804 5.65843 17.5324L5.00562 17.0971C4.97102 17.0834 4.94027 17.0614 4.91601 17.0332C4.25431 16.6013 3.62149 16.1267 3.0216 15.6124C2.6888 15.318 2.40722 15.0492 2.16402 14.7932C-2.03438 10.2492 5.92722 9.00758 5.92722 9.00758C5.38962 0.341978 12.596 2.68438 12.596 2.68438C12.8579 1.94916 13.1834 1.23819 13.5688 0.55957C23.2293 1.53655 32.368 5.41425 39.7832 11.6828C39.6604 12.9045 39.394 14.1074 38.9896 15.2668C50.5864 20.8988 41.1016 29.1036 41.1016 29.1036C47.8344 35.67 37.4408 39.7276 37.4408 39.7276Z" fill="#263238"/>
</svg>
