<svg width="11" height="18" viewBox="0 0 11 18" fill="none" xmlns="http://www.w3.org/2000/svg">
<path d="M10.2284 17.5788L10.1261 17.5148L0.666836 9.01559C0.635054 8.98612 0.609595 8.9505 0.591992 8.9109C0.57439 8.87129 0.565029 8.82853 0.564453 8.7852L0.692461 1.1948C0.692461 1.11673 0.723461 1.04185 0.778672 0.986641C0.833883 0.93143 0.908756 0.900391 0.986836 0.900391C1.0266 0.900353 1.06596 0.908396 1.10254 0.923985C1.13912 0.939573 1.17218 0.962386 1.19969 0.991094C1.2272 1.0198 1.2486 1.05381 1.26262 1.09102C1.27664 1.12822 1.28298 1.16789 1.28125 1.20762L1.16605 8.65719L10.5229 17.0796C10.5511 17.107 10.5736 17.1399 10.5889 17.1762C10.6042 17.2125 10.6121 17.2514 10.6121 17.2908C10.6121 17.3302 10.6042 17.3692 10.5889 17.4055C10.5736 17.4417 10.5511 17.4746 10.5229 17.502C10.4847 17.5393 10.4374 17.5659 10.3858 17.5794C10.3342 17.5929 10.28 17.5927 10.2284 17.5788Z" fill="#263238"/>
</svg>
