<svg width="98" height="117" viewBox="0 0 98 117" fill="none" xmlns="http://www.w3.org/2000/svg">
<path opacity="0.7" d="M22.2196 0.074707L12.6452 4.68271C12.6452 4.68271 9.76521 10.2251 10.3412 10.0331C10.9172 9.84111 8.24201 21.5531 8.80521 21.7195C9.36841 21.8859 3.26281 26.8395 3.26281 26.8395L0.382812 33.9307V42.1611L14.2196 60.9259L24.3188 66.6731L15.5124 114.929L19.1476 116.209L65.1124 82.5067L68.1716 74.2635L81.778 68.9131L89.0484 49.9435L97.2916 40.3691C97.2916 40.3691 98.0468 30.7947 97.2916 30.9867C96.5364 31.1787 92.8756 32.5227 92.8756 32.5227L85.9892 27.4027C85.9892 27.4027 71.4356 24.7147 70.6292 25.4827C69.8228 26.2507 67.57 16.5227 67.57 16.5227L54.1556 12.7979L40.178 3.6075L30.0788 5.65551L22.2196 0.074707Z" fill="#0AB56B"/>
</svg>
