<svg width="33" height="45" viewBox="0 0 33 45" fill="none" xmlns="http://www.w3.org/2000/svg">
<path d="M2.01845 25.3948C3.22165 29.9516 6.75445 35.9164 9.54485 43.5196C9.57306 43.5971 9.61182 43.6703 9.66005 43.7372L10.62 43.9164L11.4649 44.0828L29.3848 40.7292C29.628 40.5884 29.8585 40.422 30.0889 40.2684C30.8953 39.718 31.7017 39.1548 32.4953 38.5788C30.8441 29.8748 30.0504 21.5932 31.0744 3.58359C31.1004 3.1716 31.0449 2.75852 30.9108 2.36807C30.7768 1.97761 30.5671 1.61745 30.2935 1.30825C30.02 0.999056 29.6881 0.746911 29.3169 0.56627C28.9457 0.385629 28.5425 0.280051 28.1305 0.255596C27.9047 0.236416 27.6778 0.236416 27.4521 0.255596C25.5961 0.549996 23.2536 0.997993 20.9112 1.61239C17.2042 2.50391 13.5644 3.65448 10.0184 5.0556C6.99765 6.3356 3.74645 7.9228 1.86485 8.8956C1.33209 9.18244 0.892415 9.61557 0.597606 10.144C0.302796 10.6723 0.165134 11.274 0.200848 11.878C0.241193 16.4417 0.85179 20.9825 2.01845 25.3948Z" fill="#263238"/>
</svg>
