<svg width="16" height="28" viewBox="0 0 16 28" fill="none" xmlns="http://www.w3.org/2000/svg">
<path opacity="0.1" d="M13.7437 6.6056L5.03977 18.228L4.25898 19.2776C2.86132 21.1368 1.73234 23.1836 0.905352 25.3576C0.751752 25.7672 0.610969 26.1939 0.482969 26.6376C0.471565 26.6968 0.471565 26.7576 0.482969 26.8168C0.367769 27.1624 0.265381 27.508 0.175781 27.8664C0.226981 27.5506 0.265377 27.205 0.290977 26.8296C0.354977 25.9464 0.354956 25.012 0.470156 24.4232C1.34163 19.9032 2.95028 15.5573 5.23176 11.5592C6.08936 10.036 9.07177 4.7368 11.9646 2.2536C13.3214 1.076 14.6526 0.525591 15.7278 1.28079C15.3235 3.14118 14.6554 4.93425 13.7437 6.6056Z" fill="black"/>
</svg>
