<svg width="19" height="25" viewBox="0 0 19 25" fill="none" xmlns="http://www.w3.org/2000/svg">
<path d="M18.5807 15.4013C18.6135 15.9555 18.6135 16.5111 18.5807 17.0653C18.0047 23.3629 10.9007 27.2413 5.57586 23.1965C4.43267 22.3541 3.4996 21.259 2.84947 19.9965C1.64627 17.7053 1.18546 14.8125 0.366265 10.8829C0.0654118 9.62059 0.0654118 8.30524 0.366265 7.04291C0.636682 5.9694 1.1164 4.95982 1.7779 4.07213C2.43939 3.18445 3.26964 2.43612 4.22102 1.87004C5.1724 1.30397 6.22618 0.931307 7.32192 0.773442C8.41766 0.615578 9.53378 0.675611 10.6063 0.950103C16.2895 2.3197 18.6063 9.79491 18.5807 15.4013Z" fill="#FFB573"/>
</svg>
