<svg width="16" height="27" viewBox="0 0 16 27" fill="none" xmlns="http://www.w3.org/2000/svg">
<path d="M14.5923 16.5911C13.0216 18.4302 11.6686 20.4446 10.5603 22.5943C10.1123 23.3879 9.58752 24.2839 9.02432 25.3079L8.80671 25.7431C8.64031 26.0247 8.49951 26.3063 8.37151 26.5751C5.22522 24.2343 2.50226 21.3728 0.320312 18.1143C1.09541 14.6998 2.16611 11.3592 3.52031 8.13033C3.84031 7.42633 4.30111 6.46631 4.69791 5.67271C5.09471 4.87911 5.44032 4.16231 5.45311 4.14951C6.33679 2.54599 7.67207 1.23741 9.29311 0.386306C10.5731 -0.0616944 13.6707 7.46473 14.7971 12.3671C14.8739 12.7383 14.9507 13.1095 15.0147 13.4679V13.6343C15.1737 14.4156 15.1737 15.221 15.0147 16.0023C14.991 16.0753 14.9565 16.1444 14.9123 16.2071C14.8619 16.2869 14.8017 16.36 14.7331 16.4247C14.6775 16.4722 14.63 16.5284 14.5923 16.5911Z" fill="#263238"/>
</svg>
