<svg width="17" height="13" viewBox="0 0 17 13" fill="none" xmlns="http://www.w3.org/2000/svg">
<path d="M16.7928 9.2733C16.9159 8.82556 16.9465 8.35743 16.8827 7.89748C16.8188 7.43753 16.6619 6.99541 16.4216 6.59811C15.9954 5.82636 15.3371 5.20834 14.54 4.8317C13.8629 4.52283 13.1549 4.28685 12.428 4.12772C11.8078 3.9841 11.2001 3.79148 10.6104 3.5517L10.2008 3.3469C10.0856 3.2701 9.9704 3.21892 9.8552 3.12932L9.36879 2.86049L8.88238 2.5533C8.43438 2.2717 7.97358 1.99011 7.60238 1.75971C7.34134 1.59671 7.06734 1.45542 6.78316 1.33729H6.62957C5.97729 1.02485 5.26034 0.871286 4.53731 0.889083C3.81427 0.906881 3.1057 1.09556 2.46957 1.43971C1.98054 1.75488 1.58671 2.19742 1.33039 2.71971C0.139992 4.85731 0.856792 6.00928 1.33039 6.49568C1.69536 6.76256 2.12448 6.92804 2.57414 6.97526C3.0238 7.02247 3.47795 6.94977 3.89039 6.76451C5.27774 6.43244 6.62524 5.9518 7.90957 5.33092C8.00538 5.29693 8.09591 5.2495 8.1784 5.1901C8.53523 5.00745 8.87755 4.79779 9.20238 4.56291C9.21761 4.95794 9.26039 5.35141 9.33039 5.74049C9.3244 5.77866 9.3244 5.81752 9.33039 5.85568C9.47437 6.58572 9.68429 7.30121 9.95758 7.9933C10.5208 9.5165 11.4296 11.3853 12.8376 11.9229L13.068 11.9997C14.7192 12.2941 16.3576 10.8349 16.7928 9.2733ZM3.68559 6.0733C2.73839 6.3293 2.09838 6.29092 1.71438 5.93252C1.01038 5.27972 1.02318 4.19171 1.71438 2.88611C1.93469 2.46254 2.27245 2.11144 2.68719 1.8749C3.27352 1.59794 3.91393 1.45428 4.56238 1.45428C5.21084 1.45428 5.85124 1.59794 6.43758 1.8749C7.14303 2.21387 7.82318 2.60314 8.47277 3.03971L9.31758 3.5517C9.3034 3.54572 9.28816 3.54264 9.27277 3.54264C9.25739 3.54264 9.24215 3.54572 9.22797 3.5517C8.67482 3.9868 8.07868 4.36423 7.44879 4.67811C6.24402 5.26743 4.98335 5.73481 3.68559 6.0733ZM13.2088 11.2829C11.852 10.9245 10.9432 8.85089 10.508 7.66049C10.2983 7.08257 10.1231 6.49277 9.98317 5.89412C9.81952 5.2197 9.74211 4.52721 9.75277 3.8333L10.3928 4.1533C11.0114 4.40792 11.6491 4.61337 12.3 4.76772C12.99 4.9175 13.6632 5.13617 14.3096 5.42049C15.0695 5.77916 15.6774 6.39612 16.0248 7.16131C16.3387 7.78229 16.4204 8.49501 16.2552 9.17092C15.8712 10.3997 14.4632 11.6285 13.2088 11.2829Z" fill="#263238"/>
</svg>
