<svg width="21" height="14" viewBox="0 0 21 14" fill="none" xmlns="http://www.w3.org/2000/svg">
<path d="M15.8397 2.73846C15.1812 1.96286 14.3125 1.39428 13.3381 1.10131C12.3638 0.808329 11.3255 0.803452 10.3485 1.08725C10.5312 1.694 10.8755 2.23963 11.3445 2.66577C11.8134 3.09191 12.3895 3.3825 13.0109 3.50645C11.3188 2.89152 9.53728 2.55855 7.73732 2.52085C7.49396 2.48488 7.2456 2.50417 7.01072 2.57729C6.77584 2.65042 6.56042 2.7755 6.38049 2.94325C6.22808 3.18738 6.17372 3.48015 6.22834 3.76271C6.28295 4.04528 6.4425 4.2967 6.6749 4.46645C7.14958 4.78944 7.71376 4.95511 8.28771 4.94005C7.19319 4.34468 5.93395 4.12375 4.70213 4.31095C3.4703 4.49815 2.33352 5.08321 1.46529 5.97685C1.49093 6.23327 1.57814 6.47969 1.71947 6.69517C1.8608 6.91066 2.05204 7.08881 2.27701 7.21449C2.50198 7.34017 2.75399 7.40965 3.01158 7.41703C3.26917 7.42441 3.52471 7.36945 3.7565 7.25685C2.92302 7.22917 2.09342 7.38199 1.32451 7.70485C0.94444 7.87309 0.62456 8.153 0.407361 8.50737C0.190163 8.86175 0.0859113 9.27383 0.108494 9.68886C0.141001 9.88756 0.21992 10.0758 0.338846 10.2383C0.457772 10.4007 0.613363 10.5328 0.792947 10.6239C0.972532 10.7149 1.17106 10.7623 1.3724 10.7622C1.57374 10.7621 1.77221 10.7145 1.9517 10.6233C1.7417 10.6474 1.53966 10.7177 1.36002 10.8291C1.18037 10.9405 1.02758 11.0903 0.912596 11.2676C0.797611 11.445 0.723268 11.6456 0.694901 11.8551C0.666533 12.0645 0.684828 12.2777 0.748494 12.4793C0.923589 12.8736 1.24087 13.1874 1.63705 13.3582C2.03322 13.529 2.47921 13.5442 2.88611 13.4008C3.28325 13.2313 3.61885 12.944 3.84771 12.5779C4.07658 12.2117 4.18771 11.7841 4.16611 11.3528C4.04823 11.5152 3.96445 11.6997 3.91986 11.8953C3.87527 12.0909 3.87081 12.2935 3.9067 12.4909C3.94259 12.6883 4.0181 12.8764 4.12869 13.0438C4.23928 13.2112 4.38261 13.3544 4.5501 13.4649C4.90728 13.6595 5.32271 13.7188 5.7201 13.6318C6.11748 13.5448 6.47014 13.3174 6.7133 12.9912C6.93703 12.6516 7.04871 12.2504 7.03263 11.8441C7.01656 11.4377 6.87354 11.0465 6.62369 10.7257C6.64433 10.929 6.71339 11.1245 6.82506 11.2957C6.93673 11.4669 7.08777 11.6089 7.26556 11.7097C7.44335 11.8106 7.64272 11.8674 7.84697 11.8754C8.05122 11.8834 8.2544 11.8424 8.43955 11.7558C8.62469 11.6692 8.78641 11.5395 8.91115 11.3775C9.03589 11.2156 9.12007 11.0262 9.15658 10.825C9.19309 10.6239 9.18089 10.417 9.12103 10.2215C9.06117 10.0261 8.9554 9.84782 8.81252 9.70165C9.31353 10.4964 10.0362 11.1272 10.8914 11.5161C11.7466 11.9051 12.697 12.0352 13.6253 11.8904C13.5111 11.4283 13.2841 11.0017 12.9647 10.6488C12.6453 10.2959 12.2434 10.0276 11.7949 9.86806C12.3314 10.3123 12.9825 10.596 13.6731 10.6866C14.3638 10.7772 15.066 10.6709 15.6989 10.38L14.8797 9.10005C15.4106 9.79568 16.1632 10.2891 17.0129 10.4986C17.8625 10.7081 18.7582 10.6211 19.5517 10.252C19.4256 9.90397 19.2123 9.59408 18.9321 9.35204C18.652 9.11 18.3144 8.9439 17.9517 8.86965C18.1368 9.03953 18.3584 9.16459 18.5995 9.23515C18.8406 9.3057 19.0947 9.31988 19.3421 9.27658C19.5896 9.23328 19.8237 9.13365 20.0265 8.98541C20.2293 8.83717 20.3953 8.64428 20.5117 8.42165C20.6994 7.92979 20.7364 7.39316 20.6178 6.88021C20.4993 6.36727 20.2306 5.90126 19.8461 5.54165C19.0694 4.82956 18.1544 4.28493 17.1581 3.94165C17.5672 3.69402 18.0458 3.58631 18.5215 3.6348C18.9972 3.6833 19.4442 3.88536 19.7949 4.21045C19.879 3.98087 19.9119 3.73568 19.8913 3.49205C19.8706 3.24842 19.797 3.01225 19.6754 2.8001C19.5539 2.58794 19.3874 2.40493 19.1877 2.26388C18.988 2.12284 18.7599 2.02718 18.5193 1.98361C18.2787 1.94004 18.0315 1.94961 17.795 2.01165C17.5585 2.07369 17.3384 2.1867 17.1502 2.34276C16.962 2.49882 16.8102 2.69416 16.7054 2.91508C16.6006 3.13599 16.5454 3.37715 16.5437 3.62165C16.3694 3.30609 16.121 3.03756 15.8201 2.83913C15.5191 2.6407 15.1744 2.5183 14.8157 2.48245L15.8397 2.73846Z" fill="#263238"/>
</svg>
