<svg width="26" height="28" viewBox="0 0 26 28" fill="none" xmlns="http://www.w3.org/2000/svg">
<path d="M25.9685 14.4747L22.5765 21.6683C20.4634 22.1878 18.3785 22.8158 16.3301 23.5499C16.1623 23.6141 15.9997 23.6912 15.8437 23.7803L14.4485 25.5979L14.0389 26.1099L13.1685 27.2491C13.1685 27.2491 11.3893 26.4555 9.66128 25.6491L8.01011 24.8939C7.79625 24.8064 7.58689 24.7081 7.38288 24.5995H7.3189L6.83249 24.3691L6.61491 24.2795L6.17972 24.0747H6.06448L5.51409 23.8059C4.72042 23.4475 3.947 23.0458 3.19729 22.6027C2.31285 22.1578 1.49084 21.5983 0.75249 20.9387C0.615773 20.7883 0.499579 20.6204 0.406904 20.4395C0.251292 20.1744 0.14301 19.8842 0.0869041 19.5819C0.00699281 18.5109 0.07592 17.434 0.291709 16.3819C0.598909 14.6283 1.07249 12.9643 1.07249 12.9643L5.19409 7.54992C5.63776 7.95879 6.18798 8.2339 6.78128 8.34352C6.78128 8.34352 6.94768 7.98512 6.98608 8.34352C7.60517 8.42556 8.23487 8.33245 8.8037 8.07473C9.17987 7.86925 9.5039 7.58024 9.75089 7.22992L9.86608 7.07633C10.0709 6.79473 10.2885 6.44912 10.5061 6.10352L10.8901 5.42512L11.0309 5.14352C11.1264 4.97812 11.2119 4.80716 11.2869 4.63152C11.4661 4.28592 11.6069 3.96592 11.7477 3.67152C11.8885 3.37712 11.8885 3.38994 11.9397 3.24914C12.1957 2.66034 12.3621 2.23793 12.3621 2.23793L21.9621 0.727539H22.2181H22.2949C22.2949 0.727539 22.2949 0.881122 22.2949 1.14992C22.2949 1.40592 22.2053 1.76433 22.1413 2.19953C22.1413 2.39153 22.1413 2.59635 22.0517 2.81395C22.0383 2.92019 22.0383 3.0277 22.0517 3.13395V3.31312C22.0517 3.85072 21.9237 4.43953 21.8469 5.04113C21.8457 5.06245 21.8457 5.0838 21.8469 5.10512C21.7701 5.80912 21.7189 6.56432 21.6933 7.30672C21.4619 9.08099 21.6775 10.885 22.3205 12.5547C22.6752 13.0447 23.1777 13.4081 23.7541 13.5915L23.9717 13.6811C24.6553 13.8979 25.3226 14.1631 25.9685 14.4747Z" fill="#DD8C6A"/>
</svg>
