<svg width="3" height="3" viewBox="0 0 3 3" fill="none" xmlns="http://www.w3.org/2000/svg">
<path opacity="0.4" d="M2.5485 1.40418C2.57393 1.62452 2.51672 1.84647 2.38795 2.02708C2.25918 2.20768 2.06801 2.3341 1.85141 2.38188C1.6348 2.42966 1.40817 2.3954 1.21537 2.28573C1.02257 2.17606 0.877323 1.99878 0.807695 1.78818C0.781357 1.67382 0.77806 1.55535 0.798027 1.43971C0.817993 1.32406 0.860823 1.21355 0.923984 1.11464C0.987144 1.01573 1.06938 0.930397 1.1659 0.863631C1.26241 0.796864 1.37126 0.749999 1.48609 0.725779C1.71653 0.679531 1.95593 0.724354 2.15402 0.850848C2.35212 0.977341 2.4935 1.17567 2.5485 1.40418Z" fill="white"/>
</svg>
