<svg width="6" height="2" viewBox="0 0 6 2" fill="none" xmlns="http://www.w3.org/2000/svg">
<path d="M1.23494 1.77234C0.910053 1.75021 0.588332 1.69444 0.274945 1.60594C0.226169 1.59658 0.182922 1.56866 0.15428 1.52809C0.125639 1.48751 0.113838 1.43741 0.121351 1.38832C0.136169 1.34161 0.168282 1.30235 0.211116 1.27855C0.253951 1.25476 0.304256 1.24822 0.351741 1.26031C1.13785 1.47447 1.96373 1.49795 2.76073 1.32875C3.55772 1.15955 4.30286 0.802597 4.93416 0.287539C4.9722 0.25153 5.02257 0.231445 5.07494 0.231445C5.12732 0.231445 5.17773 0.25153 5.21576 0.287539C5.25094 0.323429 5.27065 0.371658 5.27065 0.421914C5.27065 0.472171 5.25094 0.520438 5.21576 0.556328C4.66526 1.01161 4.03007 1.35345 3.34686 1.56215C2.66364 1.77085 1.94589 1.84229 1.23494 1.77234Z" fill="#263238"/>
</svg>
