<svg width="72" height="50" viewBox="0 0 72 50" fill="none" xmlns="http://www.w3.org/2000/svg">
<path d="M64.1267 0.677986C64.8985 0.677979 65.6389 0.983699 66.1858 1.52824C66.7328 2.07278 67.0417 2.8118 67.0451 3.58359V10.1628H68.1971C69.1748 10.1628 70.1125 10.5512 70.8038 11.2425C71.4951 11.9338 71.8835 12.8715 71.8835 13.8492V45.8492C71.8801 46.8224 71.492 47.7549 70.8038 48.4431C70.1156 49.1313 69.1832 49.5194 68.2099 49.5228H3.71071C2.73523 49.5194 1.80087 49.1295 1.1123 48.4386C0.423732 47.7476 0.0371035 46.8119 0.0371094 45.8364V13.8364C0.0371094 12.8587 0.425497 11.921 1.11683 11.2297C1.80817 10.5384 2.74582 10.15 3.72351 10.15H50.8403L62.3603 1.25398C62.8693 0.872116 63.4904 0.669576 64.1267 0.677986ZM68.2099 48.1148C68.8255 48.1148 69.4162 47.8711 69.8527 47.437C70.2892 47.0029 70.5361 46.4136 70.5395 45.798V13.798C70.5395 13.1767 70.2927 12.5809 69.8534 12.1417C69.4142 11.7024 68.8184 11.4556 68.1971 11.4556H65.6371V3.53238C65.6337 3.11705 65.4664 2.71988 65.1715 2.42738C64.8766 2.13489 64.4781 1.97077 64.0627 1.97078C63.7287 1.97352 63.4049 2.08596 63.1411 2.29078L51.2755 11.4556H3.72351C3.10227 11.4556 2.50647 11.7024 2.06718 12.1417C1.6279 12.5809 1.38111 13.1767 1.38111 13.798V45.798C1.38782 46.4126 1.63581 46.9999 2.07161 47.4333C2.50741 47.8667 3.09609 48.1115 3.71071 48.1148H68.2099Z" fill="#E6E6E6"/>
</svg>
