<svg width="5" height="3" viewBox="0 0 5 3" fill="none" xmlns="http://www.w3.org/2000/svg">
<path d="M0.896903 2.15314C0.828111 2.14596 0.762371 2.12094 0.706239 2.08053C0.650108 2.04011 0.605535 1.98572 0.576903 1.92275C0.532888 1.83108 0.527019 1.72569 0.560614 1.62971C0.594209 1.53372 0.664505 1.45498 0.756083 1.41076C1.30357 1.12582 1.91169 0.977051 2.5289 0.977051C3.1461 0.977051 3.75418 1.12582 4.30167 1.41076C4.34452 1.43345 4.38233 1.46456 4.4128 1.50229C4.44327 1.54001 4.46577 1.58355 4.47893 1.63021C4.4921 1.67688 4.49567 1.72573 4.4894 1.77381C4.48314 1.82189 4.46717 1.8682 4.44249 1.90994C4.4175 1.95392 4.38376 1.99235 4.34339 2.02283C4.30301 2.05331 4.25687 2.07522 4.20772 2.08721C4.15858 2.09919 4.10748 2.10099 4.05761 2.09252C4.00773 2.08405 3.96012 2.06549 3.91768 2.03795C3.48724 1.81979 3.01147 1.70611 2.5289 1.70611C2.04632 1.70611 1.57055 1.81979 1.14011 2.03795C1.0763 2.10542 0.989526 2.14652 0.896903 2.15314Z" fill="#263238"/>
</svg>
