<svg width="96" height="70" viewBox="0 0 96 70" fill="none" xmlns="http://www.w3.org/2000/svg">
<path d="M0.125 49.0471C0.127851 54.3685 2.1589 59.4886 5.80454 63.3649C9.45018 67.2412 14.4362 69.5822 19.7474 69.9111C20.1826 69.9111 75.837 69.9111 76.3618 69.9111C81.5836 69.4993 86.4608 67.1432 90.0291 63.3085C93.5973 59.4739 95.5968 54.4399 95.6322 49.202C95.6676 43.9641 93.7363 38.9036 90.2202 35.021C86.7041 31.1385 81.8592 28.7167 76.6434 28.2343C76.2144 20.5735 72.8581 13.3704 67.2683 8.11425C61.6785 2.85812 54.2827 -0.0491072 46.61 -0.00637138C38.9372 0.0363645 31.5743 3.02579 26.0434 8.34386C20.5125 13.6619 17.2366 20.902 16.893 28.5671C12.164 29.5214 7.91057 32.0821 4.85434 35.8149C1.7981 39.5477 0.127178 44.2228 0.125 49.0471Z" fill="#EBEBEB"/>
</svg>
