<svg width="111" height="143" viewBox="0 0 111 143" fill="none" xmlns="http://www.w3.org/2000/svg">
<path opacity="0.7" d="M110.846 51.1981C110.846 51.1981 90.7373 58.6605 83.262 63.2557C75.7868 67.8509 77.0029 77.6685 77.0029 77.6685L64.8812 84.5549L67.7612 97.7261L64.894 99.4541L60.2988 88.5357C60.2988 88.5357 44.2093 86.2445 37.4893 87.3837C30.7693 88.5229 29.2716 101.745 29.2716 101.745L33.2909 112.664L42.4813 113.24L43.6332 106.929L53.3996 107.492L47.0764 119.563L58.5964 121.291L59.7229 129.764L71.2429 138.52C71.2429 138.52 73.5469 141.387 71.2429 142.539C68.9389 143.691 14.3724 110.948 9.20125 102.859C4.03005 94.7693 -2.57475 72.7021 2.59645 57.1885C6.79485 44.5933 14.59 32.8685 17.0732 25.3165L17.1501 25.0605C17.2297 24.8565 17.2939 24.6469 17.3421 24.4333C17.5714 23.2454 17.3296 22.0148 16.6679 21.0019C16.0062 19.9891 14.9764 19.2733 13.7964 19.0061C11.7868 18.4301 8.04926 20.7341 8.04926 20.7341H0.714844L8.39484 16.3821L11.5437 13.0541L13.5661 11.2493L21.0285 8.08768L20.7469 5.79648C25.0768 3.17906 29.8485 1.37451 34.8269 0.47168L29.374 4.64449H35.1213L36.2732 11.1469H47.7932C47.7932 11.1469 44.9261 10.3917 51.8253 6.59008C58.7245 2.78848 81.1245 1.15008 81.1245 1.15008L74.2253 11.1469L89.1628 19.5821L87.4348 25.9053L77.1948 23.0253V19.5821L70.7948 15.7421L70.2188 22.4749L67.9148 25.3549L65.0477 23.0509L56.9453 31.1021L71.358 45.1821L73.662 27.1213L94.3468 31.7165L110.846 51.1981Z" fill="#0AB56B"/>
</svg>
