<svg width="24" height="12" viewBox="0 0 24 12" fill="none" xmlns="http://www.w3.org/2000/svg">
<path d="M0.414456 7.39459C0.269715 7.96696 0.316509 8.57099 0.547679 9.11424C0.778848 9.65749 1.18166 10.11 1.69446 10.4026C2.7225 10.982 3.89565 11.253 5.07366 11.1834C8.04996 11.1754 10.9751 10.4089 13.5729 8.9562C15.0339 7.94863 16.6221 7.13943 18.296 6.54979C20.0112 6.14019 22.136 6.6906 22.8272 8.3418C23.1853 7.6035 23.3696 6.79302 23.366 5.97248C23.3624 5.15195 23.171 4.34314 22.8065 3.60799C22.4421 2.87285 21.9141 2.2309 21.2632 1.73131C20.6123 1.23173 19.8556 0.887759 19.0513 0.725785C16.0433 0.111386 13.1633 2.0954 10.0913 2.5818C8.60287 2.73144 7.10683 2.79128 5.61125 2.761C4.10663 2.75359 2.63467 3.19964 1.38725 4.041C0.222449 4.8986 0.414456 7.39459 0.414456 7.39459Z" fill="#263238"/>
</svg>
