<svg width="84" height="49" viewBox="0 0 84 49" fill="none" xmlns="http://www.w3.org/2000/svg">
<path d="M1.83973 48.9915C1.55632 48.9935 1.28026 48.9014 1.05485 48.7296C0.829442 48.5578 0.667435 48.316 0.594226 48.0422C0.521017 47.7684 0.540736 47.478 0.65032 47.2167C0.759903 46.9553 0.953151 46.7377 1.19973 46.5979L81.2637 0.377133C81.5561 0.209182 81.9029 0.163373 82.2289 0.249652C82.5548 0.335932 82.8336 0.547332 83.0045 0.837934C83.0897 0.983262 83.1453 1.14397 83.1683 1.31084C83.1912 1.47772 83.181 1.64746 83.1382 1.81037C83.0954 1.97329 83.0208 2.12615 82.9188 2.2602C82.8168 2.39424 82.6893 2.50684 82.5437 2.59153L2.44134 48.8123C2.25878 48.9211 2.05203 48.9827 1.83973 48.9915Z" fill="#37474F"/>
</svg>
