<svg width="34" height="46" viewBox="0 0 34 46" fill="none" xmlns="http://www.w3.org/2000/svg">
<path d="M8.16679 45.5643L9.16518 45.2955L10.0868 45.0395C10.6756 44.8603 11.2516 44.6555 11.8276 44.4635C12.9796 44.0539 14.106 43.6187 15.2324 43.1835C17.4832 42.2363 19.6608 41.1239 21.7476 39.8555C23.8934 38.5718 25.9196 37.0982 27.802 35.4523C29.7391 33.5436 31.5518 31.5128 33.2292 29.3723C33.8308 26.3259 35.546 29.8587 27.2004 0.828289C26.8548 -0.554111 25.3956 1.59628 24.0004 1.94188C22.8996 2.21068 22.9508 3.49068 22.8996 4.62988L23.962 19.0427C23.962 20.0155 23.898 20.9627 23.8468 21.8971L23.7444 23.2539C23.7444 23.6891 23.6548 24.0731 23.6036 24.5339L24.538 22.1019C21.9863 24.9274 18.9524 27.2766 15.578 29.0395C13.8135 29.9931 11.9974 30.8477 10.138 31.5995C9.2164 31.9963 8.28198 32.3675 7.36038 32.7003L5.9396 33.1867L5.24839 33.4171L4.63397 33.5963L4.3396 33.6987C3.68152 33.8784 3.06596 34.1878 2.52913 34.6087C1.9923 35.0297 1.545 35.5536 1.2135 36.1498C0.882008 36.746 0.673021 37.4025 0.598778 38.0806C0.524535 38.7587 0.586521 39.4449 0.781161 40.0987C1.57476 42.8379 5.44037 46.3963 8.19237 45.6155L8.16679 45.5643Z" fill="#FFB573"/>
</svg>
