<svg width="18" height="31" viewBox="0 0 18 31" fill="none" xmlns="http://www.w3.org/2000/svg">
<path d="M14.8404 28.8873L8.338 30.0265C7.39456 30.1903 6.42465 29.974 5.6403 29.4247C4.85596 28.8754 4.32099 28.0379 4.15239 27.0953L0.389208 5.4761C0.245593 4.64938 0.394473 3.79845 0.810282 3.06962C1.22609 2.34078 1.88285 1.77958 2.66761 1.48251L9.17001 0.343308C10.1119 0.179694 11.0803 0.396432 11.8626 0.945964C12.6449 1.4955 13.1772 2.33292 13.3428 3.2745L17.1188 24.9065C17.2617 25.7315 17.1124 26.5805 16.6965 27.3072C16.2805 28.0339 15.6241 28.5927 14.8404 28.8873Z" fill="#37474F"/>
</svg>
