<svg width="13" height="17" viewBox="0 0 13 17" fill="none" xmlns="http://www.w3.org/2000/svg">
<path d="M0.254808 12.8266C0.236494 13.0041 0.255481 13.1835 0.310589 13.3532C0.365698 13.5229 0.455711 13.6793 0.574808 13.8122C1.35321 14.9035 2.45459 15.7228 3.7236 16.1546C3.02495 15.7909 2.46673 15.2056 2.13641 14.4906C1.89321 13.7354 1.64998 13.2106 2.43078 13.3642C2.89158 13.4538 4.04359 13.4282 4.51719 13.4794C5.23399 13.5562 5.69479 12.6346 5.51559 11.9306C5.25207 11.255 4.89904 10.6178 4.46598 10.0362C4.13318 9.39618 4.04361 8.47459 4.61961 8.05219C5.19561 7.62979 7.55081 7.88578 8.45961 7.64258C9.36841 7.39938 9.73961 6.20898 9.73961 5.23618C9.73961 4.55778 10.0468 3.32897 10.0212 2.30497H10.0852C10.2012 2.24527 10.3339 2.22669 10.4618 2.25227C10.5897 2.27785 10.7051 2.34608 10.7892 2.44579C10.9628 2.63351 11.1093 2.84462 11.2244 3.07297C11.4676 3.52097 12.5044 4.83937 13.0036 4.35297C12.882 4.04345 12.7365 3.74386 12.5684 3.45696C12.1569 2.45377 11.4689 1.58818 10.5844 0.960982C10.1679 0.829412 9.7209 0.829412 9.30438 0.960982C9.30438 0.960982 9.30438 1.02499 9.22758 1.05059C9.22758 1.28099 9.22761 1.51138 9.13801 1.67778C8.93321 3.38018 9.13801 3.58499 8.93321 5.00579C8.90356 5.27376 8.81995 5.53295 8.68743 5.76774C8.5549 6.00253 8.37621 6.20806 8.16211 6.37192C7.94802 6.53578 7.70294 6.65458 7.44168 6.72118C7.18043 6.78777 6.90841 6.80076 6.642 6.75938C5.362 6.59298 4.55558 6.47778 3.58278 7.39938C2.60998 8.32098 3.17318 9.47298 3.82598 10.3178C4.28678 10.9066 4.88838 11.5978 4.50438 12.3018C4.33405 12.5094 4.10275 12.6582 3.84317 12.7272C3.58358 12.7961 3.30891 12.7816 3.05801 12.6858C2.53321 12.545 2.0596 12.2506 1.522 12.161C0.984396 12.0714 0.357208 12.3146 0.254808 12.8266Z" fill="#263238"/>
</svg>
