<svg width="2" height="3" viewBox="0 0 2 3" fill="none" xmlns="http://www.w3.org/2000/svg">
<path opacity="0.4" d="M1.93792 0.996128C1.97708 1.16937 1.96387 1.35033 1.89997 1.51605C1.83607 1.68177 1.72436 1.82475 1.57903 1.92685C1.4337 2.02895 1.26131 2.08555 1.08374 2.08947C0.906174 2.09339 0.731441 2.04444 0.581748 1.94885C0.432054 1.85326 0.314146 1.71535 0.242998 1.55261C0.171849 1.38988 0.150677 1.20966 0.182158 1.03487C0.213639 0.860071 0.29636 0.698571 0.419814 0.570883C0.543268 0.443195 0.701881 0.355085 0.875517 0.317729C0.989967 0.289545 1.10895 0.2849 1.22524 0.304077C1.34154 0.323253 1.45274 0.365846 1.55208 0.429282C1.65142 0.492717 1.73685 0.575672 1.80317 0.67311C1.8695 0.770548 1.91534 0.880442 1.93792 0.996128Z" fill="white"/>
</svg>
