<svg width="71" height="71" viewBox="0 0 71 71" fill="none" xmlns="http://www.w3.org/2000/svg">
<path d="M65.0261 17.5065C67.4394 21.4312 69.0558 25.7928 69.7829 30.3423C70.51 34.8918 70.3336 39.54 69.2638 44.0213C68.194 48.5026 66.2517 52.7292 63.548 56.4596C60.8442 60.1901 57.4319 63.3513 53.5061 65.7626C47.3711 69.5413 40.2175 71.3298 33.0261 70.8826C32.169 70.8404 31.3145 70.7549 30.4661 70.6265C23.6462 69.6999 17.2499 66.7865 12.0746 62.2494C6.89923 57.7124 3.17376 51.7523 1.36262 45.1124C-0.448528 38.4724 -0.265216 31.4463 1.88965 24.9098C4.04451 18.3733 8.07562 12.6156 13.4805 8.35455C14.5397 7.50878 15.6512 6.7307 16.8085 6.02495C20.6645 3.64668 24.947 2.04239 29.4165 1.30174H29.6085C30.6453 1.13534 31.6821 1.00734 32.7189 0.943344C38.7421 0.517453 44.7733 1.6533 50.229 4.241C55.6847 6.8287 60.3802 10.7807 63.8612 15.7145C64.258 16.3033 64.6805 16.8921 65.0261 17.5065Z" fill="#0AB56B"/>
</svg>
