<svg width="4" height="4" viewBox="0 0 4 4" fill="none" xmlns="http://www.w3.org/2000/svg">
<path d="M3.07697 0.751446C3.08276 0.732958 3.08468 0.713479 3.08259 0.694219C3.08051 0.674959 3.07447 0.656332 3.06486 0.639512C3.05525 0.622692 3.04227 0.60804 3.02673 0.596465C3.0112 0.584891 2.99343 0.576645 2.97457 0.572246C2.9356 0.564551 2.89517 0.572251 2.86175 0.593731C2.82834 0.615211 2.80454 0.648805 2.79537 0.687452C2.62187 1.28039 2.30788 1.8227 1.88003 2.26837C1.45219 2.71404 0.923131 3.04991 0.337769 3.24745C0.304319 3.26164 0.277649 3.2882 0.263336 3.3216C0.249023 3.355 0.248178 3.39264 0.260972 3.42665C0.275161 3.4601 0.301735 3.48677 0.335133 3.50108C0.36853 3.5154 0.406164 3.51624 0.440172 3.50345C0.661233 3.42823 0.875367 3.33401 1.08017 3.22185C1.5603 2.9632 1.98412 2.61155 2.32695 2.18741C2.66978 1.76328 2.92474 1.27513 3.07697 0.751446Z" fill="#EA6B3F"/>
</svg>
