<svg width="70" height="71" viewBox="0 0 70 71" fill="none" xmlns="http://www.w3.org/2000/svg">
<path d="M69.1038 35.7227C69.1087 42.1653 67.306 48.4801 63.9006 53.9491C60.4951 59.4182 55.6236 63.8221 49.8398 66.6602L49.6606 66.7498C49.3534 66.8906 49.059 67.0443 48.739 67.1723H48.6366C48.0734 67.4283 47.4974 67.6586 46.9214 67.8763L46.371 68.0682C42.6516 69.4088 38.7277 70.0931 34.7742 70.0907C30.8079 70.0827 26.8724 69.3943 23.139 68.0554C21.2763 67.375 19.4738 66.5401 17.7502 65.5594C16.867 65.0475 16.0094 64.5098 15.1902 63.9082L14.563 63.4602C10.7425 60.6744 7.53824 57.1299 5.15073 53.0487C2.76321 48.9675 1.24386 44.4373 0.687758 39.7418C0.574013 38.8499 0.505663 37.9528 0.482963 37.0539C0.482963 36.6059 0.482963 36.1451 0.482963 35.6843C0.394741 31.1109 1.21931 26.5659 2.90845 22.3151C4.59759 18.0642 7.11739 14.1929 10.3205 10.9274C13.5235 7.66196 17.3456 5.06796 21.5631 3.29715C25.7806 1.52634 30.3088 0.614258 34.883 0.614258C39.4571 0.614258 43.9854 1.52634 48.2029 3.29715C52.4203 5.06796 56.2424 7.66196 59.4455 10.9274C62.6485 14.1929 65.1683 18.0642 66.8575 22.3151C68.5466 26.5659 69.3712 31.1109 69.283 35.6843L69.1038 35.7227Z" fill="#018FD0"/>
</svg>
