<svg width="119" height="338" viewBox="0 0 119 338" fill="none" xmlns="http://www.w3.org/2000/svg">
<path d="M59.1759 111.858L15.2079 119.41C13.8349 105.371 11.0649 91.5044 6.9391 78.0153C-1.9313 47.8585 3.5215 48.2553 3.5215 48.2553C7.48001 46.458 11.5763 44.9813 15.7711 43.8393C21.9407 42.4057 27.2143 40.4729 33.4991 39.7689C38.6706 39.2568 43.8687 39.0644 49.0639 39.1929C49.6783 42.7897 50.2799 46.5785 50.8687 50.4825C52.0591 58.1625 53.2239 66.3161 54.2863 74.0729C56.7311 91.9161 58.6511 107.75 59.1759 111.858Z" fill="white"></path>
<path d="M10.3184 45.529C12.4669 45.7801 14.6397 45.3444 16.5253 44.2844C18.4109 43.2243 19.9123 41.5943 20.8144 39.6282C21.1847 38.5406 21.2554 37.3734 21.0192 36.249C18.5985 36.77 16.3486 37.8937 14.478 39.516C12.6074 41.1382 11.1766 43.2065 10.3184 45.529Z" fill="#37474F"></path>
<path d="M10.3184 45.529C12.4669 45.7801 14.6397 45.3444 16.5253 44.2844C18.4109 43.2243 19.9123 41.5943 20.8144 39.6282C21.1847 38.5406 21.2554 37.3734 21.0192 36.249C18.5985 36.77 16.3486 37.8937 14.478 39.516C12.6074 41.1382 11.1766 43.2065 10.3184 45.529Z" fill="white"></path>
<path d="M29.9668 33.3946C30.8372 35.609 31.6436 38.4122 33.8068 39.4362C34.8511 39.8619 35.9686 40.0793 37.0964 40.0763C39.7903 40.0798 42.4796 39.8529 45.1348 39.3979C45.4779 37.3546 45.1876 35.2553 44.3028 33.3819C43.8306 32.5456 43.1667 31.8334 42.3656 31.3038C41.5645 30.7742 40.6491 30.4423 39.6948 30.3354C38.0881 30.3362 36.5046 30.7178 35.074 31.449C33.3588 32.1146 31.6564 32.6778 29.9668 33.3946Z" fill="#37474F"></path>
<path d="M29.9668 33.3946C30.8372 35.609 31.6436 38.4122 33.8068 39.4362C34.8511 39.8619 35.9686 40.0793 37.0964 40.0763C39.7903 40.0798 42.4796 39.8529 45.1348 39.3979C45.4779 37.3546 45.1876 35.2553 44.3028 33.3819C43.8306 32.5456 43.1667 31.8334 42.3656 31.3038C41.5645 30.7742 40.6491 30.4423 39.6948 30.3354C38.0881 30.3362 36.5046 30.7178 35.074 31.449C33.3588 32.1146 31.6564 32.6778 29.9668 33.3946Z" fill="white"></path>
<g opacity="0.2">
<path d="M20.5587 36.9659C19.2965 37.4787 18.2232 38.3685 17.4855 39.514C16.7479 40.6594 16.3817 42.0046 16.4371 43.3659C17.5747 42.6589 18.6086 41.7974 19.5091 40.8059C19.9397 40.3093 20.2623 39.7285 20.4562 39.1005C20.6501 38.4724 20.7112 37.8109 20.6355 37.1579C20.6355 37.1579 20.6355 36.9531 20.5587 36.9659Z" fill="black"></path>
</g>
<path opacity="0.2" d="M34.7676 38.6041C33.2746 37.5913 32.1056 36.169 31.4012 34.5081C31.3584 34.3522 31.3242 34.1941 31.2988 34.0345C32.3274 34.0085 33.3443 33.8094 34.3068 33.4457C34.7869 33.2675 35.3077 33.2294 35.8085 33.3359C36.3094 33.4425 36.7696 33.6891 37.1356 34.0473C37.6476 34.6745 37.1996 37.6697 34.7676 38.6041Z" fill="black"></path>
<path d="M33.7441 41.5227C31.0158 44.2772 27.7825 46.4805 24.2209 48.0123C23.4521 48.3694 22.6117 48.5459 21.7642 48.5281C20.9167 48.5104 20.0845 48.2989 19.3313 47.9099L18.8833 47.6667C18.2868 47.3284 17.7918 46.8366 17.4497 46.2424C17.1075 45.6482 16.9308 44.9731 16.9377 44.2875V44.2107C16.948 43.8228 17.0171 43.4387 17.1425 43.0715C18.6017 42.3239 19.7358 41.0668 20.3297 39.5387C20.4434 39.2729 20.5209 38.9931 20.5601 38.7067C20.844 36.2542 20.3658 33.7738 19.1905 31.6027L28.9953 19.8267C28.8929 23.7819 29.2769 30.0667 31.4017 34.5083C32.1061 36.1692 33.275 37.5915 34.7681 38.6043C35.3697 39.4747 34.1793 40.9851 33.7441 41.5227Z" fill="#DD8C6A"></path>
<path opacity="0.2" d="M25.6791 27.8522C25.8711 30.5786 22.8759 36.5051 20.3287 34.8027C20.0449 33.7125 19.6636 32.6501 19.1895 31.6282L24.9879 24.665C25.4078 25.6773 25.6419 26.757 25.6791 27.8522Z" fill="black"></path>
<path d="M26.4866 5.7849C25.6983 4.52922 24.6703 3.44112 23.4615 2.58272C22.2526 1.72431 20.8865 1.11242 19.4412 0.781993C17.9959 0.451562 16.4996 0.409065 15.0378 0.656915C13.5761 0.904765 12.1774 1.43811 10.9218 2.2265C3.5106 6.8345 4.4578 19.1097 7.4658 26.1369C10.8066 33.9193 21.5458 35.9289 26.6018 28.5817C30.0066 23.6921 29.0594 18.9305 28.1634 10.6617C27.9914 8.92782 27.4173 7.25794 26.4866 5.7849Z" fill="#DD8C6A"></path>
<path d="M32.5391 14.7064L27.5087 20.5945C27.5087 20.5945 25.8831 19.5576 25.3327 13.9256C25.1407 12.4664 23.5407 12.0953 23.0927 10.6104C22.6447 9.12565 23.1823 4.21045 24.5007 4.09525C25.8191 3.98005 32.5647 3.67285 32.5647 3.67285L32.5391 14.7064Z" fill="#DD8C6A"></path>
<path opacity="0.2" d="M32.5391 14.7064L27.5087 20.5945C27.5087 20.5945 25.8831 19.5576 25.3327 13.9256C25.1407 12.4664 23.5407 12.0953 23.0927 10.6104C22.6447 9.12565 23.1823 4.21045 24.5007 4.09525C25.8191 3.98005 32.5647 3.67285 32.5647 3.67285L32.5391 14.7064Z" fill="black"></path>
<path d="M36.099 179.967C35.395 190.527 31.8238 228.07 31.8238 228.07C34.563 268.799 27.7278 324.313 27.7278 324.313L18.8958 324.71C18.8958 324.71 13.8654 192.115 14.4798 178.649L36.099 179.967Z" fill="#DD8C6A"></path>
<path d="M36.0991 179.967C35.8687 183.321 35.3695 189.401 34.8191 196.121C34.7039 197.401 34.5887 198.617 34.4863 199.884C33.2063 213.452 31.9263 228.044 31.9263 228.044C34.6655 268.774 27.8303 324.287 27.8303 324.287L18.9983 324.684C18.9983 324.684 13.8783 192.115 14.4671 178.649L36.0991 179.967Z" fill="#DD8C6A"></path>
<path d="M47.7598 113.804L42.2302 144.396C37.4686 199.948 33.1038 244.492 33.1038 244.492C33.1038 245.337 33.2446 246.207 33.347 247.116C34.9664 262.493 34.902 278 33.155 293.363L30.9918 312.729L16.9118 313.011C17.3342 299.827 14.0062 261.951 13.6734 226.982C13.1102 169.113 14.9534 117.9 14.9534 117.9L47.7598 113.804Z" fill="#37474F"></path>
<path opacity="0.5" d="M47.7598 113.804L42.2302 144.396C37.4686 199.948 33.1038 244.492 33.1038 244.492C33.1038 245.337 33.2446 246.207 33.347 247.116C34.9664 262.493 34.902 278 33.155 293.363L30.9918 312.729L16.9118 313.011C17.3342 299.827 14.0062 261.951 13.6734 226.982C13.1102 169.113 14.9534 117.9 14.9534 117.9L47.7598 113.804Z" fill="black"></path>
<path opacity="0.3" d="M43.317 134.195L39.3618 177.177C36.661 160.153 33.6786 138.649 35.765 120.857L43.317 134.195Z" fill="black"></path>
<path d="M110.773 308.595C105.909 298.892 98.7285 286.707 98.7285 286.707L112.552 291.519C112.552 291.519 117.813 302.579 118.952 305.881C116.456 306.649 113.154 307.647 110.773 308.595Z" fill="#DD8C6A"></path>
<path opacity="0.2" d="M52.6992 190.054L54.7344 196.595L72.8464 190.438L71.5664 184.896L52.6992 190.054Z" fill="black"></path>
<path d="M66.2814 162.969C69.1614 175.423 76.4062 204.39 78.915 212.684C94.0446 233.394 102.544 267.34 114.486 295.679L106.742 301.004C106.742 301.004 72.8734 241.612 62.8382 216.806C60.2782 210.406 48.6814 180.121 45.6094 169.202L66.2814 162.969Z" fill="#DD8C6A"></path>
<path d="M100.776 294.745C100.776 294.745 73.6913 244.402 66.6001 232.383C50.7537 205.503 31.1953 116.236 31.1953 116.236L59.1761 111.858C59.1761 111.858 81.6657 216.882 83.2401 219.238C97.8065 241.202 113.371 288.716 113.371 288.716L100.776 294.745Z" fill="#37474F"></path>
<g opacity="0.5">
<path d="M100.776 294.745C100.776 294.745 73.6913 244.402 66.6001 232.383C50.7537 205.503 31.1953 116.236 31.1953 116.236L59.1761 111.858C59.1761 111.858 81.6657 216.882 83.2401 219.238C97.8065 241.202 113.371 288.716 113.371 288.716L100.776 294.745Z" fill="black"></path>
</g>
<path d="M14.9522 15.7944C14.5298 15.8712 14.2738 16.46 14.389 17.0744C14.5042 17.6888 14.9266 18.2264 15.3618 18.1496C15.797 18.0728 16.0658 17.484 15.9506 16.8696C15.8354 16.2552 15.4386 15.7176 14.9522 15.7944Z" fill="#263238"></path>
<path d="M6.68469 17.0104C6.23669 17.0744 5.98068 17.676 6.09588 18.2904C6.21108 18.9048 6.65908 19.4296 7.09428 19.3656C7.52948 19.3016 7.78548 18.6873 7.67028 18.0217C7.55508 17.3561 7.11989 16.9336 6.68469 17.0104Z" fill="#263238"></path>
<path d="M12.226 22.5528C11.7137 22.7945 11.1542 22.9199 10.5876 22.9199C10.0211 22.9199 9.46159 22.7945 8.94922 22.5528C9.96012 20.5879 10.7007 18.4954 11.1508 16.332L12.226 22.5528Z" fill="#4F0F1A"></path>
<path d="M18.2685 12.172C18.3052 12.1362 18.3344 12.0934 18.3544 12.0461C18.3743 11.9989 18.3846 11.9481 18.3846 11.8968C18.3846 11.8455 18.3743 11.7947 18.3544 11.7474C18.3344 11.7001 18.3052 11.6574 18.2685 11.6216C17.8252 11.1763 17.2795 10.8466 16.6792 10.6614C16.0789 10.4762 15.4423 10.4411 14.8252 10.5592C14.7755 10.5709 14.7287 10.5927 14.6877 10.6234C14.6468 10.654 14.6127 10.6928 14.5874 10.7373C14.5622 10.7817 14.5464 10.8309 14.5411 10.8818C14.5358 10.9326 14.541 10.984 14.5564 11.0328C14.5669 11.0839 14.5877 11.1323 14.6175 11.1752C14.6473 11.218 14.6856 11.2543 14.7299 11.2818C14.7742 11.3094 14.8237 11.3276 14.8753 11.3354C14.9269 11.3432 14.9796 11.3404 15.03 11.3272C15.5189 11.2487 16.0195 11.2866 16.491 11.4378C16.9624 11.589 17.3916 11.8493 17.7436 12.1976C17.7901 12.2391 17.8452 12.2698 17.905 12.2875C17.9647 12.3052 18.0277 12.3095 18.0893 12.3C18.1596 12.2745 18.2215 12.2302 18.2685 12.172Z" fill="#263238"></path>
<path d="M5.19956 14.092C5.35122 13.6182 5.61388 13.1874 5.96565 12.8357C6.31743 12.4839 6.74816 12.2212 7.22196 12.0696C7.30151 12.0396 7.36933 11.9848 7.41542 11.9134C7.46151 11.8419 7.48342 11.7576 7.47796 11.6728C7.46519 11.5676 7.41336 11.471 7.33274 11.4023C7.25213 11.3335 7.14864 11.2976 7.04276 11.3016C6.44358 11.4946 5.89891 11.8274 5.45378 12.2726C5.00864 12.7177 4.67581 13.2624 4.48276 13.8616C4.45554 13.9217 4.4468 13.9885 4.45767 14.0536C4.46853 14.1187 4.4985 14.1791 4.54378 14.2272C4.58906 14.2752 4.6476 14.3087 4.71194 14.3233C4.77629 14.338 4.84355 14.3332 4.90517 14.3096C4.96622 14.2946 5.02368 14.2677 5.07423 14.2304C5.12477 14.193 5.16738 14.1459 5.19956 14.092Z" fill="#263238"></path>
<path d="M16.7833 326.617C14.2233 328.921 9.34647 331.353 1.33367 333.106C-0.458335 333.503 0.117674 337.817 4.48247 337.817C8.84727 337.817 17.0009 336.703 20.1497 336.537C25.2697 336.178 33.3721 335.257 30.9273 330.713C30.9273 330.713 29.8009 329.958 27.7785 323.033L18.8185 323.814C18.1964 324.788 17.5168 325.724 16.7833 326.617Z" fill="#DD8C6A"></path>
<path opacity="0.2" d="M54.2881 74.0727C54.2881 74.0727 54.2113 74.0727 54.1473 73.9831C54.0833 73.8935 51.5873 70.9367 48.2977 62.6679C43.8945 51.6727 43.1777 48.1527 43.1777 48.1527C44.1761 45.0295 48.8225 45.5927 50.1409 48.5111C50.4097 49.1383 50.6785 49.7911 50.9345 50.4823C52.0609 58.2007 53.2257 66.3159 54.2881 74.0727Z" fill="black"></path>
<path d="M70.1215 97.2664L68.4959 101.99C67.9903 103.451 68.0682 105.051 68.7135 106.457L71.2095 111.833C71.3549 112.146 71.6078 112.398 71.9224 112.541C72.2371 112.684 72.5926 112.71 72.9247 112.614L76.7647 111.487C77.0998 111.386 77.387 111.167 77.573 110.871C77.7589 110.574 77.831 110.22 77.7759 109.874L76.7519 103.782L75.2159 97.1256C75.2159 97.1256 70.7615 95.4488 70.1215 97.2664Z" fill="#DD8C6A"></path>
<path d="M43.9056 41.2792C43.9056 41.2792 39.784 49.3176 48.168 55.5896C55.0208 60.7453 62.162 65.5061 69.5568 69.8488C70.2446 70.253 70.8064 70.8407 71.1794 71.5459C71.5523 72.2512 71.7218 73.0463 71.6688 73.8424L70.056 97.292L70.5552 97.9832C71.1352 98.7928 71.9563 99.3984 72.9012 99.7133C73.846 100.028 74.8662 100.036 75.816 99.7368C76.2256 98.2392 83.624 70.4376 81.6016 65.1768C80.6032 62.5528 77.352 58.3672 67.1504 50.0856C63.9376 47.5256 60.9296 46.6936 59.9824 45.5672C53.0704 37.3624 46.568 38.2584 43.9056 41.2792Z" fill="white"></path>
<path d="M15.0166 24.7035C14.5942 24.7803 14.3382 25.3691 14.4534 25.9835C14.5686 26.5979 14.991 27.1355 15.439 27.0587C15.887 26.9819 16.1302 26.3931 16.015 25.7147C15.8998 25.0363 15.439 24.6267 15.0166 24.7035Z" fill="#263238"></path>
</svg>
