<svg width="48" height="48" viewBox="0 0 48 48" fill="none" xmlns="http://www.w3.org/2000/svg">
<circle cx="24" cy="24" r="24" fill="#D00000"></circle>
<path d="M11.8574 23.9876C11.8574 29.9435 16.6843 34.7702 22.6419 34.7702C22.8674 34.7702 23.0907 34.7625 23.3123 34.7492C17.6718 34.3996 13.204 29.7161 13.204 23.9876C13.204 18.2573 17.6737 13.5718 23.3142 13.2241C23.0926 13.2108 22.8674 13.2031 22.6419 13.2031C16.6843 13.2031 11.8574 18.0319 11.8574 23.9876Z" fill="black"></path>
<mask id="mask0_109_731" style="mask-type: luminance" maskUnits="userSpaceOnUse" x="22" y="10" width="16" height="25">
<path d="M22.9785 10H37.8735V34.7512H22.9785V10Z" fill="white"></path>
</mask>
<g mask="url('#mask0_109_731')">
<path d="M23.9888 9.99805C23.7634 9.99805 23.538 10.0038 23.3145 10.0152C30.7276 10.3667 36.63 16.4867 36.63 23.9877C36.63 27.8806 35.0389 31.4028 32.4698 33.9395L32.9607 34.7187C36.0264 32.1535 37.9766 28.2969 37.9766 23.9877C37.9766 16.2613 31.7151 9.99805 23.9888 9.99805Z" fill="black"></path>
</g>
<mask id="mask1_109_731" style="mask-type: luminance" maskUnits="userSpaceOnUse" x="10" y="10" width="27" height="28">
<path d="M10 10H36.669V37.8724H10V10Z" fill="white"></path>
</mask>
<g mask="url('#mask1_109_731')">
<path d="M23.3134 10.0156C15.9023 10.3671 10 16.4871 10 23.9881C10 31.4873 15.9023 37.6092 23.3153 37.9587C23.5388 37.9702 23.7624 37.9759 23.9878 37.9759C25.7584 37.9759 27.4507 37.6473 29.0094 37.0475L24.9677 34.7267C24.6448 34.7553 24.3183 34.7708 23.9878 34.7708C23.8884 34.7708 23.7891 34.7708 23.6916 34.767C23.5636 34.7651 23.4376 34.7572 23.3115 34.7496C23.0899 34.7629 22.8666 34.7708 22.6411 34.7708C16.6835 34.7708 11.8566 29.9439 11.8566 23.9881C11.8566 18.0324 16.6835 13.2036 22.6411 13.2036C22.8666 13.2036 23.092 13.2112 23.3134 13.2246C23.5369 13.2112 23.7605 13.2036 23.9878 13.2036C29.9435 13.2036 34.7722 18.0324 34.7722 23.9881C34.7722 27.1551 33.4065 30.003 31.2327 31.9763L32.4688 33.9399C35.0379 31.4032 36.629 27.8809 36.629 23.9881C36.629 16.4871 30.7266 10.3671 23.3134 10.0156Z" fill="white"></path>
</g>
<mask id="mask2_109_731" style="mask-type: luminance" maskUnits="userSpaceOnUse" x="25" y="27" width="9" height="11">
<path d="M25.9102 27.4165H33.7339V37.8725H25.9102V27.4165Z" fill="white"></path>
</mask>
<g mask="url('#mask2_109_731')">
<path d="M33.3839 37.9758L26.8896 27.6592L26.3203 28.6238L31.5407 36.9175L33.3839 37.9758Z" fill="black"></path>
</g>
<path d="M31.5428 36.9172L26.3224 28.6235L23.9883 32.5774L31.5428 36.9172Z" fill="white"></path>
</svg>
