<svg width="19" height="13" viewBox="0 0 19 13" fill="none" xmlns="http://www.w3.org/2000/svg">
<path d="M5.32897 5.68099C6.2553 5.65202 7.17653 5.8287 8.02641 6.19831C8.8763 6.56792 9.6337 7.12128 10.2442 7.8186C10.7358 8.54129 11.3116 9.20298 11.9594 9.78979C12.6506 10.289 15.0698 12.4266 15.7994 12.785C16.529 13.1434 15.9018 11.2106 16.4522 10.6986C17.0549 10.2508 17.6161 9.74952 18.129 9.20099C18.4196 8.77001 18.6056 8.27715 18.6723 7.76163C18.739 7.2461 18.6844 6.72213 18.513 6.23139C18.1562 5.24576 17.5576 4.3655 16.7722 3.67139C15.7075 2.67447 14.4549 1.8996 13.0875 1.39203C11.7201 0.88445 10.2654 0.654334 8.80807 0.715103C7.35079 0.775873 5.92021 1.12631 4.59983 1.74597C3.27945 2.36563 2.09573 3.24209 1.11776 4.3242C0.47776 5.0282 -0.495038 6.76899 1.71936 6.96099C2.32096 6.96099 2.24416 6.5642 2.79456 6.2954C3.5847 5.90893 4.44957 5.69926 5.32897 5.68099Z" fill="#263238"></path>
</svg>
