<svg width="25" height="32" viewBox="0 0 25 32" fill="none" xmlns="http://www.w3.org/2000/svg">
<path opacity="0.4" d="M3.05809 14.1243C4.26129 18.1307 11.4037 32.7227 19.6981 31.3659C21.012 31.1182 22.1856 30.3876 22.9877 29.3179C28.6965 23.9035 19.3141 5.8171 17.7525 4.9979C17.0711 4.62927 16.3079 4.43789 15.5331 4.44137C14.7584 4.44485 13.9969 4.64307 13.3188 5.01781C12.6408 5.39254 12.0678 5.93176 11.6526 6.58587C11.2374 7.23999 10.9933 7.98799 10.9429 8.7611C10.6364 8.19276 10.3629 7.60727 10.1237 7.0075C9.33009 4.9979 7.12849 0.402702 5.00369 0.505102C3.72369 0.505102 1.08689 1.0171 0.562093 2.2203C0.0372926 3.4235 1.06129 7.4939 3.05809 14.1243Z" fill="white"></path>
</svg>
