<svg width="8" height="5" viewBox="0 0 8 5" fill="none" xmlns="http://www.w3.org/2000/svg">
<path d="M4.32099 2.99134C3.13059 3.86174 1.8506 4.50175 1.057 4.16895C0.843306 4.07653 0.658852 3.92755 0.523525 3.7381C0.388198 3.54864 0.307115 3.32588 0.288994 3.09376C0.260168 2.90593 0.271489 2.71408 0.322236 2.53095C0.372983 2.34782 0.461978 2.17754 0.583369 2.03134C1.78657 0.456937 6.53539 0.188122 6.72739 0.175322C6.78854 0.174546 6.84886 0.189438 6.90263 0.218564C6.9564 0.24769 7.00182 0.290087 7.03458 0.341728C7.06655 0.391339 7.08356 0.449115 7.08356 0.508134C7.08356 0.567153 7.06655 0.62493 7.03458 0.674541C6.21653 1.5427 5.30667 2.31952 4.32099 2.99134ZM1.38977 2.04415C1.24303 2.14654 1.10972 2.26694 0.992978 2.40255C0.922289 2.49181 0.871004 2.59481 0.842353 2.70501C0.813702 2.8152 0.808309 2.93016 0.826572 3.04255C0.890572 3.46495 1.0442 3.56734 1.1722 3.63134C2.0938 3.97694 4.46177 2.35133 5.98497 0.828134C4.37942 0.921855 2.81256 1.35831 1.38977 2.10813V2.04415Z" fill="#37474F"></path>
</svg>
