<svg width="96" height="96" viewBox="0 0 96 96" fill="none" xmlns="http://www.w3.org/2000/svg">
<path d="M95.0162 55.7884L94.9266 56.3388C94.5474 58.4124 94.0387 60.4601 93.4034 62.47C93.1474 63.2636 92.8658 64.0572 92.5714 64.838C92.1746 65.9004 91.7266 66.9628 91.2914 67.974C91.2914 68.1148 91.1762 68.2428 91.125 68.3708C87.7362 75.5105 82.6299 81.6984 76.2631 86.3807C69.8963 91.0629 62.4678 94.0932 54.6426 95.2004C46.8175 96.3076 38.8399 95.4571 31.424 92.725C24.0082 89.9929 17.3856 85.4645 12.149 79.5452C5.86284 72.4552 1.82528 63.6571 0.548985 54.268C-0.727309 44.8789 0.81523 35.3223 4.98076 26.8115C9.14629 18.3008 15.7469 11.2198 23.9446 6.46767C32.1422 1.71552 41.5671 -0.493448 51.0226 0.121229C52.6526 0.231809 54.2759 0.424056 55.8866 0.697234L56.3858 0.786834C57.2434 0.953234 58.0882 1.13243 58.9458 1.33723C64.0963 2.55078 69.007 4.61889 73.4738 7.45563C80.3405 11.8177 85.9812 17.8589 89.8627 25.0082C93.7442 32.1575 95.7382 40.1786 95.6562 48.3132C95.6244 50.3903 95.4663 52.4634 95.1826 54.5212C95.157 54.9948 95.093 55.3788 95.0162 55.7884Z" fill="#72C65E"></path>
</svg>
