<svg width="17" height="29" viewBox="0 0 17 29" fill="none" xmlns="http://www.w3.org/2000/svg">
<path opacity="0.7" d="M13.0323 28.849H12.7763C13.5601 28.5544 14.2164 27.9956 14.6324 27.2689C15.0483 26.5422 15.1976 25.6932 15.0547 24.8682L11.2787 3.23622C11.1131 2.29465 10.5808 1.4572 9.7985 0.907668C9.01619 0.358137 8.04784 0.141398 7.10592 0.305012L0.603516 1.44423C0.816765 1.35345 1.04028 1.28896 1.26912 1.25222L8.01471 0.0618282C8.95957 -0.0982455 9.92943 0.121258 10.7133 0.67259C11.4971 1.22392 12.0316 2.06246 12.2003 3.00581L15.9635 24.6378C16.0501 25.107 16.0428 25.5888 15.942 26.0551C15.8412 26.5215 15.649 26.9633 15.3764 27.3549C15.1038 27.7465 14.7563 28.0802 14.354 28.3367C13.9516 28.5931 13.5024 28.7673 13.0323 28.849Z" fill="white"></path>
</svg>
