<svg width="5" height="4" viewBox="0 0 5 4" fill="none" xmlns="http://www.w3.org/2000/svg">
<path d="M3.69705 3.04295C3.63613 3.04255 3.57624 3.02717 3.52266 2.99815C3.46908 2.96913 3.42347 2.92737 3.38986 2.87655C3.16207 2.46295 2.83651 2.11139 2.44159 1.85258C2.04666 1.59376 1.5944 1.43554 1.12426 1.39175C1.07551 1.39009 1.02754 1.37885 0.983138 1.35865C0.938732 1.33845 0.898749 1.3097 0.865462 1.27404C0.832176 1.23838 0.806245 1.1965 0.789154 1.15081C0.772063 1.10512 0.764143 1.05651 0.765853 1.00775C0.765727 0.958452 0.775774 0.909652 0.795365 0.864412C0.814955 0.819172 0.84367 0.778461 0.879711 0.744822C0.915751 0.711184 0.958345 0.685342 1.00483 0.668914C1.05131 0.652486 1.10068 0.645832 1.14986 0.649354C1.74527 0.693433 2.32067 0.883484 2.8252 1.20272C3.32973 1.52196 3.74787 1.96056 4.04266 2.47975C4.07964 2.57041 4.08179 2.67154 4.04871 2.76369C4.01563 2.85584 3.94966 2.93251 3.86346 2.97895C3.81689 3.0186 3.75819 3.04117 3.69705 3.04295Z" fill="#263238"></path>
</svg>
