<svg width="39" height="24" viewBox="0 0 39 24" fill="none" xmlns="http://www.w3.org/2000/svg">
<path d="M37.2302 23.4025C37.0048 23.4002 36.784 23.3383 36.5902 23.2233L1.10858 2.7433C0.955611 2.66328 0.820396 2.55313 0.711098 2.41951C0.601799 2.28588 0.520661 2.13154 0.472562 1.96574C0.424463 1.79994 0.410398 1.62613 0.431215 1.45476C0.452031 1.28339 0.507302 1.11799 0.593695 0.968532C0.680088 0.819073 0.795819 0.688628 0.93393 0.585056C1.07204 0.481483 1.22967 0.406927 1.39735 0.365856C1.56502 0.324785 1.73929 0.318053 1.90963 0.346071C2.07998 0.374089 2.24289 0.436271 2.38858 0.528884L37.8702 21.0089C38.1167 21.1486 38.31 21.3662 38.4196 21.6276C38.5292 21.889 38.5489 22.1794 38.4757 22.4532C38.4025 22.727 38.2405 22.9687 38.015 23.1405C37.7896 23.3123 37.5136 23.4045 37.2302 23.4025Z" fill="#37474F"></path>
</svg>
