<svg width="25" height="46" viewBox="0 0 25 46" fill="none" xmlns="http://www.w3.org/2000/svg">
<path d="M21.6804 12.8443C19.5684 18.7323 16.9828 26.5019 14.5892 33.4651C13.6292 36.2939 12.6948 38.9947 11.8372 41.3755C11.5307 42.4984 10.9502 43.5276 10.1476 44.3707C10.0661 44.449 9.9759 44.5177 9.8788 44.5755C9.25097 44.9836 8.52749 45.2207 7.77991 45.2633C7.03233 45.306 6.28656 45.1527 5.61639 44.8187C4.60882 44.4074 3.71054 43.7676 2.99239 42.9499C1.61651 41.2914 0.813378 39.2327 0.702662 37.0807C0.591945 34.9286 1.17958 32.7984 2.37799 31.0075C2.46759 30.7131 2.5828 30.4187 2.6852 30.1243C4.7332 24.2619 7.9588 15.5067 10.442 10.1691C11.3124 8.28749 13.45 2.70669 14.8836 1.20909C17.994 -0.0709054 20.3364 0.505097 23.2932 4.1019C25.418 6.7643 22.6404 9.9899 21.6804 12.8443Z" fill="#263238"></path>
</svg>
