<svg width="9" height="4" viewBox="0 0 9 4" fill="none" xmlns="http://www.w3.org/2000/svg">
<path d="M4.11397 3.64457C2.53957 3.55497 1.02918 3.20937 0.606784 2.36457C0.482121 2.14692 0.424155 1.89743 0.440085 1.64711C0.456014 1.39679 0.545127 1.15666 0.696374 0.956563C0.800083 0.780083 0.940698 0.628106 1.1086 0.511017C1.2765 0.393927 1.46774 0.314492 1.66919 0.278165C3.72999 -0.208235 7.85159 2.83816 8.06919 2.91496C8.11982 2.95558 8.15846 3.00917 8.181 3.07004C8.20355 3.13091 8.20913 3.19675 8.19717 3.26055C8.18473 3.32174 8.15534 3.37821 8.11233 3.42348C8.06932 3.46875 8.01444 3.501 7.95397 3.51656C6.68221 3.69613 5.39487 3.73905 4.11397 3.64457ZM2.32198 0.854181C2.13082 0.828807 1.93714 0.828807 1.74598 0.854181C1.62695 0.879116 1.51434 0.928347 1.41522 0.998829C1.31611 1.06931 1.23262 1.1595 1.16999 1.26375C0.939587 1.66055 1.00358 1.85255 1.06758 1.98055C1.59238 2.90215 4.68998 3.11977 6.96838 2.92777C5.57947 1.91215 3.99178 1.20117 2.30919 0.841368L2.32198 0.854181Z" fill="#37474F"></path>
</svg>
