<svg width="7" height="5" viewBox="0 0 7 5" fill="none" xmlns="http://www.w3.org/2000/svg">
<path d="M6.37969 4.45682C5.25522 4.35532 4.17165 3.98486 3.22041 3.37669C2.26917 2.76851 1.47815 1.94048 0.914092 0.962429C0.886042 0.904267 0.881 0.837651 0.89999 0.775935C0.91898 0.714218 0.96059 0.661949 1.01648 0.629616C1.04575 0.614515 1.07778 0.605516 1.11062 0.603161C1.14347 0.600806 1.17645 0.605153 1.20757 0.615925C1.23869 0.626697 1.2673 0.64367 1.29166 0.665827C1.31602 0.687985 1.33562 0.71486 1.34929 0.744821C1.88553 1.65017 2.62955 2.4149 3.51984 2.97579C4.41014 3.53667 5.42114 3.87761 6.46929 3.97042C6.5014 3.97508 6.53225 3.98613 6.56003 4.0029C6.58781 4.01967 6.61196 4.04181 6.63105 4.06805C6.65013 4.0943 6.66377 4.1241 6.67116 4.15569C6.67856 4.18728 6.67955 4.22003 6.67409 4.25202C6.67091 4.28235 6.66174 4.31174 6.64711 4.3385C6.63248 4.36526 6.61269 4.38885 6.58888 4.4079C6.56506 4.42695 6.53771 4.44108 6.50839 4.44948C6.47907 4.45788 6.44837 4.46038 6.41809 4.45682H6.37969Z" fill="#263238"></path>
</svg>
