<svg width="3" height="4" viewBox="0 0 3 4" fill="none" xmlns="http://www.w3.org/2000/svg">
<path d="M2.78181 1.88929C2.83105 2.13845 2.80504 2.39664 2.70711 2.63099C2.60917 2.86533 2.44372 3.06524 2.23183 3.20528C2.01994 3.34532 1.77118 3.41915 1.5172 3.41739C1.26322 3.41563 1.01551 3.33835 0.805583 3.19538C0.595657 3.05241 0.43301 2.85022 0.338337 2.61454C0.243664 2.37886 0.221252 2.12034 0.273943 1.87188C0.326633 1.62342 0.452052 1.39626 0.634236 1.21929C0.816419 1.04232 1.04712 0.92355 1.29701 0.878094C1.6277 0.817939 1.96879 0.890262 2.2466 1.07946C2.52441 1.26866 2.71666 1.55954 2.78181 1.88929Z" fill="#263238"></path>
</svg>
