<svg width="8" height="4" viewBox="0 0 8 4" fill="none" xmlns="http://www.w3.org/2000/svg">
<path d="M6.93359 3.72594H6.81839C5.29519 3.96914 1.44238 3.35473 0.763977 2.07473C0.655242 1.85841 0.627715 1.61025 0.686438 1.37536C0.74516 1.14047 0.886233 0.934442 1.08398 0.794733C1.27627 0.601512 1.50957 0.454014 1.76659 0.363171C2.02361 0.272327 2.29778 0.24046 2.56878 0.269929C4.55278 0.500329 6.81837 3.07311 6.92077 3.17551C6.96275 3.20548 6.99569 3.2464 7.01601 3.2938C7.03632 3.3412 7.04322 3.39328 7.03597 3.44434L6.93359 3.72594ZM1.60878 1.16594H1.44238C1.09677 1.48594 1.19916 1.67792 1.22476 1.74192C1.57036 2.52272 4.42479 3.16273 6.13999 3.11153C5.19022 2.0343 3.95739 1.24495 2.58155 0.833132C2.40338 0.821721 2.22479 0.847697 2.05726 0.909421C1.88972 0.971144 1.73697 1.06725 1.60878 1.19153V1.16594Z" fill="#37474F"></path>
</svg>
