<svg width="60" height="44" viewBox="0 0 60 44" fill="none" xmlns="http://www.w3.org/2000/svg">
<path d="M0.0117188 30.4663C0.0118649 33.7757 1.27368 36.9606 3.54012 39.3721C5.80655 41.7836 8.90709 43.2403 12.2101 43.4455C12.4789 43.4455 47.0773 43.4455 47.4101 43.4455C50.6492 43.1789 53.6711 41.7092 55.8806 39.3258C58.0901 36.9424 59.3271 33.818 59.348 30.5681C59.3689 27.3181 58.1721 24.1781 55.9934 21.7665C53.8147 19.3549 50.8119 17.8465 47.5765 17.5383C47.2481 12.8232 45.1366 8.40995 41.6714 5.19552C38.2061 1.98109 33.647 0.206628 28.9205 0.232705C24.194 0.258783 19.6547 2.08344 16.2251 5.33591C12.7955 8.58838 10.733 13.0246 10.4565 17.7431C7.51516 18.3337 4.86841 19.923 2.96484 22.2418C1.06128 24.5606 0.0179814 27.4662 0.0117188 30.4663Z" fill="#EBEBEB"></path>
</svg>
