<svg width="30" height="17" viewBox="0 0 30 17" fill="none" xmlns="http://www.w3.org/2000/svg">
<path d="M28.4009 0.53418C28.7977 2.58218 29.1561 4.55335 29.4761 6.30695C29.4761 6.39655 29.4761 6.48617 29.4761 6.60137C29.4832 6.73781 29.4832 6.87454 29.4761 7.01098C29.5753 7.57365 29.5447 8.15153 29.3865 8.70055C29.3601 8.77649 29.3258 8.84945 29.2841 8.91816C28.4794 9.53684 27.6229 10.085 26.7241 10.5566C26.1609 10.8766 25.5721 11.1582 24.9449 11.4526C23.9081 11.9262 22.8201 12.3486 21.6937 12.7326C20.5673 13.1166 19.1337 13.603 17.7769 14.0126C15.5497 14.6654 13.2713 15.2926 11.0057 15.8046H10.9289L6.57688 16.9054C5.29688 17.2254 2.58329 13.6158 1.76409 12.771C1.45757 12.4784 1.17506 12.1616 0.919281 11.8238C0.5108 11.3935 0.212211 10.8709 0.0488802 10.3005C-0.0791198 9.62215 0.202484 9.02056 1.07288 8.39336C2.54954 7.52549 4.15134 6.89082 5.82168 6.51176L14.1673 4.19496L16.0745 3.64457L16.6377 3.50375L18.4681 2.99176L19.9017 2.58215H20.0169C22.1417 2.00615 24.0489 1.46857 25.5209 1.08457C26.4637 0.820497 27.4271 0.636387 28.4009 0.53418Z" fill="#263238"></path>
</svg>
