<svg width="6" height="7" viewBox="0 0 6 7" fill="none" xmlns="http://www.w3.org/2000/svg">
<path d="M4.82603 6.52905H4.69802C3.26442 5.68425 0.486822 2.54824 0.858022 1.03784C0.912796 0.785105 1.05682 0.560578 1.26371 0.405417C1.47059 0.250256 1.72647 0.174852 1.98443 0.193034C2.27416 0.163845 2.56677 0.199208 2.84121 0.296589C3.11564 0.39397 3.36508 0.550952 3.57162 0.756237C5.06922 2.30504 5.19723 5.97865 5.21003 6.13225C5.22212 6.18686 5.22023 6.24364 5.20456 6.29733C5.1889 6.35102 5.15997 6.39989 5.12042 6.43944L4.82603 6.52905ZM2.13802 0.807448L1.95882 0.743425C1.44682 0.743425 1.40843 0.999437 1.38283 1.07624C1.12683 1.94664 3.07242 4.41703 4.53162 5.54343C4.47749 4.00569 3.98937 2.51467 3.12363 1.24264C2.9973 1.10724 2.84483 0.998852 2.67542 0.92405C2.50602 0.849248 2.32319 0.809589 2.13802 0.807448Z" fill="#37474F"></path>
</svg>
