<svg width="9" height="9" viewBox="0 0 9 9" fill="none" xmlns="http://www.w3.org/2000/svg">
<path opacity="0.2" d="M4.19974 0.23321C4.99514 0.13658 5.80147 0.273887 6.52006 0.628327C7.23864 0.982767 7.83833 1.53895 8.24576 2.22887C8.65319 2.9188 8.85071 3.71253 8.81412 4.51294C8.77753 5.31335 8.50842 6.08572 8.03974 6.73559C7.62737 7.31671 7.06656 7.77652 6.41588 8.06696C5.76519 8.3574 5.0485 8.46785 4.34056 8.3868C3.54233 8.30317 2.78585 7.98829 2.16404 7.48083C1.54223 6.97336 1.08212 6.29539 0.840173 5.53012C0.598223 4.76486 0.584974 3.94559 0.802048 3.1729C1.01912 2.40021 1.45705 1.70771 2.06213 1.1804C2.64593 0.630334 3.4001 0.296169 4.19974 0.23321Z" fill="#C13B37"></path>
</svg>
