<svg width="43" height="22" viewBox="0 0 43 22" fill="none" xmlns="http://www.w3.org/2000/svg">
<path d="M42.5252 10.4647C41.5652 13.2935 40.6308 15.9944 39.7732 18.3752C39.7732 18.516 39.6836 18.6439 39.6196 18.7847C39.5582 18.9724 39.4855 19.1562 39.402 19.3352C39.1373 20.1029 38.6993 20.7993 38.122 21.3704C38.0405 21.4486 37.9503 21.5173 37.8532 21.5752C36.4409 21.7675 35.0158 21.8488 33.5908 21.8184C32.6564 21.8184 31.722 21.7543 30.7492 21.6647H30.634C29.0212 21.5111 27.3572 21.2807 25.6804 20.9863C23.786 20.6535 21.8404 20.2439 19.9332 19.7063C16.7204 18.9383 13.5332 18.0295 10.282 17.1463H10.1796C8.0804 16.5575 6.0196 15.9688 3.9972 15.4184C2.218 14.932 1.4372 8.51916 0.950799 6.89356C0.780132 6.25356 0.652128 5.66475 0.566795 5.12715C0.363152 4.28597 0.363152 3.40833 0.566795 2.56715C0.873995 1.63275 1.66759 1.05676 3.12679 0.915959C5.57272 0.894507 8.00745 1.24848 10.346 1.96555C13.3412 2.73355 17.7444 3.83435 22.3396 4.98635L25.0916 5.67756L25.8852 5.88236L28.5092 6.54795L30.5828 7.05996H30.7364C33.7828 7.85356 36.5348 8.54475 38.6212 9.10795C39.9556 9.45877 41.2608 9.91239 42.5252 10.4647Z" fill="#263238"></path>
</svg>
