<svg width="14" height="18" viewBox="0 0 14 18" fill="none" xmlns="http://www.w3.org/2000/svg">
<path d="M0.600081 10.5725L1.45768 5.00455C1.51452 4.64841 1.66217 4.31292 1.88637 4.03043C2.11057 3.74794 2.40375 3.52797 2.73768 3.39174L9.70088 0.255742C10.0001 0.121791 10.3263 0.0589027 10.6539 0.0720115C10.9815 0.0851204 11.3017 0.173875 11.5893 0.331308C11.8769 0.488742 12.1241 0.710585 12.3117 0.979492C12.4993 1.2484 12.6221 1.55708 12.6705 1.88135L13.1697 5.23494C13.2339 5.67409 13.1489 6.12207 12.9285 6.50727C12.708 6.89246 12.3648 7.19261 11.9537 7.35975C11.081 7.70526 10.3063 8.25923 9.69717 8.97324C9.08803 9.68725 8.66302 10.5396 8.45928 11.4557C7.55048 14.6045 8.19049 15.8333 5.38729 16.8189C2.58409 17.8045 0.280081 16.8701 0.600081 10.5725Z" fill="#DD8C6A"></path>
</svg>
