<svg width="5" height="3" viewBox="0 0 5 3" fill="none" xmlns="http://www.w3.org/2000/svg">
<path d="M4.24257 2.08895C3.529 2.20672 2.7976 2.15198 2.10951 1.9293C1.42142 1.70661 0.796633 1.32246 0.287363 0.808945C0.273044 0.794675 0.261688 0.777694 0.253936 0.759023C0.246183 0.740353 0.242188 0.720333 0.242188 0.700117C0.242188 0.679901 0.246183 0.659881 0.253936 0.641211C0.261688 0.622541 0.273044 0.605598 0.287363 0.591328C0.313476 0.572575 0.344814 0.5625 0.376963 0.5625C0.409112 0.5625 0.44045 0.572575 0.466562 0.591328C0.947044 1.06531 1.53204 1.41993 2.17452 1.62668C2.817 1.83343 3.49903 1.88653 4.16577 1.78172C4.18694 1.77809 4.20863 1.77895 4.22944 1.78422C4.25026 1.78949 4.26974 1.79908 4.28663 1.81234C4.30352 1.82561 4.31743 1.84227 4.32748 1.86125C4.33753 1.88023 4.34349 1.90111 4.34497 1.92254C4.34675 1.94208 4.34443 1.96176 4.33815 1.98035C4.33188 1.99894 4.3218 2.01601 4.30854 2.03047C4.29529 2.04493 4.27916 2.05647 4.26118 2.06434C4.24321 2.0722 4.22379 2.07621 4.20417 2.07613L4.24257 2.08895Z" fill="#263238"></path>
</svg>
