<svg width="28" height="13" viewBox="0 0 28 13" fill="none" xmlns="http://www.w3.org/2000/svg">
<path d="M1.16874 3.09247C1.57591 2.41996 2.15716 1.8699 2.85109 1.50041C3.54502 1.13091 4.32587 0.955695 5.11114 0.99327C6.67767 1.09663 8.22541 1.39329 9.71914 1.87647C12.8143 2.64581 16.0216 2.85818 19.1911 2.50367C20.5024 2.28885 21.8307 2.19459 23.1591 2.22207C23.8261 2.23781 24.4817 2.39819 25.0806 2.69212C25.6795 2.98605 26.2075 3.40652 26.6279 3.92447C27.1404 4.81957 27.3273 5.86442 27.157 6.88168C26.9867 7.89893 26.4696 8.82591 25.6935 9.50527C24.1033 10.8388 22.1853 11.7227 20.1383 12.0653C15.6583 13.1149 10.4871 13.7037 6.22475 11.5149C3.65195 10.1581 -0.39286 6.26687 1.16874 3.09247Z" fill="#263238"></path>
</svg>
