<svg width="4" height="3" viewBox="0 0 4 3" fill="none" xmlns="http://www.w3.org/2000/svg">
<path d="M1.49207 2.73192C1.61891 2.39053 1.82574 2.08451 2.09522 1.83953C2.3647 1.59455 2.68898 1.41774 3.04088 1.32392C3.11557 1.30864 3.18112 1.26433 3.22313 1.20071C3.26514 1.1371 3.28016 1.0594 3.26488 0.984719C3.24961 0.910034 3.20529 0.844471 3.14168 0.802463C3.07807 0.760455 3.00037 0.745438 2.92569 0.760715C2.48117 0.874812 2.07035 1.0935 1.72746 1.39853C1.38458 1.70356 1.11956 2.08611 0.954475 2.51432C0.929116 2.58572 0.932271 2.66414 0.963264 2.73328C0.994257 2.80242 1.05071 2.85695 1.12088 2.88552C1.16369 2.91023 1.21225 2.92324 1.26168 2.92324C1.31111 2.92324 1.35967 2.91023 1.40248 2.88552C1.4426 2.84103 1.4731 2.78874 1.49207 2.73192Z" fill="#263238"></path>
</svg>
