<svg width="96" height="96" viewBox="0 0 96 96" fill="none" xmlns="http://www.w3.org/2000/svg">
<path opacity="0.2" d="M92.5167 65.0589C90.127 71.3332 86.4408 77.033 81.6987 81.786C76.9567 86.5391 71.2655 90.2386 64.9967 92.6429C60.7774 94.2967 56.3411 95.3314 51.8255 95.7149C51.3647 95.7149 50.8911 95.8045 50.4303 95.8173H50.2383C42.7741 96.1929 35.3258 94.8134 28.4912 91.7894C21.6566 88.7654 15.6262 84.1811 10.8841 78.4046C6.14191 72.6282 2.82007 65.8203 1.18521 58.5276C-0.449652 51.235 -0.352015 43.6606 1.47032 36.4125C1.76472 35.1965 2.12315 34.0061 2.53275 32.8029C2.73755 32.2141 2.94235 31.6253 3.17275 31.0237C7.69119 19.1759 16.731 9.60837 28.3037 4.42577C39.8763 -0.75684 53.0338 -1.12998 64.8815 3.38846C76.7293 7.9069 86.2968 16.9468 91.4794 28.5194C96.662 40.0921 97.0352 53.2495 92.5167 65.0973V65.0589Z" fill="white"></path>
</svg>
