<svg width="19" height="31" viewBox="0 0 19 31" fill="none" xmlns="http://www.w3.org/2000/svg">
<path d="M15.8412 28.8875C15.6274 28.9766 15.4041 29.041 15.1756 29.0795L8.41721 30.2571C7.47529 30.4207 6.50693 30.204 5.72463 29.6544C4.94233 29.1049 4.40999 28.2674 4.24442 27.3259L0.481214 5.70667C0.398352 5.23932 0.408474 4.76023 0.510999 4.2968C0.613525 3.83337 0.806449 3.3947 1.07871 3.00592C1.35098 2.61714 1.69723 2.28589 2.09768 2.0311C2.49813 1.77631 2.94489 1.603 3.41241 1.52108H3.66842L10.1708 0.381882C11.1127 0.218268 12.0811 0.435007 12.8634 0.984538C13.6457 1.53407 14.178 2.3715 14.3436 3.31307L18.1196 24.9451C18.253 25.7642 18.0989 26.6042 17.6837 27.3227C17.2684 28.0412 16.6175 28.5941 15.8412 28.8875Z" fill="#263238"></path>
</svg>
