<svg width="31" height="15" viewBox="0 0 31 15" fill="none" xmlns="http://www.w3.org/2000/svg">
<path d="M27.5907 8.95499C27.3475 9.12139 19.6803 9.91498 16.6851 10.9262C16.5876 10.467 16.3552 10.0475 16.0177 9.72138C15.6801 9.39524 15.2529 9.1774 14.7907 9.09579C13.86 8.95941 12.91 9.05617 12.0259 9.37739C9.91214 9.93191 7.91105 10.8501 6.11226 12.091C5.70053 11.5866 5.18551 11.1763 4.60187 10.8878C4.30658 10.7512 3.9758 10.7111 3.65644 10.7732C3.33708 10.8352 3.04536 10.9962 2.82267 11.2334C2.65052 11.5201 2.50073 11.8196 2.37466 12.1294C2.29748 12.283 2.17525 12.4095 2.02429 12.4918C1.87333 12.5742 1.70083 12.6085 1.52986 12.5902C1.52986 12.1806 -0.953336 8.66059 3.07866 3.89899C7.11066 -0.862606 15.0339 0.353397 20.9987 1.5822C22.8731 1.90127 24.6604 2.60748 26.2467 3.65579C27.0394 4.17982 27.7172 4.85974 28.2388 5.65415C28.7603 6.44856 29.1147 7.34082 29.2803 8.27659C29.5747 10.3886 28.7171 12.8718 30.1251 14.4974C29.2096 13.9199 28.4824 13.0881 28.0323 12.1037C27.5821 11.1194 27.4287 10.0252 27.5907 8.95499Z" fill="#263238"></path>
</svg>
