<svg width="13" height="32" viewBox="0 0 13 32" fill="none" xmlns="http://www.w3.org/2000/svg">
<path d="M8.54648 6.51918C9.30167 10.8328 10.4281 16.4648 11.4009 21.5336C11.7977 23.5816 12.1561 25.5528 12.4761 27.3064C12.6682 28.0927 12.6682 28.9137 12.4761 29.7C12.4497 29.7759 12.4154 29.8489 12.3737 29.9176C12.1309 30.3934 11.7658 30.796 11.3158 31.0839C10.8659 31.3719 10.3474 31.5348 9.81368 31.556C9.05925 31.654 8.29236 31.5752 7.57368 31.3256C6.16094 30.7928 4.95738 29.8191 4.14125 28.5488C3.32513 27.2785 2.93985 25.7792 3.04248 24.2728L2.92728 23.6328C2.13368 19.3576 1.05848 12.9064 0.712882 8.79758C0.597682 7.35118 -0.055125 3.21679 0.316075 1.82159C1.77527 0.00398559 3.38807 -0.495219 6.43447 0.656781C8.73847 1.50158 8.17527 4.39438 8.54648 6.51918Z" fill="#263238"></path>
</svg>
