<svg width="4" height="3" viewBox="0 0 4 3" fill="none" xmlns="http://www.w3.org/2000/svg">
<path d="M0.790462 2.70523C0.844854 2.70571 0.898401 2.69175 0.945628 2.66476C0.992855 2.63777 1.03207 2.59874 1.05926 2.55163C1.22326 2.21514 1.46594 1.92312 1.76673 1.70031C2.06753 1.4775 2.41758 1.33046 2.78726 1.27163C2.82597 1.26842 2.86367 1.25758 2.89818 1.23972C2.93268 1.22187 2.96331 1.19736 2.98829 1.16761C3.01328 1.13786 3.03213 1.10347 3.04376 1.0664C3.05539 1.02933 3.05957 0.990324 3.05606 0.951634C3.05284 0.91292 3.04199 0.875238 3.02413 0.840736C3.00628 0.806234 2.98178 0.775606 2.95203 0.750619C2.92229 0.725632 2.88789 0.706781 2.85082 0.69515C2.81376 0.683519 2.77475 0.679334 2.73606 0.682845C2.27365 0.74623 1.83332 0.920049 1.45233 1.18964C1.07133 1.45924 0.76088 1.81666 0.547259 2.23163C0.526799 2.2641 0.513199 2.3004 0.507279 2.33831C0.501359 2.37623 0.503246 2.41498 0.512835 2.45214C0.522425 2.4893 0.539511 2.52409 0.56304 2.55441C0.586569 2.58473 0.616045 2.60992 0.649661 2.62843C0.687157 2.66845 0.736514 2.69537 0.790462 2.70523Z" fill="#263238"></path>
</svg>
