<svg width="21" height="7" viewBox="0 0 21 7" fill="none" xmlns="http://www.w3.org/2000/svg">
<path opacity="0.1" d="M20.2526 6.91943C17.859 5.43463 15.4142 5.97223 13.2382 6.44583C12.2284 6.7574 11.167 6.86616 10.115 6.76583C7.72141 6.29223 5.69901 3.47623 5.23821 2.50343C5.00652 2.12391 4.6839 1.80814 4.2995 1.58465C3.9151 1.36116 3.48105 1.23701 3.03661 1.22343C2.68706 1.28256 2.356 1.42201 2.06948 1.63079C1.78296 1.83957 1.5488 2.112 1.38542 2.42663C1.2801 2.85012 1.2848 3.29351 1.39905 3.71468C1.5133 4.13585 1.73332 4.52081 2.03821 4.83303L1.75661 5.02503C1.41472 4.66963 1.17122 4.23137 1.05003 3.75335C0.928837 3.27532 0.934147 2.77399 1.06542 2.29863C1.25422 1.93103 1.526 1.61243 1.85925 1.36805C2.19249 1.12366 2.57807 0.960207 2.98542 0.890625C3.50776 0.892644 4.02015 1.03361 4.47003 1.29903C4.9199 1.56446 5.29106 1.9448 5.54542 2.40103C5.96782 3.28423 7.95181 6.02343 10.179 6.47143C11.1887 6.55632 12.2053 6.44771 13.1742 6.15143C15.299 5.69063 17.923 5.10183 20.4318 6.66343L20.2526 6.91943Z" fill="white"></path>
</svg>
