<svg width="4" height="4" viewBox="0 0 4 4" fill="none" xmlns="http://www.w3.org/2000/svg">
<path d="M3.71325 2.73693C3.73211 2.79954 3.73211 2.86632 3.71325 2.92893C3.69766 3.02497 3.64731 3.11194 3.5718 3.1733C3.49628 3.23465 3.40085 3.26612 3.30365 3.26172C2.70646 3.21678 2.12872 3.02948 1.61876 2.71548C1.1088 2.40149 0.681441 1.96994 0.37245 1.45693C0.348646 1.41362 0.33405 1.36586 0.329588 1.31665C0.325126 1.26743 0.330895 1.21783 0.346522 1.17095C0.362149 1.12407 0.387301 1.08093 0.420399 1.04423C0.453497 1.00754 0.493821 0.978092 0.538846 0.95773C0.629479 0.916019 0.732497 0.909978 0.827381 0.940816C0.922266 0.971653 1.00205 1.0371 1.05085 1.12413C1.30323 1.5274 1.64656 1.86596 2.05333 2.11269C2.46009 2.35942 2.91899 2.50745 3.39325 2.54493C3.45967 2.54129 3.52565 2.55763 3.58269 2.59185C3.63973 2.62607 3.68521 2.67661 3.71325 2.73693Z" fill="#263238"></path>
</svg>
